<svg xmlns="http://www.w3.org/2000/svg" viewBox="0 0 947 600"><defs><style>.cls-1{isolation:isolate;}.cls-10,.cls-2,.cls-8{fill:#92b5d6;}.cls-12,.cls-18,.cls-19,.cls-20,.cls-24,.cls-25,.cls-3,.cls-6{fill:none;}.cls-4{fill:#fdcb37;}.cls-5{opacity:0.7;mix-blend-mode:multiply;}.cls-24,.cls-6{stroke:#92b5d6;}.cls-10,.cls-11,.cls-12,.cls-13,.cls-18,.cls-19,.cls-20,.cls-23,.cls-24,.cls-25,.cls-6,.cls-7{stroke-miterlimit:10;}.cls-6{stroke-dasharray:5;}.cls-15,.cls-7{fill:#283582;}.cls-10,.cls-11,.cls-12,.cls-13,.cls-18,.cls-23,.cls-7{stroke:#fff;}.cls-8,.cls-9{opacity:0.8;}.cls-16,.cls-23,.cls-9{fill:#4d6b92;}.cls-11,.cls-17{fill:#dea180;}.cls-13{fill:#ecc8b2;}.cls-14{fill:#fff;}.cls-18{stroke-width:2px;opacity:0.5;}.cls-19{stroke:#283582;}.cls-20{stroke:#dea180;}.cls-21{fill:#212535;}.cls-22{fill:#1d1d1b;}.cls-25{stroke:#4d6b92;}</style></defs><g class="cls-1"><g id="Capa_1" data-name="Capa 1"><path class="cls-2" d="M389.77,542.56l-1.11,0Z"/><path class="cls-3" d="M392.37,542.51l-2.6,0Z"/><path class="cls-3" d="M385,542.61l3.69,0-3.69,0Z"/><polygon class="cls-4" points="384.97 542.61 384.97 542.61 384.97 542.61 384.97 542.61 384.97 542.61"/><g class="cls-5"><circle class="cls-6" cx="384.97" cy="284.83" r="256.83" transform="translate(-1.05 1.42) rotate(-0.21)"/><circle class="cls-6" cx="384.97" cy="284.83" r="233.48" transform="translate(-1.05 1.42) rotate(-0.21)"/><circle class="cls-6" cx="384.97" cy="284.83" r="210.13" transform="translate(-1.05 1.42) rotate(-0.21)"/><circle class="cls-6" cx="384.97" cy="284.83" r="186.78" transform="translate(-1.05 1.42) rotate(-0.21)"/><path class="cls-6" d="M385.57,448.27a163.44,163.44,0,0,1-1.2-326.88s63.46-2.25,109.23,42.25"/><circle class="cls-6" cx="384.97" cy="284.83" r="140.09" transform="translate(-1.05 1.42) rotate(-0.21)"/><path class="cls-6" d="M283.58,226.88a116.77,116.77,0,1,0,101-58.79"/><path class="cls-6" d="M291.58,285.18a93.08,93.08,0,0,1,12.47-47.05"/><path class="cls-6" d="M384.63,191.44a93.39,93.39,0,1,1-93.05,93.74"/><path class="cls-6" d="M314.93,285.09a70,70,0,1,0,9.14-34.92"/><path class="cls-6" d="M344.34,261.78A46.72,46.72,0,1,1,338.27,285"/></g><path class="cls-7" d="M344.67,262.2l-20.24-11.68a69.76,69.76,0,0,0-7.05,16.84l22.57,6A45.84,45.84,0,0,1,344.67,262.2Z"/><path class="cls-7" d="M338.29,285.47A46.21,46.21,0,0,1,340,273.4l-22.57-6a70.17,70.17,0,0,0-2.45,18.11Z"/><path class="cls-7" d="M362.5,279.45a23.25,23.25,0,0,1,2.39-5.58l-16.12-9.3-4.1-2.37a46.55,46.55,0,0,0-6.38,23.27h23.34A23.41,23.41,0,0,1,362.5,279.45Z"/><path class="cls-8" d="M501.71,285.78a118.58,118.58,0,0,0-.9-14.56,116.7,116.7,0,0,0-38.66-73.06l-15.44,17.52L431.26,233.2l-15.45,17.52-15.44,17.51a23.63,23.63,0,0,1,3.77,4.22,23.07,23.07,0,0,1,4,10.47,22.52,22.52,0,0,1,.18,2.86,23.69,23.69,0,0,1-.17,2.81l23.16,2.93,23.17,2.93,23.17,2.92,23.17,2.93A117.93,117.93,0,0,0,501.71,285.78Z"/><polyline class="cls-9" points="432.23 233.12 394.97 276.38 374.09 278.89 324.46 250.53"/><path class="cls-9" d="M324.46,250.54s13.88-29.75,53.69-35.15a65.39,65.39,0,0,1,54.08,17.73"/><path class="cls-10" d="M418.49,421.84a139.86,139.86,0,0,0,59.3-31.09l-15.45-17.52A116.32,116.32,0,0,1,385,402.52h0v23.35h0A140.74,140.74,0,0,0,418.49,421.84Z"/><path class="cls-10" d="M525.06,285.78A142.22,142.22,0,0,0,524,268.29a139.9,139.9,0,0,0-46.39-87.64l-15.44,17.51a116.35,116.35,0,0,1,38.66,73.06,118.56,118.56,0,0,1,0,29.08L524,303.23A141.57,141.57,0,0,0,525.06,285.78Z"/><path class="cls-10" d="M500.19,365.52A139.19,139.19,0,0,0,524,303.23l-23.16-2.93a116.57,116.57,0,0,1-38.48,72.93l15.45,17.52A140.45,140.45,0,0,0,500.19,365.52Z"/><path class="cls-8" d="M412.92,399.16a116.24,116.24,0,0,0,49.42-25.93L446.9,355.71,431.46,338.2,416,320.67l-15.44-17.51a23.49,23.49,0,0,1-9.94,5.28,23.4,23.4,0,0,1-5.66.69h0v93.39h0A117.53,117.53,0,0,0,412.92,399.16Z"/><path class="cls-8" d="M481,352.19a116.31,116.31,0,0,0,19.8-51.89l-23.17-2.93-23.17-2.92-23.17-2.93-23.16-2.93a23,23,0,0,1-3.84,10.29,23.83,23.83,0,0,1-3.74,4.28L416,320.67l15.45,17.53,15.44,17.51,15.44,17.52A117.29,117.29,0,0,0,481,352.19Z"/><path class="cls-2" d="M400.92,542.12l-.76,0Z"/><path class="cls-2" d="M393.61,542.47l-1.24,0Z"/><path class="cls-2" d="M397.29,542.32l-1.14,0Z"/><path class="cls-3" d="M400.16,542.17l-2.87.15Z"/><path class="cls-3" d="M396.15,542.37l-2.54.1Z"/><path class="cls-2" d="M418.49,421.84l5.57,22.67a162,162,0,0,0,36.78-13.91L450,409.9A139.35,139.35,0,0,1,418.49,421.84Z"/><path class="cls-2" d="M500,205.81l19.18-13.33A164.28,164.28,0,0,0,493,163.13l-15.44,17.52A140.27,140.27,0,0,1,500,205.81Z"/><path class="cls-2" d="M385,425.87h0v23.35h0a164,164,0,0,0,39.09-4.71l-5.57-22.67A140.74,140.74,0,0,1,385,425.87Z"/><path class="cls-2" d="M524,268.29l23.16-2.93a162,162,0,0,0-9.53-38.13l-21.8,8.37A139.58,139.58,0,0,1,524,268.29Z"/><path class="cls-2" d="M515.81,235.6l21.8-8.37a163.08,163.08,0,0,0-18.4-34.75L500,205.81A139.8,139.8,0,0,1,515.81,235.6Z"/><path class="cls-2" d="M450,409.9l10.82,20.7a164,164,0,0,0,32.39-22.34l-15.44-17.51A140.54,140.54,0,0,1,450,409.9Z"/><path class="cls-2" d="M477.79,390.75l15.44,17.51a163.7,163.7,0,0,0,26.14-29.41l-19.18-13.33A140.45,140.45,0,0,1,477.79,390.75Z"/><path class="cls-2" d="M515.92,335.69a139.71,139.71,0,0,1-15.73,29.83l19.18,13.33a163,163,0,0,0,18.35-34.79Z"/><path class="cls-2" d="M525.06,285.78A141.57,141.57,0,0,1,524,303.23l23.17,2.92a165,165,0,0,0,0-40.79L524,268.29A142.22,142.22,0,0,1,525.06,285.78Z"/><path class="cls-2" d="M515.92,335.69l21.8,8.37a162.82,162.82,0,0,0,9.43-37.91L524,303.23A139.4,139.4,0,0,1,515.92,335.69Z"/><path class="cls-4" d="M369.93,542.18l-.71,0Z"/><path class="cls-4" d="M354.27,540.8l-.1,0Z"/><path class="cls-4" d="M364.51,541.81l-.41,0Z"/><path class="cls-4" d="M380.34,542.57l-1,0Z"/><path class="cls-4" d="M374.74,542.41l-.47,0Z"/><path class="cls-3" d="M385,542.61c-1.55,0-3.09,0-4.63,0C381.88,542.59,383.42,542.61,385,542.61Z"/><path class="cls-3" d="M364.1,541.77c-3.3-.26-6.57-.59-9.83-1C357.53,541.18,360.8,541.51,364.1,541.77Z"/><path class="cls-3" d="M369.22,542.14c-1.58-.1-3.14-.21-4.71-.33C366.08,541.93,367.64,542,369.22,542.14Z"/><path class="cls-3" d="M379.32,542.55c-1.53,0-3.06-.08-4.58-.14C376.26,542.47,377.79,542.51,379.32,542.55Z"/><path class="cls-3" d="M374.27,542.39c-1.45-.06-2.9-.13-4.34-.21C371.37,542.26,372.82,542.33,374.27,542.39Z"/><path class="cls-11" d="M174.84,285.78v-.31H151.5c0,.1,0,.21,0,.31a233.74,233.74,0,0,0,11.16,71.57l22.21-7.22A210.48,210.48,0,0,1,174.84,285.78Z"/><path class="cls-11" d="M214.64,408.93a209.06,209.06,0,0,1-29.78-58.8l-22.21,7.22a232.57,232.57,0,0,0,33.09,65.31Z"/><path class="cls-11" d="M261.19,455.66l-13.73,18.9a232.72,232.72,0,0,0,65.23,33.32l7.22-22.21A209.34,209.34,0,0,1,261.19,455.66Z"/><path class="cls-11" d="M214.64,408.93l-18.9,13.73a234.9,234.9,0,0,0,51.72,51.9l13.73-18.9A210.79,210.79,0,0,1,214.64,408.93Z"/><path class="cls-11" d="M319.91,485.67l-7.22,22.21A233.65,233.65,0,0,0,385,519.26V495.92A210.33,210.33,0,0,1,319.91,485.67Z"/><path class="cls-11" d="M261.19,455.66a209.68,209.68,0,0,1-86.35-169.88v-.31h23.35v.31A186.1,186.1,0,0,0,233.54,395.2s33.58,48.94,93.59,68.24l-7.22,22.23S291.24,478.46,261.19,455.66Z"/><path class="cls-11" d="M319.91,485.67A210.33,210.33,0,0,0,385,495.92V472.57a186.78,186.78,0,0,1-57.84-9.13"/><line class="cls-12" x1="319.91" y1="485.67" x2="327.13" y2="463.44"/><path class="cls-11" d="M385,449.22A163.23,163.23,0,0,1,221.54,285.78v-.31H198.19v.31A186.59,186.59,0,0,0,385,472.57Z"/><path class="cls-13" d="M385,425.87V309.13a23.58,23.58,0,0,1-7.32-1.17A23.34,23.34,0,0,1,371,304.5a23.59,23.59,0,0,1-5.21-5.39,23.32,23.32,0,0,1-4.17-13.33v-.31H221.54v.31A163.26,163.26,0,0,0,385,449.22Z"/><path class="cls-11" d="M128.14,285.78l23.83-.22h0s-4.15,162.71,160.72,222.32l-7.15,22.21s-177.4-48.32-177.4-244.31"/><path class="cls-14" d="M353,276.39v0a1,1,0,0,1,.51.59,1.57,1.57,0,0,1,0,1,2.28,2.28,0,0,1-.42.75,1.87,1.87,0,0,1-.7.5,2.5,2.5,0,0,1-.94.19,3.6,3.6,0,0,1-1.16-.19,3.74,3.74,0,0,1-1.08-.52,2.39,2.39,0,0,1-.67-.72,2.07,2.07,0,0,1-.28-.87,2.4,2.4,0,0,1,.12-1,2.38,2.38,0,0,1,.65-1.08,2.18,2.18,0,0,1,1.12-.5l.23,1.06a1.23,1.23,0,0,0-.61.2,1.08,1.08,0,0,0-.42.62,1.18,1.18,0,0,0,0,.91,1.3,1.3,0,0,0,.83.59l.81.25a1.31,1.31,0,0,0,1,0,1.18,1.18,0,0,0,.55-.72,1.46,1.46,0,0,0,.07-.4,1,1,0,0,0,0-.36.77.77,0,0,0-.17-.29.72.72,0,0,0-.3-.17l-.25-.08-.29.93-.92-.28.62-2,2.8.88-.29.92Z"/><path class="cls-14" d="M432.43,406.6l-.05,0a1.13,1.13,0,0,1-.17.88,1.76,1.76,0,0,1-.91.66,2.44,2.44,0,0,1-1,.15,2.13,2.13,0,0,1-.94-.28,2.6,2.6,0,0,1-.84-.73,4.52,4.52,0,0,1-.65-1.2,4.34,4.34,0,0,1-.28-1.34,2.84,2.84,0,0,1,.18-1.12,2.2,2.2,0,0,1,.6-.87,2.82,2.82,0,0,1,1-.59,2.72,2.72,0,0,1,1.44-.16,2.41,2.41,0,0,1,1.24.67l-.79.95a1.44,1.44,0,0,0-.62-.41,1.24,1.24,0,0,0-.86,0,1.34,1.34,0,0,0-.8.68,1.53,1.53,0,0,0,0,1.18l.34.91a1.47,1.47,0,0,0,.73.92,1.34,1.34,0,0,0,1,0,1.86,1.86,0,0,0,.42-.22,1,1,0,0,0,.29-.29.83.83,0,0,0,.15-.35.81.81,0,0,0-.05-.4l-.11-.29-1.06.39-.38-1,2.24-.83,1.18,3.17-1.05.39Z"/><path class="cls-14" d="M340.65,220.92l0,0a1.16,1.16,0,0,1,.13.88,1.83,1.83,0,0,1-.64.94,2.38,2.38,0,0,1-.87.47,2.35,2.35,0,0,1-1,.06,2.82,2.82,0,0,1-1-.4,4.46,4.46,0,0,1-1-.91,4.12,4.12,0,0,1-.72-1.17,2.88,2.88,0,0,1-.21-1.12,2.58,2.58,0,0,1,.27-1,2.89,2.89,0,0,1,.73-.89,2.63,2.63,0,0,1,1.3-.63,2.29,2.29,0,0,1,1.39.21l-.42,1.16a1.54,1.54,0,0,0-.72-.18,1.3,1.3,0,0,0-.8.34,1.41,1.41,0,0,0-.52.91,1.55,1.55,0,0,0,.44,1.09l.63.75a1.52,1.52,0,0,0,1,.62,1.33,1.33,0,0,0,1-.36,1.65,1.65,0,0,0,.31-.34,1,1,0,0,0,.18-.38.82.82,0,0,0,0-.38.9.9,0,0,0-.19-.36l-.19-.23-.87.73-.71-.85,1.83-1.54,2.18,2.59-.85.72Z"/><path class="cls-14" d="M327.13,279.86l.81.71,1.46.06,0,1.15-5.26-.21.05-1.15,2.5.1v0l-1-.79-1.44-1.24,0-1.3,2.09,1.86,3.17-1.8,0,1.34Z"/><path class="cls-14" d="M325.7,274.17l0-1,4.5,1.7a1.47,1.47,0,0,1,.66.46,1.24,1.24,0,0,1,.19.79l0,.7-.87,0,0-.74-.43-.16-4.21,1.22,0-1.1,1.87-.51,1.16-.24v0l-1.13-.34Z"/><path class="cls-14" d="M333.34,264.88a2.59,2.59,0,0,1-.77.93,2.62,2.62,0,0,1-.93.43l-.31-1a1.67,1.67,0,0,0,1.14-.89.89.89,0,0,0,.15-.63.57.57,0,0,0-.31-.39.56.56,0,0,0-.37-.07.8.8,0,0,0-.41.34l-.3.43a2,2,0,0,1-1,.84,1.43,1.43,0,0,1-1.12-.16,1.51,1.51,0,0,1-.51-.42,1.39,1.39,0,0,1-.26-.58,1.65,1.65,0,0,1,0-.7,2.72,2.72,0,0,1,.29-.79,2.86,2.86,0,0,1,.66-.84,2.12,2.12,0,0,1,.85-.42l.32,1a1.67,1.67,0,0,0-.53.24,1.39,1.39,0,0,0-.43.53.92.92,0,0,0-.16.57.44.44,0,0,0,.24.34.5.5,0,0,0,.42.05,1,1,0,0,0,.37-.34l.32-.42a2.27,2.27,0,0,1,1-.83,1.39,1.39,0,0,1,1.12.16,1.6,1.6,0,0,1,.55.44,1.5,1.5,0,0,1,.29.61,1.78,1.78,0,0,1,0,.73A3,3,0,0,1,333.34,264.88Z"/><path class="cls-14" d="M505.76,245.82l1.16.44,1.6-.55L509,247l-5.74,2-.43-1.25,2.73-.94,0-.05-1.39-.43-2.06-.73-.49-1.42,3,1.12,2.65-3.27.51,1.47Z"/><path class="cls-14" d="M506.56,239.72a2.3,2.3,0,0,1,.14.91,1.81,1.81,0,0,1-.23.79,2.18,2.18,0,0,1-.58.64,3.12,3.12,0,0,1-.89.47,3.24,3.24,0,0,1-1,.18,2.24,2.24,0,0,1-.84-.15,1.88,1.88,0,0,1-.67-.48,2.38,2.38,0,0,1-.45-.8,2.28,2.28,0,0,1-.14-.9,1.91,1.91,0,0,1,.23-.79,2.21,2.21,0,0,1,.58-.65,3.39,3.39,0,0,1,1.87-.64,2,2,0,0,1,.85.15,1.74,1.74,0,0,1,.67.47A2.31,2.31,0,0,1,506.56,239.72Zm-1,.33a.74.74,0,0,0-.41-.48,1,1,0,0,0-.7,0l-.88.31a1,1,0,0,0-.57.41.78.78,0,0,0,0,.64.73.73,0,0,0,.42.48,1,1,0,0,0,.7,0l.88-.3a1,1,0,0,0,.56-.42A.71.71,0,0,0,505.6,240.05Z"/><path class="cls-14" d="M257.32,410.49a3.1,3.1,0,0,1-.75-1.16,3.24,3.24,0,0,1-.16-1.18h1.24a2,2,0,0,0,.57,1.57,1.13,1.13,0,0,0,.65.37.67.67,0,0,0,.54-.2.62.62,0,0,0,.2-.39.84.84,0,0,0-.23-.56l-.37-.49a2.32,2.32,0,0,1-.57-1.42,1.64,1.64,0,0,1,.56-1.17,1.73,1.73,0,0,1,.64-.42,1.81,1.81,0,0,1,.73-.09,2.36,2.36,0,0,1,.77.24,3.16,3.16,0,0,1,.77.6,2.93,2.93,0,0,1,.7,1,2.52,2.52,0,0,1,.17,1.09h-1.25a1.67,1.67,0,0,0-.08-.66A1.65,1.65,0,0,0,261,407a1.16,1.16,0,0,0-.57-.36.5.5,0,0,0-.46.15.51.51,0,0,0-.2.43,1.09,1.09,0,0,0,.24.53l.36.5a2.66,2.66,0,0,1,.56,1.4,1.58,1.58,0,0,1-.56,1.18,2,2,0,0,1-.68.45,1.66,1.66,0,0,1-.77.11,2.19,2.19,0,0,1-.81-.24A3.65,3.65,0,0,1,257.32,410.49Z"/><path class="cls-14" d="M469.34,163.34a3,3,0,0,1-1-1,3.09,3.09,0,0,1-.4-1.11l1.21-.25a2,2,0,0,0,.89,1.42,1,1,0,0,0,.71.23.65.65,0,0,0,.49-.31.6.6,0,0,0,.11-.42.85.85,0,0,0-.34-.5l-.46-.4a2.36,2.36,0,0,1-.85-1.27,1.65,1.65,0,0,1,.31-1.27,1.74,1.74,0,0,1,.54-.54,1.57,1.57,0,0,1,.7-.23,2,2,0,0,1,.8.07,3.4,3.4,0,0,1,.88.43,3,3,0,0,1,.88.85,2.51,2.51,0,0,1,.4,1l-1.23.26a1.93,1.93,0,0,0-.21-.64,1.66,1.66,0,0,0-.56-.56,1.16,1.16,0,0,0-.64-.24.51.51,0,0,0-.41.24.54.54,0,0,0-.11.47,1.18,1.18,0,0,0,.35.47l.44.41a2.55,2.55,0,0,1,.84,1.25,1.63,1.63,0,0,1-.3,1.27,1.89,1.89,0,0,1-.58.58,1.58,1.58,0,0,1-.72.27,2.28,2.28,0,0,1-.85-.07A3.83,3.83,0,0,1,469.34,163.34Z"/><path class="cls-14" d="M409,209.92a3.29,3.29,0,0,1-1.12-.82,3.19,3.19,0,0,1-.56-1l1.16-.44a1.94,1.94,0,0,0,1.09,1.26,1.05,1.05,0,0,0,.74.12.66.66,0,0,0,.44-.38.65.65,0,0,0,0-.43.9.9,0,0,0-.42-.45l-.51-.32a2.28,2.28,0,0,1-1-1.12,1.71,1.71,0,0,1,.1-1.3,1.93,1.93,0,0,1,.46-.62A1.76,1.76,0,0,1,410,204a2.14,2.14,0,0,1,.81,0,3.21,3.21,0,0,1,.92.28,3.12,3.12,0,0,1,1,.7,2.43,2.43,0,0,1,.55,1l-1.17.44a1.74,1.74,0,0,0-.3-.59,1.69,1.69,0,0,0-.64-.47,1.15,1.15,0,0,0-.67-.14.51.51,0,0,0-.38.3.55.55,0,0,0,0,.48,1.09,1.09,0,0,0,.42.41l.5.34a2.63,2.63,0,0,1,1,1.1,1.65,1.65,0,0,1-.1,1.31,2,2,0,0,1-.48.66,1.72,1.72,0,0,1-.67.38,2.36,2.36,0,0,1-.85.06A3.71,3.71,0,0,1,409,209.92Z"/><path class="cls-14" d="M403.16,135.6l-2.3-.3-.32,2.47-1.31-.17.78-6,1.31.17-.3,2.39,2.29.3.31-2.4,1.31.17-.78,6-1.31-.17Z"/><path class="cls-14" d="M501.53,347.31a2.84,2.84,0,0,1-2,1.56l-.36-1.18a2,2,0,0,0,1.33-1,1.09,1.09,0,0,0,.17-.73.67.67,0,0,0-.35-.46.61.61,0,0,0-.43-.07c-.15,0-.3.15-.47.38l-.36.49a2.35,2.35,0,0,1-1.18,1,1.7,1.7,0,0,1-1.3-.19,1.74,1.74,0,0,1-.58-.49,1.67,1.67,0,0,1-.3-.68,2.15,2.15,0,0,1,0-.8,3.29,3.29,0,0,1,.34-.91,3,3,0,0,1,.77-1,2.43,2.43,0,0,1,1-.49l.36,1.2a1.75,1.75,0,0,0-.61.27,1.72,1.72,0,0,0-.51.6,1.2,1.2,0,0,0-.18.66.5.5,0,0,0,.27.4.57.57,0,0,0,.48.06,1.35,1.35,0,0,0,.44-.39l.37-.48a2.49,2.49,0,0,1,1.17-.95,1.6,1.6,0,0,1,1.29.18,2,2,0,0,1,.63.52,1.56,1.56,0,0,1,.33.7,2.19,2.19,0,0,1,0,.85A3.29,3.29,0,0,1,501.53,347.31Z"/><path class="cls-14" d="M426.05,169a3,3,0,0,1-1.21-.68,3,3,0,0,1-.68-1l1.09-.57a2,2,0,0,0,1.24,1.12,1.09,1.09,0,0,0,.75,0,.63.63,0,0,0,.38-.43.66.66,0,0,0,0-.44,1,1,0,0,0-.47-.39l-.55-.26a2.29,2.29,0,0,1-1.16-1,1.66,1.66,0,0,1-.05-1.3,1.77,1.77,0,0,1,.38-.67,1.65,1.65,0,0,1,.6-.41,2,2,0,0,1,.8-.15,3.47,3.47,0,0,1,.95.17,3.06,3.06,0,0,1,1.09.58,2.61,2.61,0,0,1,.66.88l-1.11.58a1.75,1.75,0,0,0-.38-.55,1.64,1.64,0,0,0-.69-.4,1.18,1.18,0,0,0-.68-.05.5.5,0,0,0-.34.34.55.55,0,0,0,0,.48,1.22,1.22,0,0,0,.46.36l.54.27a2.62,2.62,0,0,1,1.15,1,1.61,1.61,0,0,1,.06,1.3,2.1,2.1,0,0,1-.4.72,1.71,1.71,0,0,1-.63.46,2.16,2.16,0,0,1-.83.15A3.13,3.13,0,0,1,426.05,169Z"/><path class="cls-14" d="M516.68,356.16l3.83,2a2.12,2.12,0,0,1,.62.47,1.49,1.49,0,0,1,.33.62,1.77,1.77,0,0,1,0,.73,2.49,2.49,0,0,1-.27.81,2.18,2.18,0,0,1-.47.65,1.73,1.73,0,0,1-.58.37,2.08,2.08,0,0,1-.66.11,2.28,2.28,0,0,1-.72-.13l.35-1.21c.51.16.86.05,1.05-.31a.73.73,0,0,0,.06-.52.77.77,0,0,0-.42-.44L517,357.83l-.84,1.63-.94-.48Z"/><path class="cls-14" d="M440.93,142.14l-1.63,4a2.06,2.06,0,0,1-.41.65,1.52,1.52,0,0,1-.59.39,1.88,1.88,0,0,1-.72.11,2.61,2.61,0,0,1-.83-.19,2.53,2.53,0,0,1-.69-.42,1.72,1.72,0,0,1-.42-.55,1.73,1.73,0,0,1-.17-.65,2.24,2.24,0,0,1,.06-.72l1.24.24c-.11.52,0,.86.4,1a.72.72,0,0,0,.52,0,.76.76,0,0,0,.41-.46l1.21-3-1.71-.69.4-1Z"/><path class="cls-14" d="M527.41,244.13l-.79-2.84a1.59,1.59,0,0,1,.1-1.25,1.51,1.51,0,0,1,1-.71,1.48,1.48,0,0,1,.6-.07,1,1,0,0,1,.77.4,1.4,1.4,0,0,1,.19.41l0,0a1.68,1.68,0,0,1,0-.46,1.07,1.07,0,0,1,.12-.49,1.34,1.34,0,0,1,.33-.44,1.54,1.54,0,0,1,.6-.31,2,2,0,0,1,.68-.06,1.58,1.58,0,0,1,.62.16,1.51,1.51,0,0,1,.49.38,1.42,1.42,0,0,1,.3.57l.86,3.1Zm2.05-1.94-.36-1.27a.5.5,0,0,0-.25-.35.56.56,0,0,0-.43,0l-.25.07a.58.58,0,0,0-.36.25.55.55,0,0,0,0,.44l.35,1.26Zm2.38-.67-.41-1.46a.58.58,0,0,0-.25-.36.49.49,0,0,0-.43,0l-.29.08a.55.55,0,0,0-.35.25.6.6,0,0,0,0,.44l.4,1.47Z"/><path class="cls-14" d="M531.28,235a3,3,0,0,1,.1,1.38,3.2,3.2,0,0,1-.43,1.1l-1.08-.6a2,2,0,0,0,.26-1.65,1.13,1.13,0,0,0-.39-.65.67.67,0,0,0-.57-.08.6.6,0,0,0-.36.25.82.82,0,0,0-.07.6l.08.6a2.27,2.27,0,0,1-.18,1.52,1.71,1.71,0,0,1-1.06.76,1.85,1.85,0,0,1-.77.05,1.61,1.61,0,0,1-.68-.28,1.92,1.92,0,0,1-.55-.58,3,3,0,0,1-.39-.89,3.34,3.34,0,0,1-.12-1.23,2.43,2.43,0,0,1,.38-1l1.09.61a1.62,1.62,0,0,0-.25.62,1.69,1.69,0,0,0,.05.79,1.17,1.17,0,0,0,.33.6.49.49,0,0,0,.47.09.57.57,0,0,0,.39-.28,1.31,1.31,0,0,0,0-.59l-.07-.6a2.56,2.56,0,0,1,.19-1.5,1.56,1.56,0,0,1,1-.76,2.1,2.1,0,0,1,.82-.07,1.85,1.85,0,0,1,.72.27,2.15,2.15,0,0,1,.59.61A3.25,3.25,0,0,1,531.28,235Z"/><path class="cls-14" d="M434.1,425.53l2.76-1a1.6,1.6,0,0,1,1.25,0,1.53,1.53,0,0,1,.79.91,1.81,1.81,0,0,1,.13.59,1.11,1.11,0,0,1-.09.46,1,1,0,0,1-.26.34,1.21,1.21,0,0,1-.38.23l0,.05a1.63,1.63,0,0,1,.46-.09,1.4,1.4,0,0,1,.49.08,1.46,1.46,0,0,1,.47.29,1.44,1.44,0,0,1,.36.58,1.74,1.74,0,0,1,.13.67,1.81,1.81,0,0,1-.11.63,1.51,1.51,0,0,1-.34.52,1.37,1.37,0,0,1-.54.35l-3,1.13Zm2.11,1.86,1.23-.46a.58.58,0,0,0,.33-.28.56.56,0,0,0,0-.44l-.09-.24a.5.5,0,0,0-.28-.33.53.53,0,0,0-.43,0l-1.24.46Zm.87,2.31,1.42-.53a.57.57,0,0,0,.34-.28.53.53,0,0,0,0-.43l-.1-.28a.6.6,0,0,0-.29-.33.61.61,0,0,0-.44,0l-1.42.54Z"/><path class="cls-14" d="M443.54,428.58a3.19,3.19,0,0,1-1.37.22,3,3,0,0,1-1.13-.34l.5-1.12a2,2,0,0,0,1.67.11,1.12,1.12,0,0,0,.6-.44.65.65,0,0,0,0-.58.64.64,0,0,0-.28-.34.91.91,0,0,0-.61,0l-.59.14a2.25,2.25,0,0,1-1.52,0,1.68,1.68,0,0,1-.86-1,1.8,1.8,0,0,1-.11-.75,1.62,1.62,0,0,1,.21-.71,2,2,0,0,1,.53-.6,3.47,3.47,0,0,1,2.07-.69,2.46,2.46,0,0,1,1.06.28l-.51,1.14a2,2,0,0,0-.64-.2,1.77,1.77,0,0,0-.78.13,1.11,1.11,0,0,0-.57.38.49.49,0,0,0-.05.47.51.51,0,0,0,.32.36,1.11,1.11,0,0,0,.58,0l.6-.13a2.66,2.66,0,0,1,1.51.06,1.62,1.62,0,0,1,.85,1,2.13,2.13,0,0,1,.14.81,2,2,0,0,1-.21.75,2.21,2.21,0,0,1-.56.64A3.56,3.56,0,0,1,443.54,428.58Z"/><path class="cls-14" d="M212.62,388.41l.89-1-.89-1.51-1.27.31-.59-1,5.41-1.18.72,1.22-3.66,4.15Zm3-3.21,0,0-2,.52.62,1Z"/><path class="cls-14" d="M216.38,392.91l0,0a1,1,0,0,1-.78,0,1.49,1.49,0,0,1-.72-.66,2,2,0,0,1-.3-.81,1.89,1.89,0,0,1,.06-.85,2.39,2.39,0,0,1,.48-.84,3.47,3.47,0,0,1,.9-.76,3.43,3.43,0,0,1,1.09-.48,2.35,2.35,0,0,1,1,0,2,2,0,0,1,.85.35,2.49,2.49,0,0,1,.67.73,2.36,2.36,0,0,1,.39,1.19,2.07,2.07,0,0,1-.35,1.17l-.95-.5a1.31,1.31,0,0,0,.24-.6,1,1,0,0,0-.19-.72,1.18,1.18,0,0,0-.72-.56,1.32,1.32,0,0,0-1,.25l-.72.45a1.31,1.31,0,0,0-.65.78,1.18,1.18,0,0,0,.19.89,1.54,1.54,0,0,0,.25.31,1,1,0,0,0,.31.2.61.61,0,0,0,.32.06.62.62,0,0,0,.33-.11l.23-.14-.52-.83.81-.51,1.1,1.76-2.49,1.55-.51-.81Z"/><path class="cls-14" d="M219,398.41l.83-1-1-1.46-1.25.38-.65-1,5.34-1.48.79,1.18-3.43,4.35ZM221.8,395l0,0-2,.63.67,1Z"/><path class="cls-14" d="M220.37,400.43l.75-.52.39.55,2.81-2-.39-.56.75-.52,1.44,2-.75.52-.39-.56-2.81,2,.39.56-.75.52Z"/><path class="cls-14" d="M225.74,403.65l.54-1v0l-2.85,2.11-.64-.87,4.23-3.13.75,1-1.15,2.63-.55,1,0,0,2.85-2.11.64.86-4.23,3.14-.75-1Z"/><path class="cls-14" d="M227.46,410.19a2.67,2.67,0,0,1-.53-1.07,2.57,2.57,0,0,1,0-1l1.07.12a1.72,1.72,0,0,0,.34,1.41,1,1,0,0,0,.52.38.55.55,0,0,0,.49-.12.58.58,0,0,0,.21-.31.78.78,0,0,0-.15-.51l-.27-.45a2.08,2.08,0,0,1-.35-1.28,1.43,1.43,0,0,1,.59-1,1.54,1.54,0,0,1,.6-.3,1.38,1.38,0,0,1,.64,0,1.87,1.87,0,0,1,.64.28,3,3,0,0,1,.6.58,2.73,2.73,0,0,1,.5.95,2.18,2.18,0,0,1,0,.95l-1.08-.13a1.82,1.82,0,0,0,0-.57,1.45,1.45,0,0,0-.31-.62,1.05,1.05,0,0,0-.46-.37.44.44,0,0,0-.41.08.46.46,0,0,0-.21.36.9.9,0,0,0,.16.48l.25.46a2.16,2.16,0,0,1,.35,1.26,1.36,1.36,0,0,1-.59,1,1.57,1.57,0,0,1-.63.32,1.52,1.52,0,0,1-.67,0,1.82,1.82,0,0,1-.68-.29A3.29,3.29,0,0,1,227.46,410.19Z"/><path class="cls-14" d="M234.42,411.91l-3.27,2.7-.73-.88,3.27-2.7-.9-1.1.78-.65,2.54,3.08-.78.65Z"/><path class="cls-14" d="M238.38,419.68,237,418.19l-1.61,1.43-.76-.85,3.92-3.51.77.86-1.56,1.39,1.33,1.49,1.56-1.39.77.86-3.93,3.5-.76-.85Z"/><path class="cls-14" d="M238.68,423.21l.66-.62.47.49,2.51-2.35-.47-.49.67-.62,1.71,1.82-.67.63-.46-.5-2.51,2.35.46.5-.66.62Z"/><path class="cls-14" d="M246.76,426.64v0l-.82.27-2.05.58.62-2,.31-.87h0L242.3,427l-.76-.77,3.75-3.7.85.87-.85,2.65h0l2.65-.83.86.87-3.75,3.7-.76-.77Z"/><path class="cls-14" d="M338.06,475.19l-1,3.62a1.71,1.71,0,0,1-.28.61,1.46,1.46,0,0,1-.46.4,1.72,1.72,0,0,1-.61.17,2.16,2.16,0,0,1-.74-.07,2.21,2.21,0,0,1-.64-.28,1.49,1.49,0,0,1-.41-.42,1.55,1.55,0,0,1-.22-.55,2.15,2.15,0,0,1,0-.63l1.09.07c0,.47.12.74.46.84a.63.63,0,0,0,.45-.05.65.65,0,0,0,.3-.43l.71-2.68-1.55-.41.24-.89Z"/><path class="cls-14" d="M340.69,481.35a2.57,2.57,0,0,1-.89-.39,2,2,0,0,1-.59-.67,2.46,2.46,0,0,1-.26-.93,3.88,3.88,0,0,1,.11-1.19,3.78,3.78,0,0,1,.44-1.11,2.17,2.17,0,0,1,.65-.72A1.85,1.85,0,0,1,341,476a2.63,2.63,0,0,1,1,.05,2.57,2.57,0,0,1,.89.39,1.9,1.9,0,0,1,.59.67,2.46,2.46,0,0,1,.26.94,3.85,3.85,0,0,1-.11,1.18,3.78,3.78,0,0,1-.43,1.11,2.31,2.31,0,0,1-.66.72,1.85,1.85,0,0,1-.83.34A2.43,2.43,0,0,1,340.69,481.35Zm.23-1a1,1,0,0,0,.87-.15,1.43,1.43,0,0,0,.51-.87l.18-.77a1.52,1.52,0,0,0-.06-1,1,1,0,0,0-.71-.52,1,1,0,0,0-.87.15,1.46,1.46,0,0,0-.51.88l-.18.76a1.52,1.52,0,0,0,.06,1A1,1,0,0,0,340.92,480.36Z"/><path class="cls-14" d="M344.5,482.12l.18-.89.67.14.71-3.37-.67-.13.19-.9,2.45.52-.19.89-.66-.14-.71,3.37.66.13-.18.9Z"/><path class="cls-14" d="M350.78,480.85l-.3-1.13h0l-.65,3.48-1.06-.19,1-5.18,1.23.23,1,2.71.31,1.13h0l.64-3.49,1.06.2-.95,5.18-1.23-.23Z"/><path class="cls-14" d="M360.75,482.8l-2-.28-.31,2.13-1.13-.16.75-5.21,1.13.16-.29,2.07,2,.28.3-2.06,1.13.16-.75,5.21-1.13-.16Z"/><path class="cls-14" d="M363.44,485.32l.1-.9.68.07.39-3.41-.67-.08.1-.91,2.49.29-.11.91-.67-.08-.39,3.41.67.08-.11.91Z"/><path class="cls-14" d="M372,482.72h0l-.45.73-1.19,1.77-.84-1.94-.32-.86h0l-.31,3.49-1.08-.1.47-5.24,1.21.11,1.06,2.57h0l1.49-2.34,1.21.1-.46,5.24-1.08-.09Z"/><path class="cls-14" d="M170.22,411.8,174.7,409l1.88,3-.87.54-1.28-2.08-.91.57,1.1,1.77-.87.54-1.09-1.78-1,.6,1.28,2.07-.87.54Z"/><path class="cls-14" d="M176.09,416.46l.61-1v0l-3,1.93-.58-.9,4.41-2.87.68,1-1.3,2.56-.61,1v0l3-1.93.59.9-4.41,2.87-.68-1.05Z"/><path class="cls-14" d="M181,418.81l1.12,1.64a2.62,2.62,0,0,1,.4.87,1.91,1.91,0,0,1,0,.89,2.11,2.11,0,0,1-.41.84,4.18,4.18,0,0,1-1.9,1.31,2.19,2.19,0,0,1-.94.07,1.93,1.93,0,0,1-.82-.32,2.46,2.46,0,0,1-.67-.69l-1.12-1.63Zm-2.38,4a1.1,1.1,0,0,0,.69.51,1.24,1.24,0,0,0,.92-.28l.68-.46a1.28,1.28,0,0,0,.59-.76,1.16,1.16,0,0,0-.22-.83l-.48-.69-2.66,1.83Z"/><path class="cls-14" d="M167.58,315.09l-3.71.41a1.82,1.82,0,0,1-.67,0,1.28,1.28,0,0,1-.54-.29,1.57,1.57,0,0,1-.39-.51,2.11,2.11,0,0,1-.19-.71,1.93,1.93,0,0,1,0-.69,1.44,1.44,0,0,1,.24-.55,1.65,1.65,0,0,1,.43-.4,2.1,2.1,0,0,1,.57-.25l.33,1c-.44.14-.65.38-.61.73a.61.61,0,0,0,.21.4.59.59,0,0,0,.51.12l2.75-.3-.17-1.59.91-.1Z"/><path class="cls-14" d="M162.78,319.76a2.59,2.59,0,0,1,.05-1,1.82,1.82,0,0,1,.41-.79,2.48,2.48,0,0,1,.78-.58,4.41,4.41,0,0,1,2.34-.32,2.54,2.54,0,0,1,.91.35,2,2,0,0,1,.61.66,2.62,2.62,0,0,1,.3.92,2.55,2.55,0,0,1-.05,1,1.91,1.91,0,0,1-.41.8,2.46,2.46,0,0,1-.78.57,3.71,3.71,0,0,1-1.15.33,3.92,3.92,0,0,1-1.19,0,2.31,2.31,0,0,1-.91-.35,2,2,0,0,1-.61-.65A2.69,2.69,0,0,1,162.78,319.76Zm1-.14a1,1,0,0,0,.45.76,1.49,1.49,0,0,0,1,.16l.77-.11a1.5,1.5,0,0,0,.93-.42,1.12,1.12,0,0,0-.22-1.6,1.38,1.38,0,0,0-1-.16l-.78.1a1.47,1.47,0,0,0-.92.42A1,1,0,0,0,163.79,319.62Z"/><path class="cls-14" d="M163.42,323.57l.9-.14.11.67,3.39-.54-.1-.67.9-.14.39,2.47-.9.14-.11-.67-3.4.54.11.67-.9.14Z"/><path class="cls-14" d="M166.85,329l.94-.68v0l-3.49.63-.19-1.06,5.18-.94.22,1.23L167.32,330l-.95.69v0l3.48-.63.2,1.06-5.18.94-.22-1.24Z"/><path class="cls-14" d="M166,338.12a2.87,2.87,0,0,1,0-1.2,2.65,2.65,0,0,1,.43-.93l.91.57A1.7,1.7,0,0,0,167,338a.94.94,0,0,0,.31.57.59.59,0,0,0,.81-.09.75.75,0,0,0,.09-.52l0-.52a2,2,0,0,1,.23-1.31,1.46,1.46,0,0,1,1-.61,1.5,1.5,0,0,1,1.24.27,2,2,0,0,1,.45.53,2.94,2.94,0,0,1,.29.79,2.62,2.62,0,0,1,0,1.07,2.11,2.11,0,0,1-.37.87l-.92-.58a1.32,1.32,0,0,0,.25-.52,1.47,1.47,0,0,0,0-.69,1,1,0,0,0-.25-.53.44.44,0,0,0-.41-.1.46.46,0,0,0-.34.22,1.06,1.06,0,0,0-.07.51l0,.53a2.22,2.22,0,0,1-.23,1.28,1.41,1.41,0,0,1-1,.61,1.84,1.84,0,0,1-.7,0,1.58,1.58,0,0,1-.62-.28,1.87,1.87,0,0,1-.48-.55A3,3,0,0,1,166,338.12Z"/><path class="cls-14" d="M184.23,376.37l-3.43,1.49a1.77,1.77,0,0,1-.65.16,1.54,1.54,0,0,1-.61-.12,1.74,1.74,0,0,1-.51-.37,2.21,2.21,0,0,1-.57-1.29,1.34,1.34,0,0,1,.07-.6,1.49,1.49,0,0,1,.29-.5,2.11,2.11,0,0,1,.47-.42l.62.9c-.38.26-.5.55-.36.88a.57.57,0,0,0,.31.32.63.63,0,0,0,.53,0l2.54-1.11-.64-1.46.84-.37Z"/><path class="cls-14" d="M181,382.27a2.67,2.67,0,0,1-.24-.93,1.89,1.89,0,0,1,.16-.88,2.33,2.33,0,0,1,.58-.78,3.6,3.6,0,0,1,1-.65,3.9,3.9,0,0,1,1.14-.35,2.37,2.37,0,0,1,1,.07,1.8,1.8,0,0,1,.77.44,2.4,2.4,0,0,1,.56.79,2.38,2.38,0,0,1,.24.94,1.77,1.77,0,0,1-.16.88,2.3,2.3,0,0,1-.57.78,4,4,0,0,1-1,.65,3.74,3.74,0,0,1-1.14.34,2.37,2.37,0,0,1-1-.06,2,2,0,0,1-.78-.45A2.61,2.61,0,0,1,181,382.27Zm.93-.42a1,1,0,0,0,.65.59,1.44,1.44,0,0,0,1-.15l.71-.33a1.42,1.42,0,0,0,.76-.67,1,1,0,0,0,0-.88,1,1,0,0,0-.65-.59,1.51,1.51,0,0,0-1,.14l-.71.33a1.51,1.51,0,0,0-.76.68A1,1,0,0,0,182,381.85Z"/><path class="cls-14" d="M182.77,385.72l.81-.4.3.61,3.09-1.51-.3-.61.82-.41,1.1,2.25-.82.4-.29-.61L184.39,387l.3.61-.82.4Z"/><path class="cls-14" d="M187.64,389.9l.7-.93v0l-3.14,1.63-.5-1,4.67-2.42.58,1.11-1.54,2.42-.71.94v0l3.15-1.64.49,1-4.67,2.43-.57-1.11Z"/><path class="cls-14" d="M193.36,394.72l1.26,2.22a1.38,1.38,0,0,1,.19,1.07,1.32,1.32,0,0,1-.68.8,1.54,1.54,0,0,1-.48.19,1.12,1.12,0,0,1-.41,0,.9.9,0,0,1-.32-.17,1.42,1.42,0,0,1-.25-.3l0,0a1.14,1.14,0,0,1,.13.38,1.09,1.09,0,0,1,0,.44,1.24,1.24,0,0,1-.18.44,1.39,1.39,0,0,1-.44.38,1.71,1.71,0,0,1-.56.2,1.5,1.5,0,0,1-.56,0,1.43,1.43,0,0,1-.49-.21,1.37,1.37,0,0,1-.37-.42l-1.37-2.43Zm-3.17,3.11.65,1.15a.5.5,0,0,0,.29.25.43.43,0,0,0,.37-.06l.22-.12a.48.48,0,0,0,.24-.29.51.51,0,0,0-.07-.37l-.65-1.15Zm1.86-1.05.56,1a.48.48,0,0,0,.29.24.42.42,0,0,0,.37-.06l.2-.11a.48.48,0,0,0,.24-.29.46.46,0,0,0-.06-.37l-.56-1Z"/><path class="cls-14" d="M192.53,404a2.62,2.62,0,0,1-.4-1.13,2.65,2.65,0,0,1,.1-1l1,.25a1.73,1.73,0,0,0,.17,1.44,1,1,0,0,0,.47.45.56.56,0,0,0,.5-.06.63.63,0,0,0,.25-.29.78.78,0,0,0-.09-.52l-.21-.48a2,2,0,0,1-.19-1.31,1.41,1.41,0,0,1,.71-.88,1.47,1.47,0,0,1,1.26-.15,1.72,1.72,0,0,1,.6.36,2.79,2.79,0,0,1,.53.66,2.63,2.63,0,0,1,.37,1,2,2,0,0,1-.07,1l-1-.26a1.54,1.54,0,0,0,.07-.57,1.42,1.42,0,0,0-.23-.65,1,1,0,0,0-.41-.42.45.45,0,0,0-.42,0,.44.44,0,0,0-.25.33.91.91,0,0,0,.1.49l.19.49a2.19,2.19,0,0,1,.19,1.3,1.39,1.39,0,0,1-.71.88,1.65,1.65,0,0,1-.66.24,1.52,1.52,0,0,1-.67-.06,1.86,1.86,0,0,1-.63-.37A2.81,2.81,0,0,1,192.53,404Z"/><path class="cls-14" d="M220.15,431.17l-2.86,2.41a2,2,0,0,1-.58.33,1.28,1.28,0,0,1-.61.06,1.44,1.44,0,0,1-.6-.21,2.05,2.05,0,0,1-.56-.48,2.23,2.23,0,0,1-.36-.59,1.56,1.56,0,0,1-.1-.59,1.63,1.63,0,0,1,.13-.57A2,2,0,0,1,215,431l.84.68c-.29.36-.32.68-.1.94a.61.61,0,0,0,.4.23.65.65,0,0,0,.49-.18l2.12-1.78-1-1.23.71-.59Z"/><path class="cls-14" d="M218.75,437.72a2.62,2.62,0,0,1-.5-.82,1.94,1.94,0,0,1-.09-.89,2.44,2.44,0,0,1,.33-.92,3.7,3.7,0,0,1,.77-.9,3.75,3.75,0,0,1,1-.66,2.4,2.4,0,0,1,1-.21,2,2,0,0,1,.87.2,2.65,2.65,0,0,1,.76.6,2.46,2.46,0,0,1,.49.83,1.81,1.81,0,0,1,.1.89,2.39,2.39,0,0,1-.33.91,4.1,4.1,0,0,1-1.77,1.56,2.26,2.26,0,0,1-1,.22,1.92,1.92,0,0,1-.87-.21A2.65,2.65,0,0,1,218.75,437.72Zm.77-.67a1,1,0,0,0,.79.38,1.42,1.42,0,0,0,.92-.42l.59-.52a1.48,1.48,0,0,0,.53-.86,1,1,0,0,0-.28-.83,1,1,0,0,0-.79-.39,1.49,1.49,0,0,0-.92.43l-.59.52a1.45,1.45,0,0,0-.53.86A1,1,0,0,0,219.52,437.05Z"/><path class="cls-14" d="M221.41,440.56l.67-.62.46.5,2.53-2.33-.46-.5.67-.62,1.7,1.84-.67.62-.46-.5-2.53,2.33.46.5-.67.62Z"/><path class="cls-14" d="M227.27,443.17l.41-1.09,0,0-2.55,2.46-.75-.78,3.79-3.65.87.9-.79,2.76-.41,1.1v0l2.56-2.46.74.77-3.79,3.66-.86-.9Z"/><path class="cls-14" d="M236.35,448.32l-2.6,2.69a1.85,1.85,0,0,1-.55.39,1.37,1.37,0,0,1-.59.13,1.76,1.76,0,0,1-.62-.15,2.3,2.3,0,0,1-.61-.42,2.56,2.56,0,0,1-.42-.56,1.75,1.75,0,0,1-.16-.57,1.63,1.63,0,0,1,.08-.58,2,2,0,0,1,.28-.57l.92.6c-.26.38-.26.7,0,.94a.57.57,0,0,0,.89-.05l1.93-2-1.15-1.12.64-.66Z"/><path class="cls-14" d="M273.09,475.2l-1.95,3.19a2,2,0,0,1-.44.5,1.35,1.35,0,0,1-.56.25,1.49,1.49,0,0,1-.63,0,2.09,2.09,0,0,1-.69-.28,1.83,1.83,0,0,1-.53-.45,1.47,1.47,0,0,1-.28-.52,1.61,1.61,0,0,1-.05-.58,1.76,1.76,0,0,1,.15-.62l1,.38c-.16.44-.1.75.2.93a.66.66,0,0,0,.45.09.64.64,0,0,0,.41-.33l1.44-2.37-1.36-.83.48-.78Z"/><path class="cls-14" d="M273.85,481.86a2.71,2.71,0,0,1-.74-.63,1.93,1.93,0,0,1-.37-.81,2.45,2.45,0,0,1,0-1,4.35,4.35,0,0,1,1.18-2.05,2.7,2.7,0,0,1,.83-.5,2,2,0,0,1,.9-.08,2.39,2.39,0,0,1,.91.33,2.48,2.48,0,0,1,.73.62,2.08,2.08,0,0,1,.38.81,2.34,2.34,0,0,1,0,1,3.65,3.65,0,0,1-.45,1.1,3.6,3.6,0,0,1-.73.94,2.42,2.42,0,0,1-.83.5,1.92,1.92,0,0,1-.89.08A2.48,2.48,0,0,1,273.85,481.86Zm.51-.89a1,1,0,0,0,.87.12,1.45,1.45,0,0,0,.74-.7l.39-.68a1.47,1.47,0,0,0,.24-1,1.15,1.15,0,0,0-1.41-.82,1.43,1.43,0,0,0-.73.7l-.4.68a1.4,1.4,0,0,0-.23,1A1,1,0,0,0,274.36,481Z"/><path class="cls-14" d="M277.25,483.69l.44-.8.59.32,1.66-3-.6-.33.44-.8,2.2,1.21-.44.8-.6-.33-1.65,3,.59.33-.44.8Z"/><path class="cls-14" d="M283.65,484.31l0-1.17h0L282,486.28l-1-.5,2.43-4.67,1.11.58.13,2.87,0,1.17h0l1.64-3.14,1,.5-2.44,4.66-1.1-.58Z"/><path class="cls-14" d="M290.23,490.49a2.08,2.08,0,0,1-.66-.48,1.66,1.66,0,0,1-.36-.63,1.87,1.87,0,0,1-.06-.75,3.05,3.05,0,0,1,.26-.83,2.94,2.94,0,0,1,.48-.71,1.79,1.79,0,0,1,.6-.44,1.54,1.54,0,0,1,.71-.12,2.14,2.14,0,0,1,.78.2,2,2,0,0,1,.68.52,1.46,1.46,0,0,1,.33.64,1.79,1.79,0,0,1,0,.73,2.81,2.81,0,0,1-.23.73l-.15.3-2.29-1.09,0,.05a.85.85,0,0,0-.08.65.89.89,0,0,0,.5.49,1,1,0,0,0,.57.12,2.39,2.39,0,0,0,.51-.13l.2.87a1.71,1.71,0,0,1-.83.14A2.77,2.77,0,0,1,290.23,490.49Zm1.41-3a.67.67,0,0,0-.57,0,.86.86,0,0,0-.43.45l0,0,1.26.6,0-.06a1,1,0,0,0,.11-.6A.57.57,0,0,0,291.64,487.48Z"/><path class="cls-14" d="M340.19,507l1-5.16,3.52.68-.2,1-2.39-.47-.2,1.05,2.05.4-.2,1-2-.4-.22,1.12,2.4.47-.2,1Z"/><path class="cls-14" d="M347.57,505.79l-.32-1.12h0l-.58,3.5-1.07-.18.88-5.19,1.23.21,1,2.69.32,1.12h0l.59-3.5,1.06.18-.87,5.19-1.23-.21Z"/><path class="cls-14" d="M352.58,503.79l2,.28a2.69,2.69,0,0,1,.92.3,1.76,1.76,0,0,1,.65.59,2.17,2.17,0,0,1,.35.88,3.44,3.44,0,0,1,0,1.16,3.59,3.59,0,0,1-.33,1.12,2.08,2.08,0,0,1-.58.74,1.89,1.89,0,0,1-.79.39,2.56,2.56,0,0,1-1,0l-2-.27Zm1.37,4.48a1.06,1.06,0,0,0,.84-.17,1.24,1.24,0,0,0,.42-.87l.11-.8a1.21,1.21,0,0,0-.16-.95,1.11,1.11,0,0,0-.76-.4l-.83-.12-.45,3.2Z"/><path class="cls-15" d="M88.65,279.7H91v.62H87.92v-5.4h.73Z"/><path class="cls-15" d="M96,274.92v.59h-2.6v1.8h2.1v.57h-2.1v1.84H96v.6H92.65v-5.4Z"/><path class="cls-15" d="M97.43,274.92H98a.21.21,0,0,1,.16.05.27.27,0,0,1,.09.12l1.53,3.81a2.31,2.31,0,0,1,.1.28c0,.1,0,.2.08.31,0-.11,0-.21.07-.31a2.31,2.31,0,0,1,.1-.28l1.52-3.81a.24.24,0,0,1,.09-.12.21.21,0,0,1,.16-.05h.58l-2.2,5.4h-.66Z"/><path class="cls-15" d="M107.42,274.92v.59h-2.6v1.8h2.1v.57h-2.1v1.84h2.6v.6h-3.33v-5.4Z"/><path class="cls-15" d="M110,279.7h2.33v.62h-3.07v-5.4H110Z"/><path class="cls-15" d="M115.94,279.81h1.16v-3.69c0-.11,0-.22,0-.33l-1,.82-.07.05H116a.2.2,0,0,1-.11,0,.15.15,0,0,1-.06-.05l-.21-.29,1.6-1.39h.55v4.9h1.06v.51h-2.89Z"/><path class="cls-16" d="M131.41,132.13l2,1.2-.32.52-2.63-1.57,2.77-4.64.63.38Z"/><path class="cls-16" d="M140.16,131.78l-.31.51L137.62,131l-.92,1.54,1.81,1.08-.3.49-1.8-1.08-.95,1.58,2.23,1.33-.31.51-2.85-1.7,2.77-4.64Z"/><path class="cls-16" d="M141.4,132.52l.51.3a.33.33,0,0,1,.11.13.38.38,0,0,1,0,.15l-.65,4.06a1.57,1.57,0,0,1-.06.28c0,.1,0,.21-.08.32a2.44,2.44,0,0,1,.22-.23,2,2,0,0,1,.22-.2l3.26-2.49a.34.34,0,0,1,.14-.05.22.22,0,0,1,.16,0l.51.3-4.66,3.51-.57-.34Z"/><path class="cls-16" d="M150,137.65l-.3.51-2.23-1.33-.92,1.54,1.81,1.08-.3.49-1.8-1.08-.95,1.58,2.23,1.33-.31.52-2.85-1.71,2.77-4.64Z"/><path class="cls-16" d="M149.7,143.06l2,1.2-.31.53-2.64-1.58,2.78-4.63.62.37Z"/><path class="cls-16" d="M158.33,142.58a1.86,1.86,0,0,1,.5.41,1.5,1.5,0,0,1,.29.52,1.26,1.26,0,0,1,0,.58,1.37,1.37,0,0,1-.22.61,1.53,1.53,0,0,1-.36.43,2,2,0,0,1-.46.3,4.33,4.33,0,0,1-.54.21l-.6.16-2,.52.3.1.27.14,1.55.93a.19.19,0,0,1,.11.14.2.2,0,0,1,0,.17l-.21.35-3.1-1.85.12-.19.1-.12a.52.52,0,0,1,.15-.07l2.38-.6.55-.16a4.17,4.17,0,0,0,.47-.19,2.12,2.12,0,0,0,.38-.26,1.23,1.23,0,0,0,.28-.35.79.79,0,0,0,.15-.39.86.86,0,0,0,0-.36,1,1,0,0,0-.18-.31,1.16,1.16,0,0,0-.29-.25,1.34,1.34,0,0,0-.36-.14,1,1,0,0,0-.35,0,.92.92,0,0,0-.32.1.83.83,0,0,0-.28.21.38.38,0,0,1-.16.09.24.24,0,0,1-.16,0l0,0,0,0L156,143a2,2,0,0,1,.51-.46,1.52,1.52,0,0,1,.57-.21,1.8,1.8,0,0,1,.61,0A2.07,2.07,0,0,1,158.33,142.58Z"/><path class="cls-2" d="M582.59,69.67l-1.53,1.77L580.6,71l2-2.32,4.08,3.54-.48.55Z"/><path class="cls-2" d="M581.42,78.34,581,78l1.69-2-1.35-1.17-1.38,1.58L579.5,76l1.37-1.59-1.39-1.2-1.7,2-.45-.39,2.18-2.52,4.08,3.54Z"/><path class="cls-2" d="M580.46,79.44l-.38.44a.24.24,0,0,1-.14.09.26.26,0,0,1-.15,0l-3.88-1.34-.28-.11-.29-.14a2.48,2.48,0,0,1,.19.26,1.65,1.65,0,0,1,.15.25l1.89,3.64a.33.33,0,0,1,0,.15.19.19,0,0,1-.07.15l-.38.45-2.64-5.2.43-.5Z"/><path class="cls-2" d="M573.93,87l-.45-.39,1.69-2-1.35-1.17-1.38,1.58-.43-.37,1.37-1.59L572,81.88l-1.7,2-.45-.39L572,80.94l4.08,3.54Z"/><path class="cls-2" d="M568.65,85.77l-1.53,1.77-.47-.4,2-2.32,4.08,3.54-.48.55Z"/><path class="cls-2" d="M567.57,94.42a1.88,1.88,0,0,1-.49.41,1.36,1.36,0,0,1-.54.2,1.41,1.41,0,0,1-.54,0,1.31,1.31,0,0,1-.5-.28,1.62,1.62,0,0,1-.31-.35,1.17,1.17,0,0,1-.14-.38.86.86,0,0,1,0-.39,1.59,1.59,0,0,1,.12-.41,1.43,1.43,0,0,1-.87.3,1.26,1.26,0,0,1-.8-.34,1.65,1.65,0,0,1-.41-.55A1.47,1.47,0,0,1,563,92a1.59,1.59,0,0,1,.13-.64,2.38,2.38,0,0,1,.37-.6,2.26,2.26,0,0,1,.57-.49,1.41,1.41,0,0,1,1.12-.16,2.8,2.8,0,0,1,.58.19l-.1.29a.36.36,0,0,1-.08.15l-.11.08h-.2L565,90.7a.92.92,0,0,0-.33,0,1.08,1.08,0,0,0-.37.1,1.24,1.24,0,0,0-.37.31,1.12,1.12,0,0,0-.25.43,1.08,1.08,0,0,0,.05.8,1,1,0,0,0,.23.29,1.16,1.16,0,0,0,.34.22.67.67,0,0,0,.37,0,1.14,1.14,0,0,0,.44-.18,3,3,0,0,0,.51-.47l.37.32a1.92,1.92,0,0,0-.33.49,1,1,0,0,0-.11.43.73.73,0,0,0,.07.36,1.18,1.18,0,0,0,.25.31,1.09,1.09,0,0,0,.35.21.85.85,0,0,0,.35,0,.7.7,0,0,0,.33-.12,1.11,1.11,0,0,0,.29-.25,1,1,0,0,0,.2-.32,1.05,1.05,0,0,0,.08-.34,1.27,1.27,0,0,0-.05-.34,1.77,1.77,0,0,0-.15-.31.29.29,0,0,1-.07-.18.27.27,0,0,1,.07-.14l0,0,0,0,.28-.22a2.13,2.13,0,0,1,.36.58,1.81,1.81,0,0,1,.11.6,1.85,1.85,0,0,1-.13.6A2,2,0,0,1,567.57,94.42Z"/><path class="cls-17" d="M390,552.4v2.34h-.61v-3.07l5.4,0v.73Z"/><path class="cls-17" d="M394.79,559.71h-.59v-2.59h-1.8v2.1h-.57v-2.1H390l0,2.6h-.6V556.4l5.4,0Z"/><path class="cls-17" d="M394.8,561.17v.58a.28.28,0,0,1-.05.16.27.27,0,0,1-.12.09l-3.81,1.54a1.83,1.83,0,0,1-.28.1l-.31.08.31.08a1.15,1.15,0,0,1,.28.09l3.82,1.5.12.09a.22.22,0,0,1,.05.16v.59l-5.41-2.18v-.66Z"/><path class="cls-17" d="M394.84,571.15h-.6v-2.59h-1.79v2.1h-.57v-2.1H390v2.59h-.6v-3.33l5.4,0Z"/><path class="cls-17" d="M390.06,573.71V576h-.62V573l5.4,0v.73Z"/><path class="cls-17" d="M391.42,582v.81H391a.18.18,0,0,1-.1,0,.12.12,0,0,1,0-.11V582h-1.42v-.59h1.42V579a.22.22,0,0,1,.16-.2l.34-.07,3.5,2.62V582Zm2.23-.6h.21l.24,0-2.68-1.95v1.94Z"/><line class="cls-18" x1="400.71" y1="268.54" x2="477.67" y2="180.71"/><line class="cls-18" x1="408.15" y1="288.59" x2="547.15" y2="306.15"/><line class="cls-18" x1="400.57" y1="303.16" x2="493.49" y2="408.56"/><line class="cls-19" x1="87.26" y1="285.2" x2="361.36" y2="285.47"/><line class="cls-20" x1="384.8" y1="309.24" x2="384.8" y2="583.22"/><path class="cls-21" d="M659,459.8a4.13,4.13,0,0,1,1.56.28,3.49,3.49,0,0,1,1.24.82,3.78,3.78,0,0,1,.81,1.32,5.15,5.15,0,0,1,.29,1.78,1.15,1.15,0,0,1-.08.52.35.35,0,0,1-.32.13h-6.25a5,5,0,0,0,.24,1.55,3.15,3.15,0,0,0,.61,1.1,2.34,2.34,0,0,0,.93.66,3.09,3.09,0,0,0,1.2.22,3.43,3.43,0,0,0,1.08-.15,4.73,4.73,0,0,0,.77-.31,4.12,4.12,0,0,0,.54-.31.78.78,0,0,1,.38-.14.36.36,0,0,1,.32.16l.46.6a3,3,0,0,1-.73.64,3.93,3.93,0,0,1-.92.45,5.68,5.68,0,0,1-1,.27,6.06,6.06,0,0,1-1,.09,4.8,4.8,0,0,1-1.8-.33,3.87,3.87,0,0,1-1.42-1,4.28,4.28,0,0,1-.93-1.57,6.18,6.18,0,0,1-.34-2.15,5.27,5.27,0,0,1,.31-1.84,4.43,4.43,0,0,1,.86-1.48,3.85,3.85,0,0,1,1.39-1A4.46,4.46,0,0,1,659,459.8Zm0,1.21a2.52,2.52,0,0,0-1.88.7,3.23,3.23,0,0,0-.86,1.91h5.12a3.5,3.5,0,0,0-.16-1.05,2.42,2.42,0,0,0-.47-.83,2,2,0,0,0-.74-.53A2.49,2.49,0,0,0,659.07,461Z"/><path class="cls-21" d="M672,469.48a.67.67,0,0,1-.26.31.62.62,0,0,1-.34.11h-.46l3.66-9.12a.64.64,0,0,1,.23-.3.55.55,0,0,1,.34-.1h.46Z"/><path class="cls-21" d="M688.61,460.62v1h-4.19v2.9h3.39v.93h-3.39v3h4.19v1h-5.38v-8.73Z"/><path class="cls-21" d="M689.87,471.44v-8.26h.65a.27.27,0,0,1,.29.22l.09.73a3.29,3.29,0,0,1,.9-.77,2.37,2.37,0,0,1,1.18-.29,2.32,2.32,0,0,1,1,.2,2,2,0,0,1,.73.61,2.68,2.68,0,0,1,.47,1,5,5,0,0,1,.17,1.35,4.28,4.28,0,0,1-.18,1.27,3.29,3.29,0,0,1-.53,1,2.34,2.34,0,0,1-.84.68,2.51,2.51,0,0,1-1.11.24,2.26,2.26,0,0,1-1-.19,2.17,2.17,0,0,1-.72-.53v2.73Zm2.75-7.49a1.74,1.74,0,0,0-.93.24,2.65,2.65,0,0,0-.74.69v3a1.74,1.74,0,0,0,.66.57,1.86,1.86,0,0,0,.79.16,1.56,1.56,0,0,0,1.33-.61,3,3,0,0,0,.46-1.76,4.39,4.39,0,0,0-.11-1,1.86,1.86,0,0,0-.31-.71,1.14,1.14,0,0,0-.49-.41A1.73,1.73,0,0,0,692.62,464Z"/><path class="cls-21" d="M699.08,463.08a2.61,2.61,0,0,1,1,.19,2.24,2.24,0,0,1,.81.53,2.4,2.4,0,0,1,.53.87,3.26,3.26,0,0,1,.2,1.17.66.66,0,0,1-.06.34.22.22,0,0,1-.2.09h-4.11a3.29,3.29,0,0,0,.16,1,2.08,2.08,0,0,0,.4.72,1.57,1.57,0,0,0,.61.44,2.18,2.18,0,0,0,.79.14,2.38,2.38,0,0,0,.7-.09,3.15,3.15,0,0,0,.51-.21l.36-.2a.42.42,0,0,1,.25-.1.24.24,0,0,1,.2.11l.31.39a2.18,2.18,0,0,1-.48.43,3.32,3.32,0,0,1-.6.29,4,4,0,0,1-.66.18,5.31,5.31,0,0,1-.68.05,3.22,3.22,0,0,1-1.18-.21,2.62,2.62,0,0,1-.93-.64,2.76,2.76,0,0,1-.61-1,4.09,4.09,0,0,1-.22-1.41,3.45,3.45,0,0,1,.2-1.21,2.86,2.86,0,0,1,.57-1,2.55,2.55,0,0,1,.9-.64A2.94,2.94,0,0,1,699.08,463.08Zm0,.8a1.66,1.66,0,0,0-1.23.45,2.14,2.14,0,0,0-.56,1.26h3.35a2.17,2.17,0,0,0-.1-.69,1.44,1.44,0,0,0-.31-.54,1.39,1.39,0,0,0-.49-.36A1.69,1.69,0,0,0,699.1,463.88Z"/><path class="cls-21" d="M705.49,463.08a3.16,3.16,0,0,1,1.22.23,2.62,2.62,0,0,1,.93.64,2.89,2.89,0,0,1,.58,1,4.22,4.22,0,0,1,0,2.63,2.85,2.85,0,0,1-.58,1,2.62,2.62,0,0,1-.93.64,3.49,3.49,0,0,1-2.44,0,2.62,2.62,0,0,1-.93-.64,2.72,2.72,0,0,1-.59-1,4.22,4.22,0,0,1,0-2.63,2.76,2.76,0,0,1,.59-1,2.62,2.62,0,0,1,.93-.64A3.16,3.16,0,0,1,705.49,463.08Zm0,5.51a1.57,1.57,0,0,0,1.36-.62,2.8,2.8,0,0,0,.45-1.7,2.86,2.86,0,0,0-.45-1.72,1.57,1.57,0,0,0-1.36-.62,1.93,1.93,0,0,0-.8.16,1.51,1.51,0,0,0-.57.46,1.83,1.83,0,0,0-.34.73,4.1,4.1,0,0,0,0,2,1.72,1.72,0,0,0,.34.72,1.51,1.51,0,0,0,.57.46A1.93,1.93,0,0,0,705.49,468.59Z"/><path class="cls-21" d="M662.09,553.71h-1.18v-4H656.2v4H655V545h1.18v3.9h4.71V545h1.18Z"/><path class="cls-21" d="M671.2,553.84a.65.65,0,0,1-.6.42h-.46l3.66-9.12a.71.71,0,0,1,.23-.3.63.63,0,0,1,.35-.1h.45Z"/><path class="cls-21" d="M687.59,553.71h-1.18v-4h-4.7v4h-1.19V545h1.19v3.9h4.7V545h1.18Z"/><path class="cls-21" d="M691.29,555.53a.78.78,0,0,1-.14.2.37.37,0,0,1-.25.07h-.81l1.13-2.45-2.55-5.81h.94a.34.34,0,0,1,.22.07.61.61,0,0,1,.12.16l1.65,3.88c0,.09.07.18.09.27a2.68,2.68,0,0,1,.07.27l.09-.27.09-.27,1.61-3.88a.28.28,0,0,1,.12-.16.28.28,0,0,1,.19-.07h.87Z"/><path class="cls-21" d="M695.66,555.8v-8.26h.64a.27.27,0,0,1,.29.23l.1.73a3.33,3.33,0,0,1,.9-.78,2.36,2.36,0,0,1,1.17-.29,2.12,2.12,0,0,1,1,.21,1.86,1.86,0,0,1,.74.6,2.94,2.94,0,0,1,.47,1,5.08,5.08,0,0,1,.16,1.36,4.38,4.38,0,0,1-.18,1.27,2.93,2.93,0,0,1-.52,1,2.44,2.44,0,0,1-2,.93,2.12,2.12,0,0,1-1.69-.73v2.73Zm2.74-7.49a1.79,1.79,0,0,0-.93.24,3,3,0,0,0-.73.69v3a1.8,1.8,0,0,0,.66.56,1.83,1.83,0,0,0,.79.17,1.56,1.56,0,0,0,1.32-.62,2.85,2.85,0,0,0,.46-1.75,4.53,4.53,0,0,0-.1-1,2.11,2.11,0,0,0-.31-.71,1.18,1.18,0,0,0-.49-.4A1.6,1.6,0,0,0,698.4,548.31Z"/><path class="cls-21" d="M706.8,553.71h-.48a.63.63,0,0,1-.26-.05.31.31,0,0,1-.13-.2l-.12-.58c-.16.15-.32.28-.47.4a3.5,3.5,0,0,1-.49.29,2.45,2.45,0,0,1-.54.18,3.27,3.27,0,0,1-.65.06,2.41,2.41,0,0,1-.67-.1,1.57,1.57,0,0,1-.54-.3,1.41,1.41,0,0,1-.37-.52,1.74,1.74,0,0,1-.14-.72,1.39,1.39,0,0,1,.2-.71,1.73,1.73,0,0,1,.65-.6,4,4,0,0,1,1.17-.43,7.58,7.58,0,0,1,1.77-.17v-.49a1.71,1.71,0,0,0-.3-1.09,1.11,1.11,0,0,0-.91-.37,1.86,1.86,0,0,0-.67.1,2.29,2.29,0,0,0-.47.23c-.13.08-.25.15-.34.22a.48.48,0,0,1-.28.1.34.34,0,0,1-.2-.06.44.44,0,0,1-.13-.14l-.19-.35a3.46,3.46,0,0,1,1.1-.73,3.26,3.26,0,0,1,1.31-.25,2.4,2.4,0,0,1,.92.17,2.09,2.09,0,0,1,.68.48,2,2,0,0,1,.41.74,3.09,3.09,0,0,1,.14.94Zm-2.81-.66a2.12,2.12,0,0,0,.52-.06,2.18,2.18,0,0,0,.45-.16,3.42,3.42,0,0,0,.4-.26,4,4,0,0,0,.37-.35V551a7.63,7.63,0,0,0-1.27.09,3.47,3.47,0,0,0-.85.25,1.16,1.16,0,0,0-.48.36.78.78,0,0,0-.15.47,1.08,1.08,0,0,0,.08.42.78.78,0,0,0,.21.29.9.9,0,0,0,.32.17A1.62,1.62,0,0,0,704,553.05Z"/><path class="cls-21" d="M710.12,553.81a1.5,1.5,0,0,1-1.13-.41,1.62,1.62,0,0,1-.39-1.17v-3.78h-.74a.25.25,0,0,1-.17-.06.24.24,0,0,1-.06-.18v-.43l1-.13.25-1.9a.18.18,0,0,1,.08-.15.24.24,0,0,1,.17-.06h.54v2.12h1.77v.79h-1.77v3.7a.82.82,0,0,0,.19.58.66.66,0,0,0,.49.19.94.94,0,0,0,.3,0,1,1,0,0,0,.21-.1l.16-.1a.19.19,0,0,1,.11,0,.17.17,0,0,1,.15.1l.32.52a2.09,2.09,0,0,1-.68.41A2.24,2.24,0,0,1,710.12,553.81Z"/><path class="cls-21" d="M714,545.61a.72.72,0,0,1-.06.29.81.81,0,0,1-.17.24.62.62,0,0,1-.25.17.72.72,0,0,1-.29.06.73.73,0,0,1-.3-.06.66.66,0,0,1-.24-.17.81.81,0,0,1-.17-.24.72.72,0,0,1-.06-.29.81.81,0,0,1,.06-.31,1,1,0,0,1,.17-.25.78.78,0,0,1,.24-.16.73.73,0,0,1,.3-.06.82.82,0,0,1,.54.22,1,1,0,0,1,.17.25A.81.81,0,0,1,714,545.61Zm-.24,1.93v6.17H712.7v-6.17Z"/><path class="cls-21" d="M719.91,553.71h-.49a.58.58,0,0,1-.25-.05.25.25,0,0,1-.13-.2l-.12-.58a5.65,5.65,0,0,1-.48.4,2.92,2.92,0,0,1-.48.29,2.53,2.53,0,0,1-.55.18,3.16,3.16,0,0,1-.64.06,2.35,2.35,0,0,1-.67-.1,1.72,1.72,0,0,1-.55-.3,1.53,1.53,0,0,1-.37-.52,1.75,1.75,0,0,1-.13-.72,1.3,1.3,0,0,1,.2-.71,1.66,1.66,0,0,1,.65-.6,3.83,3.83,0,0,1,1.17-.43,7.47,7.47,0,0,1,1.77-.17v-.49a1.65,1.65,0,0,0-.31-1.09,1.1,1.1,0,0,0-.91-.37,1.8,1.8,0,0,0-.66.1,2.06,2.06,0,0,0-.47.23l-.35.22a.44.44,0,0,1-.28.1.31.31,0,0,1-.19-.06.35.35,0,0,1-.13-.14l-.2-.35a3.39,3.39,0,0,1,1.11-.73,3.26,3.26,0,0,1,1.31-.25,2.34,2.34,0,0,1,.91.17,1.88,1.88,0,0,1,1.09,1.22,2.81,2.81,0,0,1,.15.94Zm-2.82-.66a2.2,2.2,0,0,0,.53-.06,2.32,2.32,0,0,0,.44-.16,2.75,2.75,0,0,0,.4-.26,4.14,4.14,0,0,0,.38-.35V551a7.63,7.63,0,0,0-1.27.09,3.56,3.56,0,0,0-.86.25,1.2,1.2,0,0,0-.47.36.78.78,0,0,0-.15.47.93.93,0,0,0,.08.42.78.78,0,0,0,.21.29.82.82,0,0,0,.32.17A1.6,1.6,0,0,0,717.09,553.05Z"/><path class="cls-21" d="M764.25,463.68h.44a1,1,0,0,0,.37-.06.68.68,0,0,0,.26-.2l2.9-3.28a.82.82,0,0,1,.26-.22.73.73,0,0,1,.32-.06h1l-3.33,3.75a1.36,1.36,0,0,1-.24.24.91.91,0,0,1-.24.16.87.87,0,0,1,.3.16l.27.28,3.47,4.13h-1a.55.55,0,0,1-.19,0,.34.34,0,0,1-.14-.05.23.23,0,0,1-.1-.07l-.1-.11-3-3.46-.12-.13-.13-.09-.18,0h-.78v4h-1.18v-8.72h1.18Z"/><path class="cls-21" d="M772.48,470.4a.6.6,0,0,1-.14.2.36.36,0,0,1-.25.07h-.8l1.12-2.45-2.54-5.81h.94a.33.33,0,0,1,.21.07.36.36,0,0,1,.12.16l1.65,3.88a1.43,1.43,0,0,1,.09.27c0,.09,0,.18.08.28a2.29,2.29,0,0,1,.08-.28c0-.09.06-.18.1-.27l1.6-3.88a.28.28,0,0,1,.12-.16.31.31,0,0,1,.2-.07h.86Z"/><path class="cls-21" d="M784.05,468.71a.68.68,0,0,1-.25.32.67.67,0,0,1-.35.1H783l3.66-9.12a.59.59,0,0,1,.22-.29.58.58,0,0,1,.35-.11h.45Z"/><path class="cls-21" d="M794.67,463.68h.44a.92.92,0,0,0,.37-.06.68.68,0,0,0,.26-.2l2.91-3.28a.71.71,0,0,1,.25-.22.76.76,0,0,1,.32-.06h1l-3.33,3.75a1.36,1.36,0,0,1-.24.24.78.78,0,0,1-.24.16.72.72,0,0,1,.3.16,2.42,2.42,0,0,1,.27.28l3.47,4.13h-1a.59.59,0,0,1-.2,0,.25.25,0,0,1-.13-.05.26.26,0,0,1-.11-.07l-.1-.11-3-3.46-.13-.13-.13-.09-.18,0h-.78v4h-1.18v-8.72h1.18Z"/><path class="cls-21" d="M802.53,470.4a.78.78,0,0,1-.14.2.37.37,0,0,1-.25.07h-.81l1.13-2.45-2.55-5.81h.94a.36.36,0,0,1,.22.07.61.61,0,0,1,.12.16l1.65,3.88.09.27a2.29,2.29,0,0,1,.07.28l.09-.28c0-.09.06-.18.09-.27l1.61-3.88a.28.28,0,0,1,.12-.16.28.28,0,0,1,.19-.07H806Z"/><path class="cls-21" d="M806.9,468.58v-6.17h.62a.36.36,0,0,1,.24.07.35.35,0,0,1,.09.23l.07,1a2.9,2.9,0,0,1,.79-1,1.67,1.67,0,0,1,1.09-.37,1.65,1.65,0,0,1,.46.06,1.68,1.68,0,0,1,.39.16l-.14.81a.19.19,0,0,1-.19.16.84.84,0,0,1-.26-.06,1.66,1.66,0,0,0-.5-.06,1.38,1.38,0,0,0-.94.33,2.44,2.44,0,0,0-.64.95v3.93Z"/><path class="cls-21" d="M813.05,460.48a.72.72,0,0,1-.06.29,1.1,1.1,0,0,1-.17.25.82.82,0,0,1-.25.16.73.73,0,0,1-.3.06.82.82,0,0,1-.54-.22.82.82,0,0,1-.16-.25.59.59,0,0,1-.07-.29.6.6,0,0,1,.07-.3.72.72,0,0,1,.16-.25.62.62,0,0,1,.25-.17.72.72,0,0,1,.29-.06.73.73,0,0,1,.3.06.7.7,0,0,1,.25.17.92.92,0,0,1,.17.25A.73.73,0,0,1,813.05,460.48Zm-.24,1.93v6.17h-1.09v-6.17Z"/><path class="cls-21" d="M815.65,459.61v9h-1.08v-9Z"/><path class="cls-21" d="M766.23,522.32a4.41,4.41,0,0,1-.18,1.31,2.65,2.65,0,0,1-.53,1,2.32,2.32,0,0,1-.86.61,3.05,3.05,0,0,1-1.17.21,4.57,4.57,0,0,1-1.24-.17c0-.12,0-.23,0-.35l0-.34a.3.3,0,0,1,.08-.17.26.26,0,0,1,.19-.07,1,1,0,0,1,.29.06,1.63,1.63,0,0,0,.49.06,1.91,1.91,0,0,0,.71-.13,1.24,1.24,0,0,0,.53-.37,1.58,1.58,0,0,0,.33-.66,3.28,3.28,0,0,0,.12-.95v-5.73h1.17Z"/><path class="cls-21" d="M775.33,525.46a.68.68,0,0,1-.25.32.67.67,0,0,1-.35.1h-.45l3.66-9.11a.62.62,0,0,1,.22-.3.58.58,0,0,1,.35-.11H779Z"/><path class="cls-21" d="M787.93,522.32a4.41,4.41,0,0,1-.18,1.31,2.65,2.65,0,0,1-.53,1,2.32,2.32,0,0,1-.86.61,3.05,3.05,0,0,1-1.17.21,4.45,4.45,0,0,1-1.23-.17c0-.12,0-.23,0-.35l0-.34a.3.3,0,0,1,.08-.17.27.27,0,0,1,.19-.07.93.93,0,0,1,.29.06,1.68,1.68,0,0,0,.49.06,2,2,0,0,0,.72-.13,1.31,1.31,0,0,0,.53-.37,1.86,1.86,0,0,0,.33-.66,3.7,3.7,0,0,0,.11-.95v-5.73h1.17Z"/><path class="cls-21" d="M792.32,519.07a3.16,3.16,0,0,1,1.22.22,2.76,2.76,0,0,1,.93.64,3,3,0,0,1,.58,1,3.93,3.93,0,0,1,.2,1.32,3.87,3.87,0,0,1-.2,1.31,3,3,0,0,1-.58,1,2.62,2.62,0,0,1-.93.64,3.49,3.49,0,0,1-2.44,0,2.62,2.62,0,0,1-.93-.64,2.85,2.85,0,0,1-.59-1,3.87,3.87,0,0,1-.21-1.31,3.93,3.93,0,0,1,.21-1.32,2.85,2.85,0,0,1,.59-1,2.76,2.76,0,0,1,.93-.64A3.16,3.16,0,0,1,792.32,519.07Zm0,5.5a1.57,1.57,0,0,0,1.36-.61,3.47,3.47,0,0,0,0-3.42,1.55,1.55,0,0,0-1.36-.62,1.78,1.78,0,0,0-.8.16,1.42,1.42,0,0,0-.57.46,1.77,1.77,0,0,0-.34.73,3.7,3.7,0,0,0-.12,1,3.6,3.6,0,0,0,.12,1,1.83,1.83,0,0,0,.34.73,1.4,1.4,0,0,0,.57.45A1.78,1.78,0,0,0,792.32,524.57Z"/><path class="cls-21" d="M796.51,525.33v-9h1.08V520a3.31,3.31,0,0,1,.88-.67,2.33,2.33,0,0,1,1.11-.25,2.11,2.11,0,0,1,.89.17,1.69,1.69,0,0,1,.64.47,2,2,0,0,1,.4.74,3.59,3.59,0,0,1,.13,1v3.92h-1.08v-3.92a1.69,1.69,0,0,0-.32-1.09,1.2,1.2,0,0,0-1-.39,1.88,1.88,0,0,0-.9.23,3.23,3.23,0,0,0-.77.63v4.54Z"/><path class="cls-21" d="M807.65,525.33h-.49a.6.6,0,0,1-.25,0,.29.29,0,0,1-.13-.21l-.12-.57q-.24.21-.48.39a2.92,2.92,0,0,1-.48.29,2.53,2.53,0,0,1-.55.18,3.16,3.16,0,0,1-.64.06,2,2,0,0,1-.67-.1,1.72,1.72,0,0,1-.55-.3,1.59,1.59,0,0,1-.37-.51,1.83,1.83,0,0,1-.13-.73,1.32,1.32,0,0,1,.2-.71,1.82,1.82,0,0,1,.65-.6,3.83,3.83,0,0,1,1.17-.43,8,8,0,0,1,1.77-.17v-.48a1.68,1.68,0,0,0-.31-1.1,1.13,1.13,0,0,0-.91-.37,2.08,2.08,0,0,0-.66.1,2.06,2.06,0,0,0-.47.23l-.35.22a.44.44,0,0,1-.28.1.3.3,0,0,1-.19-.05.47.47,0,0,1-.13-.15l-.2-.34a3.3,3.3,0,0,1,2.42-1,2.25,2.25,0,0,1,.92.17,1.89,1.89,0,0,1,.67.47,2,2,0,0,1,.41.74,2.87,2.87,0,0,1,.15.95Zm-2.82-.66a2.2,2.2,0,0,0,.53-.06,2.32,2.32,0,0,0,.44-.16,2.57,2.57,0,0,0,.41-.26,4,4,0,0,0,.37-.35v-1.27a7.63,7.63,0,0,0-1.27.09,4.08,4.08,0,0,0-.86.25,1.2,1.2,0,0,0-.47.36.8.8,0,0,0-.15.47.93.93,0,0,0,.08.42.7.7,0,0,0,.21.29.82.82,0,0,0,.32.17A1.6,1.6,0,0,0,804.83,524.67Z"/><path class="cls-21" d="M809.2,525.33v-6.16h.64a.27.27,0,0,1,.29.22l.09.67a3.4,3.4,0,0,1,.9-.72,2.34,2.34,0,0,1,1.14-.27,2.13,2.13,0,0,1,.9.17,1.69,1.69,0,0,1,.64.47,2.19,2.19,0,0,1,.4.74,3.59,3.59,0,0,1,.13,1v3.92h-1.08v-3.92a1.69,1.69,0,0,0-.32-1.09,1.2,1.2,0,0,0-1-.39,1.88,1.88,0,0,0-.9.23,3,3,0,0,0-.77.63v4.54Z"/><path class="cls-21" d="M658.91,497.85c.23,0,.45,0,.65,0a4.48,4.48,0,0,0,.55-.1l.5-.16a4.81,4.81,0,0,0,.46-.22v-1.92h-1.35a.25.25,0,0,1-.19-.07.24.24,0,0,1-.07-.16v-.67h2.68v3.35a6.82,6.82,0,0,1-.68.41,5,5,0,0,1-.76.3,7.45,7.45,0,0,1-.87.17,8,8,0,0,1-1,.06,4.49,4.49,0,0,1-1.74-.33,3.87,3.87,0,0,1-1.36-.91,3.94,3.94,0,0,1-.89-1.41,4.82,4.82,0,0,1-.33-1.81,5.08,5.08,0,0,1,.32-1.82,4.09,4.09,0,0,1,.89-1.41,4.13,4.13,0,0,1,1.41-.91,5.17,5.17,0,0,1,1.85-.32,5.86,5.86,0,0,1,1,.07,6.26,6.26,0,0,1,.83.22,4.16,4.16,0,0,1,.7.35,4.54,4.54,0,0,1,.6.46l-.33.54a.31.31,0,0,1-.27.16.35.35,0,0,1-.21-.07,2.49,2.49,0,0,1-.34-.2,3.87,3.87,0,0,0-.46-.24,3.93,3.93,0,0,0-1.52-.27,3.54,3.54,0,0,0-1.33.24,2.79,2.79,0,0,0-1,.69,3.07,3.07,0,0,0-.64,1.08,4.62,4.62,0,0,0,0,2.91,3,3,0,0,0,.66,1.1,2.84,2.84,0,0,0,1,.69A3.57,3.57,0,0,0,658.91,497.85Z"/><path class="cls-21" d="M670.93,498.84a.64.64,0,0,1-.26.32.61.61,0,0,1-.34.1h-.46l3.66-9.12a.68.68,0,0,1,.23-.29.58.58,0,0,1,.35-.11h.45Z"/><path class="cls-21" d="M684.14,497.85a6.46,6.46,0,0,0,.65,0,4.65,4.65,0,0,0,.56-.1c.17-.05.34-.1.49-.16a3.88,3.88,0,0,0,.46-.22v-1.92H685a.23.23,0,0,1-.18-.07.2.2,0,0,1-.07-.16v-.67h2.68v3.35a6,6,0,0,1-.69.41,4.62,4.62,0,0,1-.76.3,7.06,7.06,0,0,1-.87.17,7.79,7.79,0,0,1-1,.06,4.42,4.42,0,0,1-1.74-.33,3.91,3.91,0,0,1-1.37-.91,4.09,4.09,0,0,1-.89-1.41,5,5,0,0,1-.32-1.81,5.08,5.08,0,0,1,.31-1.82,4,4,0,0,1,.9-1.41,4.09,4.09,0,0,1,1.4-.91,5.2,5.2,0,0,1,1.85-.32,5.9,5.9,0,0,1,1,.07,6.11,6.11,0,0,1,.82.22,3.81,3.81,0,0,1,.7.35,4.64,4.64,0,0,1,.61.46l-.34.54a.31.31,0,0,1-.27.16.4.4,0,0,1-.21-.07l-.34-.2a3.87,3.87,0,0,0-.46-.24A3.79,3.79,0,0,0,685,491a4.45,4.45,0,0,0-.87-.08,3.56,3.56,0,0,0-1.34.24,2.75,2.75,0,0,0-1,.69,3.09,3.09,0,0,0-.65,1.08,4.82,4.82,0,0,0,0,2.91,3.26,3.26,0,0,0,.66,1.1,2.84,2.84,0,0,0,1,.69A3.57,3.57,0,0,0,684.14,497.85Z"/><path class="cls-21" d="M691.59,492.45a3.19,3.19,0,0,1,1.22.22,2.5,2.5,0,0,1,.92.64,2.85,2.85,0,0,1,.59,1,4.42,4.42,0,0,1,0,2.63,2.85,2.85,0,0,1-.59,1,2.62,2.62,0,0,1-.92.64,3.4,3.4,0,0,1-1.22.22,3.36,3.36,0,0,1-1.22-.22,2.58,2.58,0,0,1-.93-.64,2.71,2.71,0,0,1-.59-1,4.22,4.22,0,0,1,0-2.63,2.71,2.71,0,0,1,.59-1,2.46,2.46,0,0,1,.93-.64A3.16,3.16,0,0,1,691.59,492.45Zm0,5.5a1.57,1.57,0,0,0,1.36-.61,2.85,2.85,0,0,0,.45-1.71,2.88,2.88,0,0,0-.45-1.72,1.57,1.57,0,0,0-1.36-.61,1.86,1.86,0,0,0-.81.16,1.54,1.54,0,0,0-.57.45,2.2,2.2,0,0,0-.34.74,4.2,4.2,0,0,0-.11,1,4.13,4.13,0,0,0,.11,1,2.14,2.14,0,0,0,.34.73,1.54,1.54,0,0,0,.57.45A1.86,1.86,0,0,0,691.59,498Z"/><path class="cls-21" d="M696.93,489.74v9h-1.08v-9Z"/><path class="cls-21" d="M700,490.61a.72.72,0,0,1-.06.29.88.88,0,0,1-.18.25.78.78,0,0,1-.24.16.8.8,0,0,1-.3.06.77.77,0,0,1-.3-.06.78.78,0,0,1-.24-.16.85.85,0,0,1-.17-.25.72.72,0,0,1-.06-.29.73.73,0,0,1,.06-.3.74.74,0,0,1,.17-.25.66.66,0,0,1,.24-.17.77.77,0,0,1,.3-.06.8.8,0,0,1,.3.06.66.66,0,0,1,.24.17.76.76,0,0,1,.18.25A.73.73,0,0,1,700,490.61Zm-.24,1.93v6.17h-1.09v-6.17Z"/><path class="cls-21" d="M701.46,498.71v-6.17h.64a.27.27,0,0,1,.29.23l.09.67a3.4,3.4,0,0,1,.9-.72,2.35,2.35,0,0,1,1.15-.27,2.28,2.28,0,0,1,.89.16,1.62,1.62,0,0,1,.64.48,2,2,0,0,1,.4.74,3.57,3.57,0,0,1,.13.95v3.93h-1.08v-3.93a1.67,1.67,0,0,0-.32-1.08,1.2,1.2,0,0,0-1-.39,1.88,1.88,0,0,0-.9.23,3.23,3.23,0,0,0-.77.63v4.54Z"/><path class="cls-21" d="M764.25,492.06h.44a1,1,0,0,0,.37-.06.79.79,0,0,0,.26-.2l2.9-3.29a.92.92,0,0,1,.26-.21.61.61,0,0,1,.32-.07h1L766.48,492a2.72,2.72,0,0,1-.24.24,1.2,1.2,0,0,1-.24.15,1.11,1.11,0,0,1,.3.17,3.42,3.42,0,0,1,.27.27L770,497h-1l-.19,0-.14-.05a.39.39,0,0,1-.1-.08.47.47,0,0,1-.1-.1l-3-3.47-.12-.12a.38.38,0,0,0-.13-.09l-.18,0-.25,0h-.53v4h-1.18v-8.73h1.18Z"/><path class="cls-21" d="M773.35,490.69a3.16,3.16,0,0,1,1.22.23,2.62,2.62,0,0,1,.93.64,2.74,2.74,0,0,1,.58,1,4.22,4.22,0,0,1,0,2.63,2.7,2.7,0,0,1-.58,1,2.62,2.62,0,0,1-.93.64,3.49,3.49,0,0,1-2.44,0,2.62,2.62,0,0,1-.93-.64,2.87,2.87,0,0,1-.59-1,4.22,4.22,0,0,1,0-2.63,2.91,2.91,0,0,1,.59-1,2.62,2.62,0,0,1,.93-.64A3.16,3.16,0,0,1,773.35,490.69Zm0,5.51a1.57,1.57,0,0,0,1.36-.62,2.79,2.79,0,0,0,.46-1.7,2.86,2.86,0,0,0-.46-1.72,1.57,1.57,0,0,0-1.36-.62,1.93,1.93,0,0,0-.8.16,1.51,1.51,0,0,0-.57.46,2,2,0,0,0-.34.73,4.1,4.1,0,0,0,0,2,1.85,1.85,0,0,0,.34.72,1.51,1.51,0,0,0,.57.46A1.93,1.93,0,0,0,773.35,496.2Z"/><path class="cls-21" d="M784.77,497.09a.62.62,0,0,1-.26.31.62.62,0,0,1-.34.11h-.46l3.66-9.12a.71.71,0,0,1,.23-.3.58.58,0,0,1,.35-.1h.45Z"/><path class="cls-21" d="M795.39,492.06h.44a.92.92,0,0,0,.37-.06.79.79,0,0,0,.26-.2l2.9-3.29a.92.92,0,0,1,.26-.21.63.63,0,0,1,.32-.07h1L797.62,492a2.72,2.72,0,0,1-.24.24,1,1,0,0,1-.24.15,1.11,1.11,0,0,1,.3.17l.27.27,3.47,4.14h-1l-.2,0-.14-.05a.39.39,0,0,1-.1-.08.47.47,0,0,1-.1-.1l-3-3.47-.12-.12a.38.38,0,0,0-.13-.09l-.18,0-.25,0h-.53v4h-1.18v-8.73h1.18Z"/><path class="cls-21" d="M804.3,490.69a3.16,3.16,0,0,1,1.22.23,2.46,2.46,0,0,1,.93.64,2.91,2.91,0,0,1,.59,1,4.42,4.42,0,0,1,0,2.63,2.87,2.87,0,0,1-.59,1,2.46,2.46,0,0,1-.93.64,3.16,3.16,0,0,1-1.22.22,3.19,3.19,0,0,1-1.22-.22,2.62,2.62,0,0,1-.93-.64,2.87,2.87,0,0,1-.59-1,4.42,4.42,0,0,1,0-2.63,2.91,2.91,0,0,1,.59-1,2.62,2.62,0,0,1,.93-.64A3.19,3.19,0,0,1,804.3,490.69Zm0,5.51a1.59,1.59,0,0,0,1.37-.62,2.8,2.8,0,0,0,.45-1.7,2.86,2.86,0,0,0-.45-1.72,1.59,1.59,0,0,0-1.37-.62,2,2,0,0,0-.8.16,1.51,1.51,0,0,0-.57.46,2.14,2.14,0,0,0-.34.73,4.47,4.47,0,0,0,0,2,2,2,0,0,0,.34.72,1.51,1.51,0,0,0,.57.46A2,2,0,0,0,804.3,496.2Z"/><path class="cls-21" d="M808.49,497v-6.17h.62a.34.34,0,0,1,.25.07.46.46,0,0,1,.09.23l.07,1a2.81,2.81,0,0,1,.78-1,1.75,1.75,0,0,1,1.1-.36,1.65,1.65,0,0,1,.46.06,1.61,1.61,0,0,1,.38.16l-.14.81a.18.18,0,0,1-.19.15,1,1,0,0,1-.26-.06,1.63,1.63,0,0,0-.49-.05,1.44,1.44,0,0,0-.95.32,2.64,2.64,0,0,0-.64,1V497Z"/><path class="cls-21" d="M817.76,497h-.48a.63.63,0,0,1-.26,0,.28.28,0,0,1-.13-.21l-.12-.57a5.09,5.09,0,0,1-.47.39,2.25,2.25,0,0,1-.49.29,2.37,2.37,0,0,1-.55.18,2.51,2.51,0,0,1-.64.07,2.41,2.41,0,0,1-.67-.1,1.57,1.57,0,0,1-.55-.31,1.38,1.38,0,0,1-.36-.51,1.64,1.64,0,0,1-.14-.73,1.29,1.29,0,0,1,.2-.7,1.75,1.75,0,0,1,.65-.61,4.73,4.73,0,0,1,1.17-.43,8,8,0,0,1,1.77-.17V493a1.63,1.63,0,0,0-.31-1.09,1.09,1.09,0,0,0-.91-.37,1.83,1.83,0,0,0-.66.1,2.28,2.28,0,0,0-.47.22l-.34.23a.56.56,0,0,1-.29.1.33.33,0,0,1-.19-.06.57.57,0,0,1-.13-.14l-.19-.35a3.67,3.67,0,0,1,1.1-.74,3.43,3.43,0,0,1,1.31-.24,2.43,2.43,0,0,1,.92.17,1.79,1.79,0,0,1,.67.48,2,2,0,0,1,.42.73,3.21,3.21,0,0,1,.14.95Zm-2.82-.67a1.9,1.9,0,0,0,1-.22,2,2,0,0,0,.4-.26,2.92,2.92,0,0,0,.37-.34v-1.28a6.6,6.6,0,0,0-1.27.1,3.08,3.08,0,0,0-.85.25,1.16,1.16,0,0,0-.48.36.77.77,0,0,0-.15.46,1.1,1.1,0,0,0,.08.43.86.86,0,0,0,.21.29.88.88,0,0,0,.32.16A1.23,1.23,0,0,0,814.94,496.29Z"/><path class="cls-21" d="M820.46,488v9h-1.09v-9Z"/><path class="cls-21" d="M823.53,488.85a.73.73,0,0,1-.06.3.81.81,0,0,1-.17.24.74.74,0,0,1-.25.17.73.73,0,0,1-.3.06.72.72,0,0,1-.29-.06,1,1,0,0,1-.25-.17.78.78,0,0,1-.16-.24.73.73,0,0,1-.06-.3.8.8,0,0,1,.06-.3.82.82,0,0,1,.16-.25,1,1,0,0,1,.25-.17.72.72,0,0,1,.29-.06.73.73,0,0,1,.3.06.74.74,0,0,1,.25.17.85.85,0,0,1,.17.25A.8.8,0,0,1,823.53,488.85Zm-.24,1.94V497h-1.08v-6.17Z"/><path class="cls-21" d="M829.41,497h-.48a.58.58,0,0,1-.25,0,.25.25,0,0,1-.13-.21l-.12-.57a5.15,5.15,0,0,1-.48.39,1.86,1.86,0,0,1-.49.29,2.45,2.45,0,0,1-.54.18,2.56,2.56,0,0,1-.64.07,2.48,2.48,0,0,1-.68-.1,1.53,1.53,0,0,1-.54-.31,1.4,1.4,0,0,1-.37-.51,1.79,1.79,0,0,1-.14-.73,1.38,1.38,0,0,1,.2-.7,1.92,1.92,0,0,1,.65-.61,4.67,4.67,0,0,1,1.18-.43,8,8,0,0,1,1.77-.17V493a1.63,1.63,0,0,0-.31-1.09,1.1,1.1,0,0,0-.91-.37,1.89,1.89,0,0,0-.67.1,2.56,2.56,0,0,0-.47.22l-.34.23a.53.53,0,0,1-.28.1.31.31,0,0,1-.19-.06.43.43,0,0,1-.13-.14l-.2-.35a3.59,3.59,0,0,1,1.11-.74,3.42,3.42,0,0,1,1.3-.24,2.36,2.36,0,0,1,.92.17,1.75,1.75,0,0,1,.68.48,1.93,1.93,0,0,1,.41.73,2.91,2.91,0,0,1,.14.95Zm-2.81-.67a2.09,2.09,0,0,0,.52-.05,2.2,2.2,0,0,0,.45-.17,1.72,1.72,0,0,0,.4-.26,3,3,0,0,0,.38-.34v-1.28a6.53,6.53,0,0,0-1.27.1,3.16,3.16,0,0,0-.86.25,1.07,1.07,0,0,0-.47.36.77.77,0,0,0-.15.46,1.11,1.11,0,0,0,.07.43,1.06,1.06,0,0,0,.22.29.8.8,0,0,0,.32.16A1.23,1.23,0,0,0,826.6,496.29Z"/><path class="cls-21" d="M659.49,518.85a.58.58,0,0,1-.12.14.25.25,0,0,1-.16,0,.4.4,0,0,1-.24-.1,3,3,0,0,0-.35-.23,3,3,0,0,0-.5-.23,2.57,2.57,0,0,0-1.42,0,1.43,1.43,0,0,0-.5.29,1.27,1.27,0,0,0-.31.43,1.41,1.41,0,0,0-.11.54,1,1,0,0,0,.18.6,1.49,1.49,0,0,0,.48.41,3.16,3.16,0,0,0,.67.3l.77.26c.26.09.51.19.76.3a2.53,2.53,0,0,1,.67.42,1.89,1.89,0,0,1,.48.63,2.08,2.08,0,0,1,.18.91,3,3,0,0,1-.2,1.08,2.53,2.53,0,0,1-.57.87,2.7,2.7,0,0,1-.92.59,3.39,3.39,0,0,1-1.24.21,3.72,3.72,0,0,1-1.54-.31,3.59,3.59,0,0,1-1.19-.83l.34-.56a.32.32,0,0,1,.12-.11.3.3,0,0,1,.15,0,.51.51,0,0,1,.3.14,4.43,4.43,0,0,0,.41.3,2.79,2.79,0,0,0,.6.3,2.32,2.32,0,0,0,.85.14,2.19,2.19,0,0,0,.75-.12,1.61,1.61,0,0,0,.56-.32,1.41,1.41,0,0,0,.35-.51,1.67,1.67,0,0,0,.12-.65,1.11,1.11,0,0,0-.18-.65,1.59,1.59,0,0,0-.47-.42,3.75,3.75,0,0,0-.67-.29l-.77-.24c-.26-.09-.51-.18-.76-.29a2.33,2.33,0,0,1-.67-.43,1.85,1.85,0,0,1-.47-.65,2.4,2.4,0,0,1,.52-2.64,2.56,2.56,0,0,1,.84-.53,3,3,0,0,1,1.16-.2,3.57,3.57,0,0,1,1.33.23,3,3,0,0,1,1,.67Z"/><path class="cls-21" d="M668.44,526.34a.62.62,0,0,1-.25.32.74.74,0,0,1-.34.1h-.46l3.66-9.12a.64.64,0,0,1,.23-.3.62.62,0,0,1,.34-.1h.46Z"/><path class="cls-21" d="M682.24,518.85a.58.58,0,0,1-.12.14.25.25,0,0,1-.16,0,.4.4,0,0,1-.24-.1l-.34-.23a3.51,3.51,0,0,0-.51-.23,2.57,2.57,0,0,0-1.42,0,1.43,1.43,0,0,0-.5.29,1.27,1.27,0,0,0-.31.43,1.41,1.41,0,0,0-.11.54,1,1,0,0,0,.18.6,1.49,1.49,0,0,0,.48.41,3.16,3.16,0,0,0,.67.3l.77.26c.26.09.51.19.76.3a2.53,2.53,0,0,1,.67.42,1.89,1.89,0,0,1,.48.63,2.08,2.08,0,0,1,.18.91,3,3,0,0,1-.2,1.08,2.53,2.53,0,0,1-.57.87,2.7,2.7,0,0,1-.92.59,3.39,3.39,0,0,1-1.24.21,3.72,3.72,0,0,1-1.54-.31,3.59,3.59,0,0,1-1.19-.83l.34-.56a.32.32,0,0,1,.12-.11.3.3,0,0,1,.15,0,.51.51,0,0,1,.3.14,4.43,4.43,0,0,0,.41.3,2.79,2.79,0,0,0,.6.3,2.32,2.32,0,0,0,.85.14,2.19,2.19,0,0,0,.75-.12,1.61,1.61,0,0,0,.56-.32,1.41,1.41,0,0,0,.35-.51,1.67,1.67,0,0,0,.12-.65,1.11,1.11,0,0,0-.18-.65,1.59,1.59,0,0,0-.47-.42,3.75,3.75,0,0,0-.67-.29l-.77-.24c-.26-.09-.51-.18-.76-.29a2.33,2.33,0,0,1-.67-.43,1.85,1.85,0,0,1-.47-.65,2.4,2.4,0,0,1,.52-2.64,2.56,2.56,0,0,1,.84-.53,3,3,0,0,1,1.16-.2,3.57,3.57,0,0,1,1.33.23,3,3,0,0,1,1,.67Z"/><path class="cls-21" d="M685.38,518.11a.72.72,0,0,1-.06.29.81.81,0,0,1-.17.24.62.62,0,0,1-.25.17.72.72,0,0,1-.29.06.73.73,0,0,1-.3-.06.66.66,0,0,1-.24-.17.81.81,0,0,1-.17-.24.72.72,0,0,1-.06-.29.81.81,0,0,1,.06-.31,1,1,0,0,1,.17-.25.78.78,0,0,1,.24-.16.73.73,0,0,1,.3-.06.82.82,0,0,1,.54.22,1,1,0,0,1,.17.25A.81.81,0,0,1,685.38,518.11Zm-.24,1.93v6.17h-1.08V520Z"/><path class="cls-21" d="M690.36,521.06a.25.25,0,0,1-.23.13.41.41,0,0,1-.2-.06l-.29-.15a1.68,1.68,0,0,0-.4-.15,1.71,1.71,0,0,0-.54-.08,1.54,1.54,0,0,0-.5.08,1.08,1.08,0,0,0-.37.19.8.8,0,0,0-.24.28.82.82,0,0,0-.08.35.56.56,0,0,0,.14.4,1.3,1.3,0,0,0,.36.27,3,3,0,0,0,.51.2l.59.19.58.22a2.38,2.38,0,0,1,.52.31,1.33,1.33,0,0,1,.36.45,1.36,1.36,0,0,1,.14.63,2,2,0,0,1-.16.79,1.74,1.74,0,0,1-.45.63,2.26,2.26,0,0,1-.73.42,3,3,0,0,1-1,.15,3.13,3.13,0,0,1-1.17-.21,2.85,2.85,0,0,1-.88-.54l.25-.41a.3.3,0,0,1,.12-.13.39.39,0,0,1,.17,0,.37.37,0,0,1,.23.09c.09,0,.18.12.3.18a2,2,0,0,0,.42.19,2.06,2.06,0,0,0,1.17,0,1.2,1.2,0,0,0,.4-.23.9.9,0,0,0,.23-.32,1,1,0,0,0,.08-.39.64.64,0,0,0-.14-.42,1.18,1.18,0,0,0-.36-.29,2.26,2.26,0,0,0-.52-.2l-.59-.19-.59-.22a2.2,2.2,0,0,1-.51-.32,1.37,1.37,0,0,1-.36-.46,1.54,1.54,0,0,1-.14-.67,1.57,1.57,0,0,1,.15-.68,1.69,1.69,0,0,1,.42-.58,2.3,2.3,0,0,1,.69-.39,2.67,2.67,0,0,1,.93-.14,2.86,2.86,0,0,1,1.09.19,2.39,2.39,0,0,1,.84.52Z"/><path class="cls-21" d="M693.92,528a.6.6,0,0,1-.14.2.36.36,0,0,1-.25.07h-.8l1.12-2.45L691.31,520h.94a.33.33,0,0,1,.21.07.36.36,0,0,1,.12.16l1.65,3.88c0,.09.07.18.1.27s0,.18.07.27a2.76,2.76,0,0,1,.08-.27c0-.09.06-.18.1-.27l1.6-3.88a.33.33,0,0,1,.12-.16.31.31,0,0,1,.2-.07h.86Z"/><path class="cls-21" d="M698.29,528.3V520h.65a.28.28,0,0,1,.29.23l.09.73a3.49,3.49,0,0,1,.9-.78,2.37,2.37,0,0,1,1.18-.29,2.18,2.18,0,0,1,1,.21,1.93,1.93,0,0,1,.74.6,2.75,2.75,0,0,1,.46,1,5.05,5.05,0,0,1,.17,1.36,4.38,4.38,0,0,1-.18,1.27,3.13,3.13,0,0,1-.53,1,2.39,2.39,0,0,1-.83.68,2.59,2.59,0,0,1-1.12.25,2.41,2.41,0,0,1-1-.19,2.2,2.2,0,0,1-.71-.54v2.73Zm2.75-7.49a1.76,1.76,0,0,0-.93.24,2.79,2.79,0,0,0-.73.69v3a1.7,1.7,0,0,0,.65.56,1.86,1.86,0,0,0,.79.17,1.57,1.57,0,0,0,1.33-.62,2.92,2.92,0,0,0,.46-1.75,4.48,4.48,0,0,0-.11-1,1.93,1.93,0,0,0-.31-.71,1.12,1.12,0,0,0-.49-.4A1.53,1.53,0,0,0,701,520.81Z"/><path class="cls-21" d="M705,526.21v-9h1.08v3.63a3.31,3.31,0,0,1,.88-.67,2.33,2.33,0,0,1,1.11-.25,2.28,2.28,0,0,1,.89.16,1.62,1.62,0,0,1,.64.48,2,2,0,0,1,.4.74,3.16,3.16,0,0,1,.13.95v3.93H709v-3.93a1.66,1.66,0,0,0-.32-1.08,1.2,1.2,0,0,0-1-.39,1.88,1.88,0,0,0-.9.23,3,3,0,0,0-.77.63v4.54Z"/><path class="cls-21" d="M712.64,520V524a1.62,1.62,0,0,0,.32,1.08,1.18,1.18,0,0,0,1,.38,1.87,1.87,0,0,0,.9-.22,2.67,2.67,0,0,0,.77-.63V520h1.09v6.17H716a.27.27,0,0,1-.29-.22l-.09-.67a3.4,3.4,0,0,1-.9.72,2.34,2.34,0,0,1-1.14.27,2.29,2.29,0,0,1-.9-.17,1.78,1.78,0,0,1-.64-.47,2,2,0,0,1-.4-.74,3.52,3.52,0,0,1-.13-.95V520Z"/><path class="cls-21" d="M721.86,521.06a.25.25,0,0,1-.23.13.48.48,0,0,1-.21-.06,1.77,1.77,0,0,0-.28-.15,1.68,1.68,0,0,0-.4-.15,1.71,1.71,0,0,0-.54-.08,1.54,1.54,0,0,0-.5.08,1.08,1.08,0,0,0-.37.19.71.71,0,0,0-.24.28.82.82,0,0,0-.08.35.6.6,0,0,0,.13.4,1.54,1.54,0,0,0,.37.27,3,3,0,0,0,.51.2l.59.19.58.22a3,3,0,0,1,.52.31,1.33,1.33,0,0,1,.36.45,1.36,1.36,0,0,1,.14.63,2,2,0,0,1-.16.79,1.74,1.74,0,0,1-.45.63,2.26,2.26,0,0,1-.73.42,3,3,0,0,1-1,.15,3.13,3.13,0,0,1-1.17-.21,3,3,0,0,1-.89-.54l.26-.41a.3.3,0,0,1,.12-.13.39.39,0,0,1,.17,0,.37.37,0,0,1,.23.09,3.38,3.38,0,0,0,.3.18,1.65,1.65,0,0,0,.42.19,2.06,2.06,0,0,0,1.17,0,1.2,1.2,0,0,0,.4-.23.9.9,0,0,0,.23-.32,1,1,0,0,0,.08-.39.64.64,0,0,0-.14-.42,1.18,1.18,0,0,0-.36-.29,2.26,2.26,0,0,0-.52-.2l-.59-.19-.59-.22a2.2,2.2,0,0,1-.51-.32,1.37,1.37,0,0,1-.36-.46,1.41,1.41,0,0,1-.14-.67,1.64,1.64,0,0,1,.57-1.26,2.3,2.3,0,0,1,.69-.39,2.67,2.67,0,0,1,.93-.14,2.86,2.86,0,0,1,1.09.19,2.39,2.39,0,0,1,.84.52Z"/><path class="cls-21" d="M763,553.71V545h2.78a5.59,5.59,0,0,1,1.39.16,2.89,2.89,0,0,1,1,.45,1.86,1.86,0,0,1,.56.72,2.4,2.4,0,0,1,.18,1,2.12,2.12,0,0,1-.1.62,1.82,1.82,0,0,1-.31.56,1.87,1.87,0,0,1-.51.45,2.39,2.39,0,0,1-.72.33,2.7,2.7,0,0,1,1.44.69,1.78,1.78,0,0,1,.49,1.32,2.56,2.56,0,0,1-.2,1,2.27,2.27,0,0,1-.6.78,2.75,2.75,0,0,1-1,.51,4.35,4.35,0,0,1-1.3.18Zm1.18-4.82h1.56a2.76,2.76,0,0,0,.86-.11,1.66,1.66,0,0,0,.61-.3,1.26,1.26,0,0,0,.36-.47,1.74,1.74,0,0,0,.11-.61,1.32,1.32,0,0,0-.46-1.12,2.35,2.35,0,0,0-1.44-.36h-1.6Zm0,.84v3H766a3.18,3.18,0,0,0,.87-.11,1.6,1.6,0,0,0,.59-.33,1.26,1.26,0,0,0,.35-.5,1.81,1.81,0,0,0,.11-.63,1.31,1.31,0,0,0-.48-1.07,2.26,2.26,0,0,0-1.45-.4Z"/><path class="cls-21" d="M775.3,546.35a.58.58,0,0,1-.12.14.25.25,0,0,1-.16,0,.45.45,0,0,1-.24-.1,2.83,2.83,0,0,0-.34-.23,3.08,3.08,0,0,0-.51-.23,2.13,2.13,0,0,0-.71-.1,2.11,2.11,0,0,0-.7.1,1.39,1.39,0,0,0-.51.29,1.27,1.27,0,0,0-.31.43,1.4,1.4,0,0,0-.1.54,1,1,0,0,0,.18.6,1.45,1.45,0,0,0,.47.41,3.16,3.16,0,0,0,.67.3l.77.26c.26.09.52.19.77.3a2.48,2.48,0,0,1,.66.42,1.89,1.89,0,0,1,.48.63,2.08,2.08,0,0,1,.18.91,3,3,0,0,1-.2,1.08,2.37,2.37,0,0,1-.56.87,2.8,2.8,0,0,1-.92.59,3.47,3.47,0,0,1-1.24.21,3.73,3.73,0,0,1-1.55-.31,3.59,3.59,0,0,1-1.19-.83l.34-.56a.6.6,0,0,1,.12-.11.3.3,0,0,1,.16,0,.51.51,0,0,1,.29.14l.41.3a3,3,0,0,0,.6.3,2.36,2.36,0,0,0,.85.14,2.19,2.19,0,0,0,.75-.12,1.61,1.61,0,0,0,.56-.32,1.41,1.41,0,0,0,.35-.51,1.67,1.67,0,0,0,.12-.65,1.11,1.11,0,0,0-.18-.65,1.59,1.59,0,0,0-.47-.42,3.46,3.46,0,0,0-.67-.29l-.76-.24c-.27-.09-.52-.18-.77-.29a2.48,2.48,0,0,1-.67-.43,2,2,0,0,1-.47-.65,2.4,2.4,0,0,1,.52-2.64,2.56,2.56,0,0,1,.84-.53,3,3,0,0,1,1.16-.2,3.54,3.54,0,0,1,1.33.23,3,3,0,0,1,1.05.67Z"/><path class="cls-21" d="M784.26,553.84a.65.65,0,0,1-.6.42h-.46l3.66-9.12a.71.71,0,0,1,.23-.3.62.62,0,0,1,.34-.1h.46Z"/><path class="cls-21" d="M793.58,553.71V545h2.78a5.59,5.59,0,0,1,1.39.16,2.89,2.89,0,0,1,1,.45,1.86,1.86,0,0,1,.56.72,2.4,2.4,0,0,1,.18,1,2.12,2.12,0,0,1-.1.62,1.82,1.82,0,0,1-.31.56,2,2,0,0,1-.51.45,2.64,2.64,0,0,1-.72.33,2.7,2.7,0,0,1,1.44.69,1.78,1.78,0,0,1,.49,1.32,2.4,2.4,0,0,1-.21,1,2.13,2.13,0,0,1-.59.78,2.84,2.84,0,0,1-1,.51,4.35,4.35,0,0,1-1.3.18Zm1.18-4.82h1.56a2.76,2.76,0,0,0,.86-.11,1.66,1.66,0,0,0,.61-.3,1.26,1.26,0,0,0,.36-.47,1.74,1.74,0,0,0,.11-.61,1.32,1.32,0,0,0-.46-1.12,2.35,2.35,0,0,0-1.44-.36h-1.6Zm0,.84v3h1.89a3.1,3.1,0,0,0,.86-.11,1.56,1.56,0,0,0,.6-.33,1.26,1.26,0,0,0,.35-.5,1.81,1.81,0,0,0,.11-.63,1.31,1.31,0,0,0-.48-1.07,2.26,2.26,0,0,0-1.45-.4Z"/><path class="cls-21" d="M802.59,545.61a.72.72,0,0,1-.06.29.81.81,0,0,1-.17.24.7.7,0,0,1-.25.17.73.73,0,0,1-.3.06.72.72,0,0,1-.29-.06.7.7,0,0,1-.25-.17.78.78,0,0,1-.16-.24.72.72,0,0,1-.06-.29.81.81,0,0,1,.06-.31,1,1,0,0,1,.16-.25.82.82,0,0,1,.25-.16.72.72,0,0,1,.29-.06.73.73,0,0,1,.3.06.82.82,0,0,1,.25.16,1,1,0,0,1,.17.25A.81.81,0,0,1,802.59,545.61Zm-.24,1.93v6.17h-1.09v-6.17Z"/><path class="cls-21" d="M806.15,547.44a3,3,0,0,1,.75.09,2.2,2.2,0,0,1,.63.26h1.68v.4c0,.13-.09.22-.26.25l-.7.1a1.84,1.84,0,0,1,.21.88,2,2,0,0,1-.17.82,1.89,1.89,0,0,1-.48.63,2.26,2.26,0,0,1-.73.41,3.14,3.14,0,0,1-1.75,0,1.1,1.1,0,0,0-.29.27.5.5,0,0,0-.11.29.38.38,0,0,0,.18.34,1.29,1.29,0,0,0,.47.17,4.33,4.33,0,0,0,.66,0H807a4.77,4.77,0,0,1,.76.06,2.14,2.14,0,0,1,.66.23,1.19,1.19,0,0,1,.47.42,1.25,1.25,0,0,1,.18.7,1.68,1.68,0,0,1-.2.78,2.1,2.1,0,0,1-.57.67,3.12,3.12,0,0,1-.91.47,3.76,3.76,0,0,1-1.21.17,4.63,4.63,0,0,1-1.18-.13,2.72,2.72,0,0,1-.84-.36,1.48,1.48,0,0,1-.51-.52,1.25,1.25,0,0,1-.16-.62,1.15,1.15,0,0,1,.28-.78,2.12,2.12,0,0,1,.8-.51,1.14,1.14,0,0,1-.42-.32.92.92,0,0,1-.15-.55.84.84,0,0,1,0-.27,2,2,0,0,1,.15-.29,1.52,1.52,0,0,1,.25-.26,1.69,1.69,0,0,1,.34-.23,1.86,1.86,0,0,1-.71-.68,1.79,1.79,0,0,1-.26-1,2,2,0,0,1,.17-.82,1.85,1.85,0,0,1,.49-.62,2.1,2.1,0,0,1,.74-.4A3.09,3.09,0,0,1,806.15,547.44Zm1.92,6.58a.51.51,0,0,0-.13-.37.85.85,0,0,0-.34-.23,2.4,2.4,0,0,0-.51-.11,5.66,5.66,0,0,0-.6,0h-.65a2.18,2.18,0,0,1-.63-.08,1.71,1.71,0,0,0-.56.4.84.84,0,0,0-.21.57.76.76,0,0,0,.1.39.9.9,0,0,0,.33.31,2,2,0,0,0,.55.21,3.58,3.58,0,0,0,.78.07,3.25,3.25,0,0,0,.79-.08,1.8,1.8,0,0,0,.58-.23,1.14,1.14,0,0,0,.37-.35A.82.82,0,0,0,808.07,554Zm-1.92-3.32a1.72,1.72,0,0,0,.58-.09,1.25,1.25,0,0,0,.42-.26,1.16,1.16,0,0,0,.26-.39,1.65,1.65,0,0,0,.08-.51,1.21,1.21,0,0,0-.34-.9,1.4,1.4,0,0,0-1-.33,1.39,1.39,0,0,0-1,.33,1.21,1.21,0,0,0-.34.9,1.65,1.65,0,0,0,.08.51,1.16,1.16,0,0,0,.26.39,1.49,1.49,0,0,0,.42.26A1.72,1.72,0,0,0,806.15,550.7Z"/><path class="cls-21" d="M817.28,546.35a.4.4,0,0,1-.11.14.27.27,0,0,1-.16,0,.4.4,0,0,1-.24-.1,3,3,0,0,0-.35-.23,3.36,3.36,0,0,0-.5-.23,2.2,2.2,0,0,0-.72-.1,2.15,2.15,0,0,0-.7.1,1.58,1.58,0,0,0-.51.29,1.43,1.43,0,0,0-.31.43,1.62,1.62,0,0,0-.1.54,1,1,0,0,0,.18.6,1.49,1.49,0,0,0,.48.41,3,3,0,0,0,.67.3l.76.26c.26.09.52.19.77.3a2.71,2.71,0,0,1,.67.42,1.86,1.86,0,0,1,.47.63,2.08,2.08,0,0,1,.18.91,3,3,0,0,1-.19,1.08,2.53,2.53,0,0,1-.57.87,2.8,2.8,0,0,1-.92.59,3.43,3.43,0,0,1-1.24.21,3.69,3.69,0,0,1-1.54-.31,3.49,3.49,0,0,1-1.19-.83l.34-.56a.32.32,0,0,1,.12-.11.27.27,0,0,1,.15,0,.46.46,0,0,1,.29.14,4.74,4.74,0,0,0,.42.3,3,3,0,0,0,.59.3,2.42,2.42,0,0,0,.86.14,2.19,2.19,0,0,0,.75-.12,1.56,1.56,0,0,0,.55-.32,1.3,1.3,0,0,0,.35-.51,1.51,1.51,0,0,0,.13-.65,1.11,1.11,0,0,0-.18-.65,1.52,1.52,0,0,0-.48-.42,3.36,3.36,0,0,0-.66-.29l-.77-.24c-.26-.09-.52-.18-.77-.29a2.28,2.28,0,0,1-.66-.43,1.87,1.87,0,0,1-.48-.65,2.52,2.52,0,0,1,0-1.87,2.32,2.32,0,0,1,1.37-1.3,3,3,0,0,1,1.15-.2,3.63,3.63,0,0,1,1.34.23,3,3,0,0,1,1.05.67Z"/><path class="cls-21" d="M819.1,553.71v-6.17h.64a.28.28,0,0,1,.3.23l.08.63a3.09,3.09,0,0,1,.76-.69,1.77,1.77,0,0,1,1-.26,1.48,1.48,0,0,1,1,.34,2,2,0,0,1,.55.94,2.06,2.06,0,0,1,.34-.58,1.95,1.95,0,0,1,1-.63,2.46,2.46,0,0,1,.6-.07,2.37,2.37,0,0,1,.87.15,1.62,1.62,0,0,1,.64.45,2,2,0,0,1,.41.74,3.33,3.33,0,0,1,.14,1v3.93h-1.08v-3.93a1.68,1.68,0,0,0-.32-1.1,1.14,1.14,0,0,0-.92-.37,1.44,1.44,0,0,0-.51.09,1.34,1.34,0,0,0-.42.28,1.21,1.21,0,0,0-.29.46,1.83,1.83,0,0,0-.11.64v3.93h-1.08v-3.93a1.75,1.75,0,0,0-.3-1.11,1.07,1.07,0,0,0-.87-.36,1.34,1.34,0,0,0-.75.22,2.44,2.44,0,0,0-.63.58v4.6Z"/><path class="cls-21" d="M830.37,545.61a.72.72,0,0,1-.06.29.81.81,0,0,1-.17.24.62.62,0,0,1-.25.17.73.73,0,0,1-.3.06.72.72,0,0,1-.29-.06.66.66,0,0,1-.24-.17.81.81,0,0,1-.17-.24.72.72,0,0,1-.06-.29.81.81,0,0,1,.06-.31,1,1,0,0,1,.17-.25.78.78,0,0,1,.24-.16.72.72,0,0,1,.29-.06.73.73,0,0,1,.3.06.72.72,0,0,1,.25.16,1,1,0,0,1,.17.25A.81.81,0,0,1,830.37,545.61Zm-.24,1.93v6.17h-1.08v-6.17Z"/><path class="cls-21" d="M833,544.74v9h-1.09v-9Z"/><path class="cls-21" d="M837.2,547.45a2.8,2.8,0,0,1,1,.18,2.06,2.06,0,0,1,.81.54,2.43,2.43,0,0,1,.54.86,3.5,3.5,0,0,1,.19,1.17.63.63,0,0,1-.06.34.2.2,0,0,1-.2.09h-4.11a3.41,3.41,0,0,0,.16,1,2.17,2.17,0,0,0,.4.72,1.62,1.62,0,0,0,.61.43,2,2,0,0,0,.79.14,2.5,2.5,0,0,0,.71-.09,3.46,3.46,0,0,0,.5-.2l.36-.21a.51.51,0,0,1,.25-.09.21.21,0,0,1,.2.1l.31.4a2.41,2.41,0,0,1-.48.42,2.77,2.77,0,0,1-.6.29,4,4,0,0,1-.66.18,4,4,0,0,1-.68.06,3.22,3.22,0,0,1-1.18-.22,2.6,2.6,0,0,1-.93-.63,3,3,0,0,1-.61-1,4.09,4.09,0,0,1-.22-1.41,3.6,3.6,0,0,1,.2-1.2,2.68,2.68,0,0,1,.57-1,2.57,2.57,0,0,1,.9-.65A2.94,2.94,0,0,1,837.2,547.45Zm0,.79a1.63,1.63,0,0,0-1.23.46,2.11,2.11,0,0,0-.56,1.25h3.35a2.17,2.17,0,0,0-.1-.69,1.57,1.57,0,0,0-.3-.54,1.37,1.37,0,0,0-.5-.35A1.53,1.53,0,0,0,837.22,548.24Z"/><circle class="cls-14" cx="384.62" cy="285.94" r="23.66"/><path class="cls-22" d="M382,285.56a2.88,2.88,0,0,0,3.08,3.12,5.93,5.93,0,0,0,2.49-.47l.27,1.17a7.19,7.19,0,0,1-3,.56,4.17,4.17,0,0,1-4.42-4.53c0-2.71,1.6-4.84,4.21-4.84,2.94,0,3.71,2.58,3.71,4.23a6.2,6.2,0,0,1-.05.76Zm4.79-1.17a2.32,2.32,0,0,0-2.27-2.65,2.7,2.7,0,0,0-2.5,2.65Z"/><path class="cls-23" d="M325.11,250.91,303.55,239l.5-.91s18.43-35.21,64.24-44.25c0,0,37-8.64,79.15,21.63l-15.77,17.7h0s-58-48.34-106.56,17.7"/><path class="cls-23" d="M303.55,238.47l-20.16-11.24s23.57-49.83,81.5-57.95c0,0,58.77-10.79,98.33,28.88l-15.78,17.35s-33.62-28.29-75.67-21.06c-23.37,4-48.77,13.79-69,46.06"/><line class="cls-24" x1="579.11" y1="66.63" x2="400.71" y2="268.54"/><line class="cls-12" x1="361.8" y1="169.72" x2="383.04" y2="269.9"/><path class="cls-14" d="M305.42,216l.3,1.2,1.36,1-.78,1.06-4.89-3.6.78-1.07,2.33,1.72,0,0-.44-1.4-.57-2.11.89-1.21.8,3.13,4.2.33-.93,1.25Z"/><path class="cls-14" d="M307.72,209.63l.72-1,3.2,4.54a1.74,1.74,0,0,1,.34.86,1.53,1.53,0,0,1-.34.88l-.48.65-.8-.6.51-.69-.31-.43-4.82-1.56.76-1,2.11.73,1.26.52,0,0-.87-1.06Z"/><path class="cls-14" d="M378,179.69l-.69,1,.16,1.68-1.31.13-.59-6,1.31-.13.28,2.87h.05L378,178l1.19-1.83,1.49-.15-1.79,2.68,2.56,3.35-1.55.15Z"/><path class="cls-14" d="M384.32,177.15l1.19-.12-1.24,5.42a1.59,1.59,0,0,1-.41.82,1.43,1.43,0,0,1-.88.35l-.8.07-.09-1,.85-.09.11-.51L381,177.47l1.27-.12.88,2.05.45,1.29h.06l.21-1.35Z"/><path class="cls-14" d="M343.68,191.92a2.87,2.87,0,0,1-2.5-.12l.51-1.13a1.94,1.94,0,0,0,1.66.12,1.06,1.06,0,0,0,.61-.43.69.69,0,0,0,0-.58.6.6,0,0,0-.28-.34.91.91,0,0,0-.61,0l-.59.13a2.31,2.31,0,0,1-1.52-.05,1.68,1.68,0,0,1-.85-1,1.74,1.74,0,0,1,.1-1.46,2.17,2.17,0,0,1,.54-.6,3.41,3.41,0,0,1,.85-.46,3.24,3.24,0,0,1,1.21-.22,2.67,2.67,0,0,1,1.07.29l-.52,1.14a1.71,1.71,0,0,0-.64-.2,1.62,1.62,0,0,0-.78.12,1.17,1.17,0,0,0-.57.37.49.49,0,0,0-.05.48.52.52,0,0,0,.31.36,1.16,1.16,0,0,0,.59,0l.6-.12a2.46,2.46,0,0,1,1.5.06,1.58,1.58,0,0,1,.85,1,1.89,1.89,0,0,1,.13.8,1.62,1.62,0,0,1-.21.75,1.94,1.94,0,0,1-.55.64A3.48,3.48,0,0,1,343.68,191.92Z"/><path class="cls-14" d="M441.77,198.16l-2-1.17-1.25,2.16-1.14-.67,3-5.25,1.15.66L440.36,196l2,1.16,1.21-2.08,1.14.66-3,5.25-1.15-.66Z"/><path class="cls-14" d="M409.84,183.87l-.93.82-.27,1.67-1.31-.21,1-6,1.31.21-.46,2.85h.05l1-1,1.62-1.48,1.48.24-2.42,2.14,1.64,3.88-1.54-.24Z"/><path class="cls-14" d="M414.84,187.46a2.44,2.44,0,0,1-.86-.31,1.82,1.82,0,0,1-.59-.58,2.23,2.23,0,0,1-.29-.81,2.86,2.86,0,0,1,0-1,3.31,3.31,0,0,1,.3-.95,2,2,0,0,1,.54-.68,1.85,1.85,0,0,1,.73-.36,2.35,2.35,0,0,1,.92,0,2.25,2.25,0,0,1,.86.3,2,2,0,0,1,.59.58,2.23,2.23,0,0,1,.29.81,3.06,3.06,0,0,1,0,1,2.85,2.85,0,0,1-.3,1,2.14,2.14,0,0,1-.54.68,1.62,1.62,0,0,1-.73.36A2.34,2.34,0,0,1,414.84,187.46Zm.16-1a.76.76,0,0,0,.62-.14,1,1,0,0,0,.32-.63l.14-.92a.92.92,0,0,0-.1-.69.73.73,0,0,0-.54-.33.78.78,0,0,0-.63.14,1,1,0,0,0-.31.63l-.14.92a.9.9,0,0,0,.1.69A.73.73,0,0,0,415,186.45Z"/><line class="cls-12" x1="330.96" y1="210.43" x2="315.87" y2="190.15"/><line class="cls-12" x1="395.36" y1="193.82" x2="397.16" y2="168.87"/><line class="cls-12" x1="420.83" y1="199.99" x2="430.43" y2="176.62"/><line class="cls-25" x1="126.07" y1="136.02" x2="364.65" y2="273.73"/><path class="cls-14" d="M341.8,221.58l0,0a1.17,1.17,0,0,1,0,.9,1.74,1.74,0,0,1-.74.86,2.23,2.23,0,0,1-.92.37,2.18,2.18,0,0,1-1,0,2.87,2.87,0,0,1-1-.52,4.15,4.15,0,0,1-.9-1,4,4,0,0,1-.59-1.24,2.77,2.77,0,0,1-.08-1.13,2.35,2.35,0,0,1,.38-1,3,3,0,0,1,.82-.79,2.6,2.6,0,0,1,1.37-.49,2.38,2.38,0,0,1,1.36.36L340,219a1.53,1.53,0,0,0-.69-.26,1.29,1.29,0,0,0-.83.25,1.36,1.36,0,0,0-.62.84,1.52,1.52,0,0,0,.32,1.14l.54.81a1.55,1.55,0,0,0,.92.73,1.35,1.35,0,0,0,1-.24,1.76,1.76,0,0,0,.35-.31,1.24,1.24,0,0,0,.23-.35,1,1,0,0,0,.05-.38.74.74,0,0,0-.14-.38l-.17-.25-.94.63-.61-.92,2-1.33,1.88,2.82-.93.61Z"/><path class="cls-14" d="M406.72,210.61a3,3,0,0,1-1.13-.81,3.21,3.21,0,0,1-.58-1l1.16-.45a2,2,0,0,0,1.11,1.25,1.09,1.09,0,0,0,.74.11.64.64,0,0,0,.42-.38.62.62,0,0,0,.05-.44.89.89,0,0,0-.42-.44l-.52-.32A2.25,2.25,0,0,1,406.5,207a1.66,1.66,0,0,1,.09-1.3,1.68,1.68,0,0,1,.45-.62,1.74,1.74,0,0,1,.64-.35,2,2,0,0,1,.81-.05,3,3,0,0,1,.93.27,3,3,0,0,1,1,.69,2.51,2.51,0,0,1,.56.94l-1.17.46a1.61,1.61,0,0,0-1-1.06,1.08,1.08,0,0,0-.66-.12.49.49,0,0,0-.38.3.59.59,0,0,0,0,.48,1.31,1.31,0,0,0,.43.41l.51.33a2.55,2.55,0,0,1,1,1.09,1.61,1.61,0,0,1-.09,1.31,1.85,1.85,0,0,1-.47.66,1.74,1.74,0,0,1-.67.39,1.93,1.93,0,0,1-.84.06A3.21,3.21,0,0,1,406.72,210.61Z"/></g></g></svg>