<svg id="Capa_1" data-name="Capa 1" xmlns="http://www.w3.org/2000/svg" viewBox="0 0 552 400"><defs><style>.cls-1{fill:none;stroke:#ebcfa7;stroke-linecap:round;stroke-miterlimit:10;stroke-width:2px;}.cls-2,.cls-3{fill:#ebcfa7;}.cls-3{opacity:0.2;}.cls-4{fill:#808285;}</style></defs><line class="cls-1" x1="265.73" y1="38.91" x2="265.73" y2="328.23"/><line class="cls-1" x1="109.96" y1="185.29" x2="420.93" y2="185.29"/><path class="cls-2" d="M113.72,195.76c0,.11.09.22.13.32.05-.11.09-.22.14-.32a2.92,2.92,0,0,1,.14-.31l2-3.68a.35.35,0,0,1,.08-.11.16.16,0,0,1,.08-.06l.11,0h1.08v6.65h-1.09v-4.56l0-.29-2,3.77a.59.59,0,0,1-.18.2.46.46,0,0,1-.26.07h-.17a.46.46,0,0,1-.26-.07.59.59,0,0,1-.18-.2l-2-3.78c0,.1,0,.2,0,.29a2.62,2.62,0,0,1,0,.27v4.3h-1.09v-6.65h1.07a.35.35,0,0,1,.11,0,.18.18,0,0,1,.09.06.24.24,0,0,1,.08.11l2,3.69C113.63,195.56,113.68,195.66,113.72,195.76Z"/><path class="cls-2" d="M124.92,191.57v1h-3v1.85h2.33v.95H122v1.88h3v1h-4.19v-6.65Z"/><path class="cls-2" d="M131.52,192.78a.33.33,0,0,1-.12.14.27.27,0,0,1-.16,0,.35.35,0,0,1-.2-.07l-.27-.16a2.57,2.57,0,0,0-.37-.16,1.75,1.75,0,0,0-.49-.07,1.49,1.49,0,0,0-.45.06.77.77,0,0,0-.32.18.63.63,0,0,0-.2.26.93.93,0,0,0-.06.34.59.59,0,0,0,.13.39,1,1,0,0,0,.34.26,2.89,2.89,0,0,0,.5.2l.56.19a5.48,5.48,0,0,1,.56.23,1.91,1.91,0,0,1,.49.33,1.46,1.46,0,0,1,.35.49,1.65,1.65,0,0,1,.13.7,2.41,2.41,0,0,1-.15.85,1.84,1.84,0,0,1-.45.68,2,2,0,0,1-.73.46,2.68,2.68,0,0,1-1,.17,3.26,3.26,0,0,1-.62-.06,2.88,2.88,0,0,1-.59-.18,3,3,0,0,1-.53-.28,2.51,2.51,0,0,1-.44-.35l.36-.6a.43.43,0,0,1,.12-.11.42.42,0,0,1,.16,0,.4.4,0,0,1,.25.1l.31.2a2.15,2.15,0,0,0,.43.21,1.49,1.49,0,0,0,.59.1,1.25,1.25,0,0,0,.82-.25.92.92,0,0,0,.29-.72.65.65,0,0,0-.13-.43,1.11,1.11,0,0,0-.35-.28,2.78,2.78,0,0,0-.49-.19l-.56-.17a3.83,3.83,0,0,1-.56-.22,1.72,1.72,0,0,1-.49-.34,1.45,1.45,0,0,1-.35-.51,2.09,2.09,0,0,1,0-1.48,1.83,1.83,0,0,1,.43-.61,2,2,0,0,1,.68-.42,2.43,2.43,0,0,1,.92-.17,3.2,3.2,0,0,1,1.09.19,2.37,2.37,0,0,1,.84.51Z"/><path class="cls-2" d="M138.35,192.78a.58.58,0,0,1-.12.14.27.27,0,0,1-.16,0,.4.4,0,0,1-.21-.07l-.27-.16a2,2,0,0,0-.36-.16,1.83,1.83,0,0,0-.5-.07,1.42,1.42,0,0,0-.44.06.88.88,0,0,0-.33.18.7.7,0,0,0-.19.26.94.94,0,0,0-.07.34.6.6,0,0,0,.14.39,1,1,0,0,0,.34.26,3.13,3.13,0,0,0,.49.2l.57.19a5.48,5.48,0,0,1,.56.23,2.11,2.11,0,0,1,.49.33,1.46,1.46,0,0,1,.35.49,1.65,1.65,0,0,1,.13.7,2.41,2.41,0,0,1-.15.85,2.12,2.12,0,0,1-.45.68,2,2,0,0,1-.73.46,2.68,2.68,0,0,1-1,.17,3.18,3.18,0,0,1-.62-.06,2.71,2.71,0,0,1-.59-.18,3,3,0,0,1-.53-.28,2.19,2.19,0,0,1-.44-.35l.36-.6a.43.43,0,0,1,.12-.11.42.42,0,0,1,.16,0,.42.42,0,0,1,.25.1l.31.2a1.91,1.91,0,0,0,.43.21,1.49,1.49,0,0,0,.59.1,1.25,1.25,0,0,0,.82-.25.92.92,0,0,0,.29-.72.71.71,0,0,0-.13-.43,1.23,1.23,0,0,0-.35-.28,2.78,2.78,0,0,0-.49-.19l-.56-.17a3.83,3.83,0,0,1-.56-.22,1.92,1.92,0,0,1-.5-.34,1.43,1.43,0,0,1-.34-.51,1.94,1.94,0,0,1-.13-.77,1.76,1.76,0,0,1,.14-.71,2,2,0,0,1,.42-.61,2.16,2.16,0,0,1,.69-.42,2.4,2.4,0,0,1,.92-.17,3.14,3.14,0,0,1,1.08.19,2.33,2.33,0,0,1,.85.51Z"/><path class="cls-2" d="M144.6,195.63v2.59h-1.24v-2.59l-2.42-4.06H142a.33.33,0,0,1,.25.08.49.49,0,0,1,.16.19l1.22,2.22c.07.14.13.26.18.38s.1.23.15.35c0-.12.08-.24.13-.36s.11-.24.18-.37l1.21-2.22a.67.67,0,0,1,.16-.18.35.35,0,0,1,.25-.09H147Z"/><path class="cls-2" d="M346.88,195.91c0,.11.09.22.13.32a3.05,3.05,0,0,1,.13-.32l.15-.31,2-3.68a.35.35,0,0,1,.07-.11.24.24,0,0,1,.09-.06.35.35,0,0,1,.11,0h1.07v6.65h-1.09v-4.3c0-.08,0-.16,0-.26a2.83,2.83,0,0,1,0-.29l-2,3.77a.47.47,0,0,1-.44.27h-.16a.47.47,0,0,1-.44-.27l-2-3.78,0,.29v4.57h-1.09v-6.65h1.08a.35.35,0,0,1,.11,0,.24.24,0,0,1,.09.06.35.35,0,0,1,.08.11l2,3.69Z"/><path class="cls-2" d="M358.08,191.72v1h-2.95v1.85h2.32v.95h-2.32v1.88h2.95v1h-4.2v-6.65Z"/><path class="cls-2" d="M365.82,191.72v1h-2v5.64h-1.23v-5.64h-2v-1Z"/><path class="cls-2" d="M374.08,198.37h-1.25v-2.91h-3.12v2.91h-1.24v-6.65h1.24v2.86h3.12v-2.86h1.25Z"/><path class="cls-2" d="M383.73,195a3.58,3.58,0,0,1-.25,1.36,3.21,3.21,0,0,1-.68,1.07,3,3,0,0,1-1.06.71,3.61,3.61,0,0,1-1.38.26,3.56,3.56,0,0,1-1.37-.26,3,3,0,0,1-1.07-.71,3.08,3.08,0,0,1-.69-1.07A3.78,3.78,0,0,1,377,195a3.68,3.68,0,0,1,.24-1.35,3,3,0,0,1,.69-1.08,3.18,3.18,0,0,1,1.07-.71,3.56,3.56,0,0,1,1.37-.26,3.61,3.61,0,0,1,1.38.26,3.07,3.07,0,0,1,1.74,1.79A3.49,3.49,0,0,1,383.73,195Zm-1.27,0a3,3,0,0,0-.15-1,2.05,2.05,0,0,0-.41-.74,1.83,1.83,0,0,0-.66-.46,2.23,2.23,0,0,0-.88-.16,2.26,2.26,0,0,0-.88.16,1.83,1.83,0,0,0-.66.46,2.23,2.23,0,0,0-.42.74,3,3,0,0,0-.15,1,3,3,0,0,0,.15,1,2.14,2.14,0,0,0,.42.74,1.83,1.83,0,0,0,.66.46,2.26,2.26,0,0,0,.88.16,2.23,2.23,0,0,0,.88-.16,1.83,1.83,0,0,0,.66-.46,2,2,0,0,0,.41-.74A3,3,0,0,0,382.46,195Z"/><path class="cls-2" d="M392.54,195a3.59,3.59,0,0,1-.24,1.34,3.35,3.35,0,0,1-.69,1.06,3.07,3.07,0,0,1-1.06.68,3.81,3.81,0,0,1-1.38.25h-2.54v-6.65h2.54a3.81,3.81,0,0,1,1.38.24,3.24,3.24,0,0,1,1.06.69,3.2,3.2,0,0,1,.69,1A3.63,3.63,0,0,1,392.54,195Zm-1.27,0a3.31,3.31,0,0,0-.14-1,2.23,2.23,0,0,0-.42-.74,1.83,1.83,0,0,0-.66-.46,2.42,2.42,0,0,0-.88-.16h-1.29v4.68h1.29a2.23,2.23,0,0,0,.88-.16,1.83,1.83,0,0,0,.66-.46,2.14,2.14,0,0,0,.42-.74A3.26,3.26,0,0,0,391.27,195Z"/><path class="cls-2" d="M396.77,198.37h-1.24v-6.65h1.24Z"/><path class="cls-2" d="M404.73,196.8a.22.22,0,0,1,.18.08l.48.53a2.74,2.74,0,0,1-1,.76,3.39,3.39,0,0,1-1.42.27,3.32,3.32,0,0,1-1.33-.25,3,3,0,0,1-1-.71,3.11,3.11,0,0,1-.64-1.07,4,4,0,0,1-.22-1.37,3.75,3.75,0,0,1,.24-1.37,3.16,3.16,0,0,1,.7-1.07,3.05,3.05,0,0,1,1.08-.7,3.66,3.66,0,0,1,1.39-.26,3.23,3.23,0,0,1,1.29.24,3,3,0,0,1,.95.63l-.41.57a.47.47,0,0,1-.1.1.25.25,0,0,1-.16,0,.37.37,0,0,1-.21-.08,2.27,2.27,0,0,0-.28-.18,3.73,3.73,0,0,0-.43-.18,2.37,2.37,0,0,0-.66-.08,2.2,2.2,0,0,0-.86.16,1.81,1.81,0,0,0-.68.47,2,2,0,0,0-.44.74,2.7,2.7,0,0,0-.16,1,2.8,2.8,0,0,0,.16,1,2.15,2.15,0,0,0,.43.74,1.81,1.81,0,0,0,.64.45,1.89,1.89,0,0,0,.79.16,3.23,3.23,0,0,0,.46,0,1.43,1.43,0,0,0,.37-.08,1.26,1.26,0,0,0,.33-.16,2.74,2.74,0,0,0,.31-.23l.09-.07Z"/><path class="cls-2" d="M414.11,198.37h-.95a.46.46,0,0,1-.27-.08.55.55,0,0,1-.15-.2l-.49-1.36h-2.76l-.49,1.36a.44.44,0,0,1-.15.19.39.39,0,0,1-.26.09h-1l2.61-6.65h1.26Zm-4.3-2.51h2.12l-.81-2.22a3.24,3.24,0,0,1-.12-.34c0-.14-.09-.28-.13-.44,0,.16-.09.3-.13.44s-.08.25-.12.35Z"/><path class="cls-2" d="M417.94,197.35h2.66v1h-3.9v-6.65h1.24Z"/><path class="cls-2" d="M280.62,326.61v1.24H274v-1.24Z"/><path class="cls-2" d="M274,322.47a.3.3,0,0,1,0-.1l.06-.08.11-.1,4.44-3.49a1.63,1.63,0,0,1-.31,0H274v-1.09h6.65v.64a.57.57,0,0,1-.05.24.54.54,0,0,1-.16.19L276,322.19l.29,0h4.35v1.09H274v-.65A.57.57,0,0,1,274,322.47Z"/><path class="cls-2" d="M277.29,308.47a3.68,3.68,0,0,1,1.35.24,3,3,0,0,1,1.73,1.75,3.56,3.56,0,0,1,.25,1.37v2.54H274v-2.54a3.56,3.56,0,0,1,.25-1.37,3.07,3.07,0,0,1,.68-1.06,2.91,2.91,0,0,1,1.05-.69A3.67,3.67,0,0,1,277.29,308.47Zm0,1.26a3,3,0,0,0-1,.15,2.09,2.09,0,0,0-.73.42,1.85,1.85,0,0,0-.47.66,2.41,2.41,0,0,0-.16.87v1.3h4.68v-1.3a2.21,2.21,0,0,0-.16-.87,1.71,1.71,0,0,0-.46-.66,2.14,2.14,0,0,0-.74-.42A2.93,2.93,0,0,0,277.29,309.73Z"/><path class="cls-2" d="M274,301.36h1v2.95h1.85V302h.95v2.32h1.88v-2.95h1v4.2H274Z"/><path class="cls-2" d="M278.28,297.18h2.34v1.23H274v-2.16a3.65,3.65,0,0,1,.16-1.16,2.26,2.26,0,0,1,.43-.8,1.74,1.74,0,0,1,.67-.47,2.39,2.39,0,0,1,.86-.15,2.26,2.26,0,0,1,.88.16,2,2,0,0,1,.7.48,2.43,2.43,0,0,1,.45.81,3.8,3.8,0,0,1,.16,1.13Zm-1,0v-.93a2,2,0,0,0-.08-.59,1.09,1.09,0,0,0-.25-.42.9.9,0,0,0-.38-.25,1.37,1.37,0,0,0-.51-.08,1.21,1.21,0,0,0-.48.08.87.87,0,0,0-.37.25,1.06,1.06,0,0,0-.23.42,1.72,1.72,0,0,0-.08.59v.93Z"/><path class="cls-2" d="M274,286.74h1v2.95h1.85v-2.32h.95v2.32h1.88v-2.95h1v4.2H274Z"/><path class="cls-2" d="M274,283a.3.3,0,0,1,0-.1l.06-.08.11-.1,4.44-3.49c-.1,0-.21,0-.31,0H274v-1.09h6.65v.64a.57.57,0,0,1-.05.24.54.54,0,0,1-.16.19L276,282.75l.29,0h4.35v1.09H274v-.65A.57.57,0,0,1,274,283Z"/><path class="cls-2" d="M277.29,269a3.68,3.68,0,0,1,1.35.24,3,3,0,0,1,1.73,1.75,3.56,3.56,0,0,1,.25,1.37v2.54H274v-2.54a3.56,3.56,0,0,1,.25-1.37,3.07,3.07,0,0,1,.68-1.06,2.91,2.91,0,0,1,1.05-.69A3.67,3.67,0,0,1,277.29,269Zm0,1.26a3,3,0,0,0-1,.15,2.09,2.09,0,0,0-.73.42,1.85,1.85,0,0,0-.47.66,2.41,2.41,0,0,0-.16.87v1.3h4.68v-1.3a2.21,2.21,0,0,0-.16-.87,1.71,1.71,0,0,0-.46-.66,2.14,2.14,0,0,0-.74-.42A2.93,2.93,0,0,0,277.29,270.29Z"/><path class="cls-2" d="M274,261.92h1v2.95h1.85v-2.32h.95v2.32h1.88v-2.95h1v4.2H274Z"/><path class="cls-2" d="M274,258.21a.36.36,0,0,1,0-.1l.06-.08a.53.53,0,0,1,.11-.09l4.44-3.49-.31,0H274v-1.09h6.65V254a.54.54,0,0,1-.05.24.47.47,0,0,1-.16.19L276,257.94l.29,0h4.35V259H274v-.65A.57.57,0,0,1,274,258.21Z"/><path class="cls-2" d="M274,245.51h1v2h5.63v1.23H275v2h-1Z"/><path class="cls-2" d="M277.29,103.32a3.68,3.68,0,0,1,1.35.25,3.22,3.22,0,0,1,1.05.68,3.11,3.11,0,0,1,.68,1.07,3.56,3.56,0,0,1,.25,1.37v2.54H274v-2.54a3.56,3.56,0,0,1,.25-1.37,3.11,3.11,0,0,1,.68-1.07,3,3,0,0,1,1.05-.68A3.67,3.67,0,0,1,277.29,103.32Zm0,1.27a3,3,0,0,0-1,.15,1.82,1.82,0,0,0-.73.42,1.9,1.9,0,0,0-.47.65,2.42,2.42,0,0,0-.16.88V108h4.68v-1.29a2.23,2.23,0,0,0-.16-.88,1.75,1.75,0,0,0-.46-.65,1.86,1.86,0,0,0-.74-.42A2.93,2.93,0,0,0,277.29,104.59Z"/><path class="cls-2" d="M274,96.22h1v3h1.85V96.85h.95v2.32h1.88v-3h1v4.19H274Z"/><path class="cls-2" d="M278.28,92h2.34v1.24H274V91.11a3.65,3.65,0,0,1,.16-1.16,2.26,2.26,0,0,1,.43-.8,1.74,1.74,0,0,1,.67-.47,2.39,2.39,0,0,1,.86-.15,2.26,2.26,0,0,1,.88.16,1.76,1.76,0,0,1,.7.48,2.29,2.29,0,0,1,.45.8,3.87,3.87,0,0,1,.16,1.14Zm-1,0v-.92a2.13,2.13,0,0,0-.08-.6,1.09,1.09,0,0,0-.25-.42.88.88,0,0,0-.38-.24,1.36,1.36,0,0,0-.51-.09,1.21,1.21,0,0,0-.48.09.85.85,0,0,0-.37.24,1.06,1.06,0,0,0-.23.42,1.82,1.82,0,0,0-.08.6V92Z"/><path class="cls-2" d="M274,81.6h1v3h1.85V82.22h.95v2.33h1.88v-3h1v4.19H274Z"/><path class="cls-2" d="M274,77.89a.3.3,0,0,1,0-.1l.06-.09a.53.53,0,0,1,.11-.09l4.44-3.49-.31,0H274V73.06h6.65v.64a.62.62,0,0,1-.05.25.52.52,0,0,1-.16.18L276,77.61l.29,0h4.35v1.09H274V78A.49.49,0,0,1,274,77.89Z"/><path class="cls-2" d="M277.29,63.88a3.68,3.68,0,0,1,1.35.25,3.22,3.22,0,0,1,1.05.68,3.16,3.16,0,0,1,.68,1.06,3.64,3.64,0,0,1,.25,1.38v2.54H274V67.25a3.64,3.64,0,0,1,.25-1.38,3.16,3.16,0,0,1,.68-1.06,3,3,0,0,1,1.05-.68A3.67,3.67,0,0,1,277.29,63.88Zm0,1.27a3,3,0,0,0-1,.15,1.89,1.89,0,0,0-1.2,1.07,2.42,2.42,0,0,0-.16.88v1.29h4.68V67.25a2.23,2.23,0,0,0-.16-.88,1.79,1.79,0,0,0-.46-.66,2,2,0,0,0-.74-.41A2.93,2.93,0,0,0,277.29,65.15Z"/><path class="cls-2" d="M274,56.78h1v2.95h1.85V57.41h.95v2.32h1.88V56.78h1V61H274Z"/><path class="cls-2" d="M274,53.07a.3.3,0,0,1,0-.1l.06-.09.11-.09,4.44-3.49c-.1,0-.21,0-.31,0H274V48.25h6.65v.64a.6.6,0,0,1-.05.24.54.54,0,0,1-.16.19L276,52.79l.29,0h4.35v1.09H274v-.65A.57.57,0,0,1,274,53.07Z"/><path class="cls-2" d="M274,40.36h1v2h5.63V43.6H275v2h-1Z"/><circle class="cls-3" cx="186.07" cy="119.91" r="27.63"/><circle class="cls-2" cx="186.3" cy="120.15" r="10.44"/><circle class="cls-3" cx="345.86" cy="125.77" r="27.63"/><path class="cls-2" d="M239.7,354.51h.66a1.84,1.84,0,0,0,.67-.11,1.18,1.18,0,0,0,.45-.36l4.19-5.3a1.44,1.44,0,0,1,.55-.46,1.69,1.69,0,0,1,.73-.14h2.43l-5.11,6.31a3.83,3.83,0,0,1-.46.5,2.3,2.3,0,0,1-.47.32,2.24,2.24,0,0,1,.62.36,2.83,2.83,0,0,1,.54.59l5.27,7.11h-2.5a1.64,1.64,0,0,1-.75-.14,1.27,1.27,0,0,1-.41-.42l-4.3-5.61a1.23,1.23,0,0,0-.47-.39,1.81,1.81,0,0,0-.74-.12h-.9v6.68h-2.82v-15.2h2.82Z"/><path class="cls-2" d="M258.45,363.33h-2.83V348.14h2.83Z"/><path class="cls-2" d="M279.29,355.74a8.21,8.21,0,0,1-.56,3.06,7.16,7.16,0,0,1-1.56,2.41,7,7,0,0,1-2.43,1.56,8.52,8.52,0,0,1-3.14.56h-5.79V348.14h5.79a8.32,8.32,0,0,1,3.14.57,6.84,6.84,0,0,1,4,4A8.22,8.22,0,0,1,279.29,355.74Zm-2.89,0a7.14,7.14,0,0,0-.33-2.25,4.93,4.93,0,0,0-1-1.68,4.07,4.07,0,0,0-1.51-1.05,5.06,5.06,0,0,0-2-.37h-3v10.69h3a5.06,5.06,0,0,0,2-.37,4,4,0,0,0,1.51-1,4.93,4.93,0,0,0,1-1.68A7.08,7.08,0,0,0,276.4,355.74Z"/><path class="cls-2" d="M293.56,350.91a.8.8,0,0,1-.27.32.69.69,0,0,1-.36.09.88.88,0,0,1-.47-.16l-.62-.36a5.57,5.57,0,0,0-.84-.36,3.46,3.46,0,0,0-1.13-.16,3.15,3.15,0,0,0-1,.14,2,2,0,0,0-.73.39,1.64,1.64,0,0,0-.45.6,2,2,0,0,0-.15.78,1.35,1.35,0,0,0,.3.89,2.48,2.48,0,0,0,.79.61,7,7,0,0,0,1.13.45l1.28.42c.44.16.87.33,1.29.53a4.34,4.34,0,0,1,1.12.76,3.37,3.37,0,0,1,.8,1.11,3.92,3.92,0,0,1,.3,1.61,5.14,5.14,0,0,1-.36,1.93,4.21,4.21,0,0,1-1,1.56,4.67,4.67,0,0,1-1.65,1.05,6,6,0,0,1-2.24.38,6.77,6.77,0,0,1-1.42-.14,7.52,7.52,0,0,1-1.35-.4,7.68,7.68,0,0,1-1.21-.63,5.84,5.84,0,0,1-1-.82l.82-1.35a1.07,1.07,0,0,1,.27-.25.66.66,0,0,1,.37-.1,1,1,0,0,1,.56.21q.31.23.72.48a5,5,0,0,0,1,.48,3.81,3.81,0,0,0,1.35.22,2.79,2.79,0,0,0,1.87-.58,2.05,2.05,0,0,0,.66-1.64,1.53,1.53,0,0,0-.3-1,2.39,2.39,0,0,0-.79-.63,6.19,6.19,0,0,0-1.13-.44l-1.28-.39a10.59,10.59,0,0,1-1.28-.5,4.14,4.14,0,0,1-1.12-.77,3.31,3.31,0,0,1-.79-1.18,4.47,4.47,0,0,1-.3-1.75,4.11,4.11,0,0,1,.33-1.61,4.17,4.17,0,0,1,1-1.4,4.93,4.93,0,0,1,1.56-1,5.8,5.8,0,0,1,2.11-.36,7.09,7.09,0,0,1,2.48.42,5.58,5.58,0,0,1,1.93,1.17Z"/><circle class="cls-2" cx="346.02" cy="125.62" r="10.44"/><path class="cls-4" d="M176.18,153.14v1.18h-3.53v2.36h3v1.18h-3v3.24h-1.49v-8Z"/><path class="cls-4" d="M178.81,153.81a.72.72,0,0,1-.07.33,1,1,0,0,1-.19.27.75.75,0,0,1-.28.18.8.8,0,0,1-.34.07.72.72,0,0,1-.33-.07.75.75,0,0,1-.28-.18,1.27,1.27,0,0,1-.18-.27.72.72,0,0,1-.07-.33.77.77,0,0,1,.07-.34.78.78,0,0,1,.46-.46.72.72,0,0,1,.33-.07.8.8,0,0,1,.34.07,1.12,1.12,0,0,1,.28.18.92.92,0,0,1,.19.28A.77.77,0,0,1,178.81,153.81Zm-.2,1.64v5.65h-1.36v-5.65Z"/><path class="cls-4" d="M181.44,152.92v8.18h-1.36v-8.18Z"/><path class="cls-4" d="M184.48,153.81a.88.88,0,0,1-.07.33,1,1,0,0,1-.19.27.75.75,0,0,1-.28.18.8.8,0,0,1-.34.07.72.72,0,0,1-.33-.07.75.75,0,0,1-.28-.18,1.27,1.27,0,0,1-.18-.27.72.72,0,0,1-.07-.33.77.77,0,0,1,.07-.34.78.78,0,0,1,.46-.46.72.72,0,0,1,.33-.07.8.8,0,0,1,.34.07,1.12,1.12,0,0,1,.28.18.92.92,0,0,1,.19.28A.94.94,0,0,1,184.48,153.81Zm-.2,1.64v5.65h-1.36v-5.65Z"/><path class="cls-4" d="M185.71,162.94v-7.49h.83a.35.35,0,0,1,.23.07.29.29,0,0,1,.12.18l.11.52a2.92,2.92,0,0,1,.78-.63,2.16,2.16,0,0,1,1-.24,1.79,1.79,0,0,1,.84.19,1.87,1.87,0,0,1,.66.56,2.6,2.6,0,0,1,.43.9,4.6,4.6,0,0,1,.15,1.23,3.68,3.68,0,0,1-.17,1.17,2.88,2.88,0,0,1-.48.94,2.32,2.32,0,0,1-.77.62,2.19,2.19,0,0,1-1,.22,1.92,1.92,0,0,1-1.41-.55v2.31Zm2.64-6.52a1.37,1.37,0,0,0-.72.18,2.17,2.17,0,0,0-.56.5v2.53a1.23,1.23,0,0,0,.5.4,1.48,1.48,0,0,0,.59.12,1.31,1.31,0,0,0,.56-.12,1.08,1.08,0,0,0,.42-.35,1.66,1.66,0,0,0,.27-.6,3.52,3.52,0,0,0,.09-.85,4,4,0,0,0-.08-.84,1.6,1.6,0,0,0-.23-.56,1,1,0,0,0-.36-.31A1.21,1.21,0,0,0,188.35,156.42Z"/><path class="cls-4" d="M192,162.94v-7.49h.83a.32.32,0,0,1,.22.07.27.27,0,0,1,.13.18l.11.52a2.64,2.64,0,0,1,.78-.63,2.13,2.13,0,0,1,1-.24,1.82,1.82,0,0,1,.84.19,2,2,0,0,1,.66.56,2.6,2.6,0,0,1,.43.9,4.6,4.6,0,0,1,.15,1.23,4,4,0,0,1-.17,1.17,2.9,2.9,0,0,1-.49.94,2.28,2.28,0,0,1-.76.62,2.19,2.19,0,0,1-1,.22,2,2,0,0,1-.82-.15,1.81,1.81,0,0,1-.59-.4v2.31Zm2.64-6.52a1.37,1.37,0,0,0-.72.18,2.17,2.17,0,0,0-.56.5v2.53a1.23,1.23,0,0,0,.5.4,1.45,1.45,0,0,0,.59.12A1.23,1.23,0,0,0,195,160a1.11,1.11,0,0,0,.43-.35,1.84,1.84,0,0,0,.26-.6,3.05,3.05,0,0,0,.1-.85,4,4,0,0,0-.08-.84,1.82,1.82,0,0,0-.23-.56,1,1,0,0,0-.36-.31A1.21,1.21,0,0,0,194.6,156.42Z"/><path class="cls-4" d="M200.65,155.37a3,3,0,0,1,1.14.2,2.45,2.45,0,0,1,1.44,1.49,3.53,3.53,0,0,1,.2,1.21,3.57,3.57,0,0,1-.2,1.21,2.63,2.63,0,0,1-.56.91,2.44,2.44,0,0,1-.88.59,3.38,3.38,0,0,1-2.29,0,2.48,2.48,0,0,1-.89-.59,2.63,2.63,0,0,1-.56-.91,3.34,3.34,0,0,1-.2-1.21,3.3,3.3,0,0,1,.2-1.21,2.54,2.54,0,0,1,.56-.91,2.59,2.59,0,0,1,.89-.58A3,3,0,0,1,200.65,155.37Zm0,4.76a1.19,1.19,0,0,0,1-.47,2.4,2.4,0,0,0,.34-1.38,2.47,2.47,0,0,0-.34-1.4,1.4,1.4,0,0,0-2.1,0,3,3,0,0,0,0,2.77A1.21,1.21,0,0,0,200.65,160.13Z"/><path class="cls-4" d="M333.69,161.3v2.8h-1.48v-8h2.59a4.72,4.72,0,0,1,1.39.19,2.94,2.94,0,0,1,1,.52,2.15,2.15,0,0,1,.56.81,3,3,0,0,1,0,2.08,2.19,2.19,0,0,1-.58.83,2.79,2.79,0,0,1-1,.54,4.6,4.6,0,0,1-1.36.19Zm0-1.16h1.11a2.13,2.13,0,0,0,.71-.1,1.22,1.22,0,0,0,.5-.29,1.08,1.08,0,0,0,.3-.46,1.7,1.7,0,0,0,.1-.61,1.57,1.57,0,0,0-.1-.58,1,1,0,0,0-.3-.44,1.33,1.33,0,0,0-.5-.28,2.45,2.45,0,0,0-.71-.09h-1.11Z"/><path class="cls-4" d="M343.24,164.1h-.61a.61.61,0,0,1-.3-.06.38.38,0,0,1-.17-.23l-.12-.41a3.13,3.13,0,0,1-.42.34,2.67,2.67,0,0,1-.43.25,2.31,2.31,0,0,1-1,.2,2.28,2.28,0,0,1-.66-.1,1.38,1.38,0,0,1-.52-.29,1.27,1.27,0,0,1-.34-.48,1.71,1.71,0,0,1-.12-.67,1.34,1.34,0,0,1,.16-.63,1.58,1.58,0,0,1,.56-.56,3.51,3.51,0,0,1,1-.42,6.67,6.67,0,0,1,1.61-.17v-.33a1.24,1.24,0,0,0-.24-.84.84.84,0,0,0-.69-.28,1.73,1.73,0,0,0-.55.08,2,2,0,0,0-.38.17l-.3.18a.64.64,0,0,1-.31.07.35.35,0,0,1-.23-.07.64.64,0,0,1-.16-.17l-.25-.44a3.37,3.37,0,0,1,2.35-.89,2.23,2.23,0,0,1,.88.16,1.93,1.93,0,0,1,.66.45,2,2,0,0,1,.41.69,2.75,2.75,0,0,1,.14.88Zm-2.64-.85a1.48,1.48,0,0,0,.38,0,1.35,1.35,0,0,0,.34-.11,1.66,1.66,0,0,0,.3-.19,1.75,1.75,0,0,0,.29-.26v-1a5.5,5.5,0,0,0-1,.08,2.58,2.58,0,0,0-.64.19.81.81,0,0,0-.34.27.7.7,0,0,0,.11.86A.92.92,0,0,0,340.6,163.25Z"/><path class="cls-4" d="M347,158.37a3,3,0,0,1,1.15.2,2.65,2.65,0,0,1,.88.58,2.69,2.69,0,0,1,.56.91,3.53,3.53,0,0,1,.19,1.21,3.57,3.57,0,0,1-.19,1.21,2.79,2.79,0,0,1-.56.91,2.53,2.53,0,0,1-.88.59,3.23,3.23,0,0,1-1.15.2,3.27,3.27,0,0,1-1.15-.2,2.44,2.44,0,0,1-.88-.59,2.81,2.81,0,0,1-.57-.91,3.57,3.57,0,0,1-.2-1.21,3.53,3.53,0,0,1,.2-1.21,2.71,2.71,0,0,1,.57-.91,2.55,2.55,0,0,1,.88-.58A3.05,3.05,0,0,1,347,158.37Zm0,4.76a1.17,1.17,0,0,0,1-.47,2.32,2.32,0,0,0,.34-1.38,2.39,2.39,0,0,0-.34-1.4,1.39,1.39,0,0,0-2.09,0,2.92,2.92,0,0,0,0,2.77A1.18,1.18,0,0,0,347,163.13Z"/><path class="cls-4" d="M352.24,155.92v8.18h-1.36v-8.18Z"/><path class="cls-4" d="M358.05,164.1h-.61a.61.61,0,0,1-.3-.06.38.38,0,0,1-.17-.23l-.12-.41a3.13,3.13,0,0,1-.42.34,2.67,2.67,0,0,1-.43.25,2.31,2.31,0,0,1-1,.2,2.28,2.28,0,0,1-.66-.1,1.46,1.46,0,0,1-.52-.29,1.27,1.27,0,0,1-.34-.48,1.71,1.71,0,0,1-.12-.67,1.25,1.25,0,0,1,.17-.63,1.47,1.47,0,0,1,.55-.56,3.51,3.51,0,0,1,1-.42,6.67,6.67,0,0,1,1.61-.17v-.33a1.24,1.24,0,0,0-.23-.84.87.87,0,0,0-.7-.28,1.73,1.73,0,0,0-.55.08,2.27,2.27,0,0,0-.38.17l-.3.18a.6.6,0,0,1-.3.07.38.38,0,0,1-.24-.07.64.64,0,0,1-.16-.17l-.25-.44a3.37,3.37,0,0,1,2.35-.89,2.23,2.23,0,0,1,.88.16,1.93,1.93,0,0,1,.66.45,2,2,0,0,1,.41.69,2.75,2.75,0,0,1,.14.88Zm-2.64-.85a1.61,1.61,0,0,0,.39,0,1.42,1.42,0,0,0,.33-.11,1.66,1.66,0,0,0,.3-.19,1.75,1.75,0,0,0,.29-.26v-1a5.5,5.5,0,0,0-1,.08,2.58,2.58,0,0,0-.64.19.88.88,0,0,0-.34.27.7.7,0,0,0,.11.86A.92.92,0,0,0,355.41,163.25Z"/></svg>