<svg id="Capa_1" data-name="Capa 1" xmlns="http://www.w3.org/2000/svg" viewBox="0 0 552 400"><defs><style>.cls-1,.cls-3{fill:#6586bf;}.cls-2{fill:none;stroke:#6586bf;stroke-linecap:round;stroke-miterlimit:10;stroke-width:2px;}.cls-3{opacity:0.2;}.cls-4{fill:#808285;}</style></defs><path class="cls-1" d="M215.08,358.9V364h-2.7V349.49h4.74a8.22,8.22,0,0,1,2.52.34,5.1,5.1,0,0,1,1.76.95,3.75,3.75,0,0,1,1,1.47,5.14,5.14,0,0,1,.33,1.87,5.22,5.22,0,0,1-.35,1.93,4,4,0,0,1-1.06,1.52,4.78,4.78,0,0,1-1.75,1,7.71,7.71,0,0,1-2.47.35Zm0-2.11h2a4.19,4.19,0,0,0,1.29-.18,2.6,2.6,0,0,0,.92-.54,2.17,2.17,0,0,0,.54-.84,3.23,3.23,0,0,0,.18-1.11,3,3,0,0,0-.18-1.06,2.1,2.1,0,0,0-.54-.8,2.56,2.56,0,0,0-.92-.51,4.53,4.53,0,0,0-1.29-.17h-2Z"/><path class="cls-1" d="M240.26,364h-2.09a.88.88,0,0,1-.57-.18,1,1,0,0,1-.33-.44l-1.08-3h-6l-1.09,3a1,1,0,0,1-.31.43.94.94,0,0,1-.58.19h-2.1l5.7-14.53h2.77Zm-9.4-5.49h4.63l-1.77-4.83c-.08-.22-.17-.47-.26-.76s-.2-.61-.29-.95c-.09.34-.18.66-.28.95s-.17.56-.26.78Z"/><path class="cls-1" d="M248.4,358.34V364h-2.7V349.49h4.43a9.36,9.36,0,0,1,2.54.3,5.06,5.06,0,0,1,1.74.86,3.36,3.36,0,0,1,1,1.32,4.74,4.74,0,0,1,.1,3.08,4,4,0,0,1-.63,1.19,4.05,4.05,0,0,1-1,.93,5.19,5.19,0,0,1-1.36.65,2.66,2.66,0,0,1,.88.83L257,364h-2.43a1.21,1.21,0,0,1-.6-.14,1.36,1.36,0,0,1-.42-.41l-3.05-4.65a1.1,1.1,0,0,0-.38-.37,1.38,1.38,0,0,0-.61-.11Zm0-1.94h1.69a4.15,4.15,0,0,0,1.33-.19,2.47,2.47,0,0,0,.93-.53,2,2,0,0,0,.55-.8,2.71,2.71,0,0,0,.18-1,2.06,2.06,0,0,0-.73-1.7,3.5,3.5,0,0,0-2.22-.59H248.4Z"/><path class="cls-1" d="M271.69,349.49v2.15h-6.44v4h5.08v2.08h-5.08v4.11h6.44V364h-9.16V349.49Z"/><path class="cls-1" d="M279.51,349.5a.71.71,0,0,1,.22.06,1.62,1.62,0,0,1,.19.13l.2.23,7.62,9.72c0-.24,0-.47-.05-.69s0-.44,0-.63v-8.83h2.38V364h-1.39a1.37,1.37,0,0,1-.54-.1,1.25,1.25,0,0,1-.41-.37l-7.59-9.67c0,.21,0,.43,0,.64s0,.4,0,.57V364h-2.39V349.49h1.72Z"/><path class="cls-1" d="M307,349.49v2.22h-4.37V364h-2.71V351.71h-4.39v-2.22Z"/><path class="cls-1" d="M320.39,352.13a.75.75,0,0,1-.26.31.65.65,0,0,1-.35.09.92.92,0,0,1-.45-.15l-.59-.35a5,5,0,0,0-.8-.35,3.43,3.43,0,0,0-1.08-.15,3.19,3.19,0,0,0-1,.13,2,2,0,0,0-.7.38,1.45,1.45,0,0,0-.43.58,2,2,0,0,0-.14.74,1.29,1.29,0,0,0,.29.85,2.35,2.35,0,0,0,.75.58,6.75,6.75,0,0,0,1.08.43l1.23.41a13.19,13.19,0,0,1,1.23.5,4.77,4.77,0,0,1,1.08.73,3.32,3.32,0,0,1,.75,1.07,3.54,3.54,0,0,1,.29,1.53,4.91,4.91,0,0,1-.34,1.85,4.29,4.29,0,0,1-1,1.5,4.64,4.64,0,0,1-1.58,1,6,6,0,0,1-2.14.37,6.92,6.92,0,0,1-1.37-.14,7.7,7.7,0,0,1-1.29-.38,6.73,6.73,0,0,1-1.16-.61,6.06,6.06,0,0,1-1-.78l.79-1.3a1,1,0,0,1,.26-.23.62.62,0,0,1,.35-.1.92.92,0,0,1,.54.21l.69.45a5.49,5.49,0,0,0,.94.46,3.52,3.52,0,0,0,1.29.21,2.7,2.7,0,0,0,1.79-.55,2,2,0,0,0,.63-1.57,1.47,1.47,0,0,0-.29-.94,2.35,2.35,0,0,0-.76-.61,5.55,5.55,0,0,0-1.07-.41l-1.23-.37a11.5,11.5,0,0,1-1.22-.49,4,4,0,0,1-1.08-.73,3.4,3.4,0,0,1-.76-1.13,4.32,4.32,0,0,1-.28-1.67,4,4,0,0,1,1.24-2.89,4.39,4.39,0,0,1,1.49-.93,5.32,5.32,0,0,1,2-.35,6.7,6.7,0,0,1,2.37.4,5.46,5.46,0,0,1,1.85,1.12Z"/><line class="cls-2" x1="111.85" y1="185.78" x2="422.46" y2="185.78"/><line class="cls-2" x1="266.72" y1="39.11" x2="266.72" y2="328.1"/><path class="cls-1" d="M118.34,196.26a3.72,3.72,0,0,1-.24,1.35,3.28,3.28,0,0,1-.69,1.08,3.14,3.14,0,0,1-1.06.71,3.91,3.91,0,0,1-2.75,0,3.18,3.18,0,0,1-1.07-.71,3.44,3.44,0,0,1-.69-1.08,3.72,3.72,0,0,1-.24-1.35,3.78,3.78,0,0,1,.24-1.36,3.56,3.56,0,0,1,.69-1.08,3.18,3.18,0,0,1,1.07-.71,3.56,3.56,0,0,1,1.37-.25,3.4,3.4,0,0,1,1.38.26,3,3,0,0,1,1.06.71,3.23,3.23,0,0,1,.69,1.07A3.78,3.78,0,0,1,118.34,196.26Zm-1.27,0a3.33,3.33,0,0,0-.14-1,2.18,2.18,0,0,0-.42-.73,1.74,1.74,0,0,0-.66-.47,2.47,2.47,0,0,0-1.75,0,1.77,1.77,0,0,0-.67.47,2.18,2.18,0,0,0-.42.73,3.31,3.31,0,0,0,0,2,2.09,2.09,0,0,0,.42.73,1.89,1.89,0,0,0,.67.47,2.47,2.47,0,0,0,1.75,0,1.85,1.85,0,0,0,.66-.47,2.09,2.09,0,0,0,.42-.73A3.31,3.31,0,0,0,117.07,196.26Z"/><path class="cls-1" d="M120.28,192.93h1a.4.4,0,0,1,.26.08.53.53,0,0,1,.16.2l1.56,4.06c0,.13.1.27.15.43s.09.33.13.5a5.15,5.15,0,0,1,.27-.93l1.55-4.06a.53.53,0,0,1,.15-.19.39.39,0,0,1,.26-.09h1l-2.68,6.65H123Z"/><path class="cls-1" d="M133.56,192.93v1h-2.95v1.84h2.32v1h-2.32v1.88h2.95v1h-4.19v-6.65Z"/><path class="cls-1" d="M137.75,197v2.6h-1.24v-6.65h2a4.33,4.33,0,0,1,1.16.14,2.31,2.31,0,0,1,.8.4,1.49,1.49,0,0,1,.46.6,2.11,2.11,0,0,1,.14.77,1.91,1.91,0,0,1-.1.64,2,2,0,0,1-.28.54,2.1,2.1,0,0,1-.46.43,2.43,2.43,0,0,1-.63.29,1.34,1.34,0,0,1,.41.38l1.66,2.46h-1.11a.54.54,0,0,1-.27-.06.58.58,0,0,1-.19-.19l-1.4-2.13a.57.57,0,0,0-.18-.17.62.62,0,0,0-.27-.05Zm0-.88h.77a1.87,1.87,0,0,0,.61-.09,1.27,1.27,0,0,0,.43-.24,1.15,1.15,0,0,0,.25-.37,1.34,1.34,0,0,0,.08-.46,1,1,0,0,0-.33-.78,1.61,1.61,0,0,0-1-.27h-.79Z"/><path class="cls-1" d="M145.61,197.24v2.34h-1.24v-6.65h2.17a3.59,3.59,0,0,1,1.15.16,2.1,2.1,0,0,1,.81.44,1.77,1.77,0,0,1,.47.67,2.34,2.34,0,0,1,.15.85,2.56,2.56,0,0,1-.16.89,1.78,1.78,0,0,1-.49.69,2.29,2.29,0,0,1-.8.45,3.5,3.5,0,0,1-1.13.16Zm0-1h.93a1.79,1.79,0,0,0,.59-.08,1.22,1.22,0,0,0,.42-.24,1.14,1.14,0,0,0,.25-.39,1.6,1.6,0,0,0,.08-.51,1.42,1.42,0,0,0-.08-.48,1,1,0,0,0-.25-.37,1.06,1.06,0,0,0-.42-.23,2.1,2.1,0,0,0-.59-.08h-.93Z"/><path class="cls-1" d="M157.29,199.58h-.95a.46.46,0,0,1-.27-.08.43.43,0,0,1-.15-.2l-.49-1.36h-2.76l-.49,1.36a.53.53,0,0,1-.15.19.39.39,0,0,1-.26.09h-1l2.61-6.65h1.26Zm-4.3-2.51h2.12l-.81-2.21c0-.1-.08-.22-.12-.35a4.38,4.38,0,0,1-.13-.43c-.05.15-.09.3-.13.43a3.78,3.78,0,0,1-.12.36Z"/><path class="cls-1" d="M161.14,197v2.6h-1.23v-6.65h2a4.36,4.36,0,0,1,1.17.14,2.4,2.4,0,0,1,.8.4,1.56,1.56,0,0,1,.45.6,1.92,1.92,0,0,1,.15.77,2.2,2.2,0,0,1-.1.64,1.76,1.76,0,0,1-.29.54,1.9,1.9,0,0,1-.46.43,2.36,2.36,0,0,1-.62.29,1.31,1.31,0,0,1,.4.38l1.67,2.46H164a.6.6,0,0,1-.27-.06.69.69,0,0,1-.19-.19l-1.4-2.13A.55.55,0,0,0,162,197a.67.67,0,0,0-.28-.05Zm0-.88h.78a1.91,1.91,0,0,0,.61-.09,1.22,1.22,0,0,0,.42-.24,1,1,0,0,0,.25-.37,1.14,1.14,0,0,0,.09-.46,1,1,0,0,0-.34-.78,1.59,1.59,0,0,0-1-.27h-.79Z"/><path class="cls-1" d="M171.93,192.93v1H169v1.84h2.32v1H169v1.88h2.94v1h-4.19v-6.65Z"/><path class="cls-1" d="M175.64,192.94a.17.17,0,0,1,.1,0,.24.24,0,0,1,.09.06.45.45,0,0,1,.09.1l3.49,4.45,0-.32v-4.33h1.09v6.65h-.64a.62.62,0,0,1-.25-.05.52.52,0,0,1-.18-.16l-3.48-4.43c0,.1,0,.2,0,.29a2.62,2.62,0,0,1,0,.27v4.08h-1.09v-6.65h.78Z"/><path class="cls-1" d="M188.35,192.93v1h-2v5.63h-1.24V194h-2v-1Z"/><path class="cls-1" d="M192.31,199.58h-1.24v-6.65h1.24Z"/><path class="cls-1" d="M196.45,192.94a.17.17,0,0,1,.1,0,.24.24,0,0,1,.09.06.45.45,0,0,1,.09.1l3.49,4.45,0-.32v-4.33h1.09v6.65h-.64a.62.62,0,0,1-.25-.05.52.52,0,0,1-.18-.16l-3.48-4.43c0,.1,0,.2,0,.29a2.62,2.62,0,0,1,0,.27v4.08h-1.09v-6.65h.78Z"/><path class="cls-1" d="M207.61,198.67a3.07,3.07,0,0,0,.73-.08,2.75,2.75,0,0,0,.59-.21v-1.2h-.83a.29.29,0,0,1-.19-.07.26.26,0,0,1-.07-.16v-.7h2.22v2.69a4.15,4.15,0,0,1-.53.32,3.66,3.66,0,0,1-.58.22,4.42,4.42,0,0,1-.67.13,6.12,6.12,0,0,1-.76,0,3.44,3.44,0,0,1-1.34-.25,3.21,3.21,0,0,1-1.06-.7,3.18,3.18,0,0,1-.69-1.08,3.54,3.54,0,0,1-.25-1.36,3.85,3.85,0,0,1,.24-1.38,3,3,0,0,1,1.78-1.77,3.8,3.8,0,0,1,1.43-.25,3.71,3.71,0,0,1,1.41.24,3.1,3.1,0,0,1,1,.63l-.36.56a.32.32,0,0,1-.28.17.4.4,0,0,1-.22-.08l-.3-.17a2.07,2.07,0,0,0-.34-.15l-.42-.11a4.26,4.26,0,0,0-.54,0,2.31,2.31,0,0,0-.89.17,2,2,0,0,0-.68.47,2.25,2.25,0,0,0-.43.74,3.27,3.27,0,0,0,0,2,2.29,2.29,0,0,0,.45.76,2,2,0,0,0,.69.47A2.28,2.28,0,0,0,207.61,198.67Z"/><path class="cls-1" d="M368.8,197.13v2.6h-1.24v-6.65h2a4.33,4.33,0,0,1,1.16.14,2.31,2.31,0,0,1,.8.4,1.49,1.49,0,0,1,.46.6,2.16,2.16,0,0,1,.14.78,1.89,1.89,0,0,1-.1.63,1.73,1.73,0,0,1-.28.54,2.1,2.1,0,0,1-.46.43,2.43,2.43,0,0,1-.63.29,1.26,1.26,0,0,1,.41.39l1.66,2.45h-1.11a.54.54,0,0,1-.27-.06.58.58,0,0,1-.19-.19l-1.4-2.13a.55.55,0,0,0-.17-.17.7.7,0,0,0-.28-.05Zm0-.88h.77a1.87,1.87,0,0,0,.61-.09,1.27,1.27,0,0,0,.43-.24,1.15,1.15,0,0,0,.25-.37,1.34,1.34,0,0,0,.08-.46,1,1,0,0,0-.33-.78,1.59,1.59,0,0,0-1-.27h-.79Z"/><path class="cls-1" d="M379.59,193.08v1h-2.95v1.84H379v1h-2.32v1.88h2.95v1H375.4v-6.65Z"/><path class="cls-1" d="M383.75,198.71h2.66v1h-3.9v-6.65h1.24Z"/><path class="cls-1" d="M395.24,199.73h-1a.45.45,0,0,1-.26-.08.43.43,0,0,1-.15-.2l-.5-1.36h-2.75l-.5,1.36a.41.41,0,0,1-.14.19.4.4,0,0,1-.27.09h-1l2.61-6.65h1.27Zm-4.3-2.51h2.12l-.81-2.21-.13-.35c0-.13-.08-.28-.13-.43,0,.15-.08.3-.12.43a3.78,3.78,0,0,1-.12.36Z"/><path class="cls-1" d="M399.72,196.31l-2.12-3.23h1.23a.32.32,0,0,1,.19,0,.27.27,0,0,1,.1.11l1.51,2.44a.61.61,0,0,0,.05-.12l.07-.11,1.38-2.19a.31.31,0,0,1,.26-.17h1.19l-2.14,3.18,2.2,3.47H402.4a.32.32,0,0,1-.2-.06.79.79,0,0,1-.12-.15L400.54,197a.49.49,0,0,0,0,.11.41.41,0,0,0-.05.09L399,199.52a.53.53,0,0,1-.12.14.24.24,0,0,1-.18.07h-1.16Z"/><path class="cls-1" d="M410.45,193.08v1H407.5v1.84h2.32v1H407.5v1.88h2.95v1h-4.2v-6.65Z"/><path class="cls-1" d="M419.28,196.41a3.47,3.47,0,0,1-.25,1.34,3,3,0,0,1-.68,1.05,3.19,3.19,0,0,1-1.06.69,3.85,3.85,0,0,1-1.38.24h-2.54v-6.65h2.54a3.85,3.85,0,0,1,1.38.25,3.16,3.16,0,0,1,1.06.68,3.22,3.22,0,0,1,.68,1.05A3.49,3.49,0,0,1,419.28,196.41Zm-1.27,0a3.33,3.33,0,0,0-.14-1,2.18,2.18,0,0,0-.42-.73,1.71,1.71,0,0,0-.66-.46,2.23,2.23,0,0,0-.88-.16h-1.29v4.68h1.29a2.42,2.42,0,0,0,.88-.16,1.85,1.85,0,0,0,.66-.47,2.09,2.09,0,0,0,.42-.73A3.31,3.31,0,0,0,418,196.41Z"/><path class="cls-1" d="M278.07,324.08l.32-.13-.33-.13-.31-.15-3.68-2a.52.52,0,0,1-.11-.07.24.24,0,0,1-.06-.09.36.36,0,0,1,0-.11.61.61,0,0,1,0-.14v-.93h6.65v1.09H276l-.29,0,3.77,2a.39.39,0,0,1,.2.18.43.43,0,0,1,.07.25V324a.47.47,0,0,1-.27.44l-3.78,2,.3,0h4.56v1.09h-6.65v-.94a.61.61,0,0,1,0-.14.36.36,0,0,1,0-.11.24.24,0,0,1,.06-.09l.11-.08,3.69-2Z"/><path class="cls-1" d="M273.87,312.88h1v2.95h1.85v-2.32h.95v2.32h1.88v-2.95h1v4.2h-6.65Z"/><path class="cls-1" d="M275.08,306.28a.43.43,0,0,1,.14.12.29.29,0,0,1,0,.16.4.4,0,0,1-.07.21,2.76,2.76,0,0,0-.16.27,2.06,2.06,0,0,0-.15.36,1.5,1.5,0,0,0-.08.5,1.25,1.25,0,0,0,.07.45.9.9,0,0,0,.17.32.61.61,0,0,0,.26.19.8.8,0,0,0,.34.07.61.61,0,0,0,.39-.13,1.21,1.21,0,0,0,.27-.35,3.83,3.83,0,0,0,.2-.49c.05-.19.12-.37.18-.57s.14-.37.23-.56a2.11,2.11,0,0,1,.33-.49,1.75,1.75,0,0,1,.49-.35,1.87,1.87,0,0,1,.71-.13,2.13,2.13,0,0,1,.84.16,1.84,1.84,0,0,1,.68.45,2,2,0,0,1,.46.72,2.49,2.49,0,0,1,.17,1,3.18,3.18,0,0,1-.06.62,3,3,0,0,1-.18.6,3.2,3.2,0,0,1-.27.52,2.65,2.65,0,0,1-.36.44l-.59-.36a.32.32,0,0,1-.11-.12.28.28,0,0,1,0-.16.38.38,0,0,1,.1-.24l.21-.32a3.47,3.47,0,0,0,.21-.43,1.7,1.7,0,0,0,.09-.59,1.22,1.22,0,0,0-.25-.82.92.92,0,0,0-.72-.29.67.67,0,0,0-.43.14.93.93,0,0,0-.27.34,3.13,3.13,0,0,0-.2.49c0,.19-.1.38-.17.57a4.33,4.33,0,0,1-.22.56,1.76,1.76,0,0,1-.33.49,1.64,1.64,0,0,1-.52.35,2.11,2.11,0,0,1-.76.13,1.74,1.74,0,0,1-.71-.15,1.85,1.85,0,0,1-.61-.42,2.13,2.13,0,0,1-.43-.68,2.45,2.45,0,0,1-.16-.93,3.14,3.14,0,0,1,.18-1.08,2.43,2.43,0,0,1,.52-.85Z"/><path class="cls-1" d="M275.08,299.46a.33.33,0,0,1,.14.11.29.29,0,0,1,0,.16.4.4,0,0,1-.07.21l-.16.27a2.18,2.18,0,0,0-.15.37,1.4,1.4,0,0,0-.08.49,1.25,1.25,0,0,0,.07.45.82.82,0,0,0,.17.32.73.73,0,0,0,.26.2,1,1,0,0,0,.34.06A.56.56,0,0,0,276,302a1.09,1.09,0,0,0,.27-.35,3.83,3.83,0,0,0,.2-.49c.05-.18.12-.37.18-.56s.14-.38.23-.57a2.34,2.34,0,0,1,.33-.49,1.75,1.75,0,0,1,.49-.35,1.87,1.87,0,0,1,.71-.13,2.13,2.13,0,0,1,.84.16,1.84,1.84,0,0,1,.68.45,2.07,2.07,0,0,1,.46.72,2.52,2.52,0,0,1,.17,1,3.36,3.36,0,0,1-.06.63,3.09,3.09,0,0,1-.18.59,3.3,3.3,0,0,1-.27.53,3.13,3.13,0,0,1-.36.44l-.59-.36A.45.45,0,0,1,279,303a.27.27,0,0,1,0-.15.4.4,0,0,1,.1-.25l.21-.32a4.1,4.1,0,0,0,.21-.42,1.8,1.8,0,0,0,.09-.6,1.17,1.17,0,0,0-.25-.81.89.89,0,0,0-.72-.29.67.67,0,0,0-.43.13,1,1,0,0,0-.27.34,2.89,2.89,0,0,0-.2.5c0,.18-.1.37-.17.56a4.33,4.33,0,0,1-.22.56,1.59,1.59,0,0,1-.85.84,2.11,2.11,0,0,1-.76.13,1.74,1.74,0,0,1-.71-.15,1.59,1.59,0,0,1-.61-.42A2.13,2.13,0,0,1,274,302a2.45,2.45,0,0,1-.16-.93A3.14,3.14,0,0,1,274,300a2.53,2.53,0,0,1,.52-.85Z"/><path class="cls-1" d="M277.93,293.21h2.59v1.23h-2.59l-4.06,2.42v-1.09a.39.39,0,0,1,.08-.25.64.64,0,0,1,.2-.16l2.22-1.22.37-.18.35-.14-.35-.14-.37-.18-2.22-1.21a.53.53,0,0,1-.19-.15.37.37,0,0,1-.09-.26v-1.09Z"/><path class="cls-1" d="M275.85,101.78a3.78,3.78,0,0,1,1.36.25,3.21,3.21,0,0,1,1.07.68,3,3,0,0,1,.71,1.07,3.56,3.56,0,0,1,.26,1.37,3.65,3.65,0,0,1-.26,1.38,3,3,0,0,1-.71,1.06,3.08,3.08,0,0,1-1.07.69,3.78,3.78,0,0,1-1.36.24,3.68,3.68,0,0,1-1.35-.24,3,3,0,0,1-1.08-.69,3.14,3.14,0,0,1-.71-1.06,3.65,3.65,0,0,1-.26-1.38,3.56,3.56,0,0,1,.26-1.37A3,3,0,0,1,274.5,102,3.68,3.68,0,0,1,275.85,101.78Zm0,1.27a3,3,0,0,0-1,.15,2,2,0,0,0-.74.41,1.71,1.71,0,0,0-.46.66,2.23,2.23,0,0,0-.16.88,2.26,2.26,0,0,0,.16.88,1.71,1.71,0,0,0,.46.66,2.14,2.14,0,0,0,.74.42,3,3,0,0,0,1,.15,3,3,0,0,0,1-.15,2.14,2.14,0,0,0,.74-.42A1.83,1.83,0,0,0,278,106a2.26,2.26,0,0,0,.16-.88,2.23,2.23,0,0,0-.16-.88,1.83,1.83,0,0,0-.46-.66,2,2,0,0,0-.74-.41A3,3,0,0,0,275.85,103.05Z"/><path class="cls-1" d="M276.58,97.61h2.59v1.24h-6.64v-2a4,4,0,0,1,.14-1.16,2.14,2.14,0,0,1,.39-.8,1.5,1.5,0,0,1,.61-.45,1.92,1.92,0,0,1,.77-.15,1.85,1.85,0,0,1,.63.1,1.93,1.93,0,0,1,.55.29,1.7,1.7,0,0,1,.42.46,2.38,2.38,0,0,1,.3.62,1.23,1.23,0,0,1,.38-.41l2.45-1.66v1.11a.61.61,0,0,1-.06.28.64.64,0,0,1-.18.19l-2.13,1.39a.48.48,0,0,0-.17.18.5.5,0,0,0-.05.27Zm-.89,0v-.77a1.91,1.91,0,0,0-.09-.61,1.37,1.37,0,0,0-.24-.43,1,1,0,0,0-.36-.25,1.45,1.45,0,0,0-.47-.08,1,1,0,0,0-.78.33,1.63,1.63,0,0,0-.27,1v.79Z"/><path class="cls-1" d="M278.26,88.07a3.17,3.17,0,0,0-.07-.73,3,3,0,0,0-.21-.59h-1.21v.83a.25.25,0,0,1-.07.19.2.2,0,0,1-.16.07h-.7V85.63h2.69a4,4,0,0,1,.32.52,3,3,0,0,1,.22.59,4.27,4.27,0,0,1,.14.66c0,.24,0,.49,0,.77A3.62,3.62,0,0,1,279,89.5a3.2,3.2,0,0,1-1.78,1.76,3.83,3.83,0,0,1-1.37.25,3.56,3.56,0,0,1-1.37-.25,3,3,0,0,1-1.08-.69,3.15,3.15,0,0,1-.7-1.09,4,4,0,0,1-.25-1.43,3.78,3.78,0,0,1,.24-1.41,3.4,3.4,0,0,1,.63-1l.56.36a.3.3,0,0,1,.17.28.43.43,0,0,1-.07.23q-.09.14-.18.3c-.05.1-.1.21-.15.34a3.26,3.26,0,0,0-.1.42,2.79,2.79,0,0,0,0,.53,2.28,2.28,0,0,0,.16.89,1.83,1.83,0,0,0,.48.68,2,2,0,0,0,.74.43,3.24,3.24,0,0,0,2,0,2.29,2.29,0,0,0,.76-.45,1.84,1.84,0,0,0,.47-.69A2.28,2.28,0,0,0,278.26,88.07Z"/><path class="cls-1" d="M279.17,76.72v1a.4.4,0,0,1-.08.27.48.48,0,0,1-.2.14l-1.35.5v2.75l1.35.5a.46.46,0,0,1,.2.15.38.38,0,0,1,.08.26v1l-6.64-2.61V79.34ZM276.67,81V78.91l-2.22.81-.34.12-.44.13.44.13.35.12Z"/><path class="cls-1" d="M272.53,73.35l0-.1.06-.09.1-.09,4.45-3.49-.31,0h-4.33V68.53h6.64v.64a.61.61,0,0,1,0,.24.58.58,0,0,1-.17.19l-4.42,3.47.29,0h4.34v1.09h-6.64v-.78Z"/><path class="cls-1" d="M279.17,63.93v1.24h-6.64V63.93Z"/><path class="cls-1" d="M272.53,56H273a.69.69,0,0,1,.39.12l4.82,3.41V56.06h1v5.06h-.48a.39.39,0,0,1-.18,0,.48.48,0,0,1-.16-.08l-4.84-3.42V60.9h-1Z"/><path class="cls-1" d="M272.53,49.05h1v3h1.84V49.67h1V52h1.88v-3h1v4.19h-6.64Z"/><path class="cls-1" d="M275.85,40.22a3.59,3.59,0,0,1,1.34.24,3.19,3.19,0,0,1,1.06.69,3.07,3.07,0,0,1,.68,1.06,3.75,3.75,0,0,1,.24,1.37v2.54h-6.64V43.58a3.75,3.75,0,0,1,.24-1.37,3.24,3.24,0,0,1,.69-1.06,3,3,0,0,1,1.05-.69A3.63,3.63,0,0,1,275.85,40.22Zm0,1.26a3,3,0,0,0-1,.15,2.14,2.14,0,0,0-.74.42,1.83,1.83,0,0,0-.46.66,2.21,2.21,0,0,0-.16.87v1.3h4.68v-1.3a2.21,2.21,0,0,0-.16-.87,1.83,1.83,0,0,0-.46-.66,2.14,2.14,0,0,0-.74-.42A3,3,0,0,0,275.85,41.48Z"/><circle class="cls-3" cx="195.02" cy="255.99" r="27.6"/><circle class="cls-1" cx="195.26" cy="256.23" r="10.43"/><circle class="cls-3" cx="342.56" cy="251.56" r="27.6"/><circle class="cls-1" cx="342.72" cy="251.41" r="10.43"/><path class="cls-4" d="M175,297.37h-1.14a.53.53,0,0,1-.32-.09.69.69,0,0,1-.18-.24l-.59-1.63h-3.3l-.59,1.63a.6.6,0,0,1-.17.23.51.51,0,0,1-.32.1h-1.15l3.12-7.95h1.52Zm-5.15-3h2.54l-1-2.65-.15-.41c-.05-.16-.1-.33-.15-.52-.05.19-.1.36-.15.52s-.1.3-.15.42Z"/><path class="cls-4" d="M177.16,289.2v8.17h-1.35V289.2Z"/><path class="cls-4" d="M181,291.64a2.8,2.8,0,0,1,1,.17,2.13,2.13,0,0,1,.78.5,2.32,2.32,0,0,1,.5.8,3.08,3.08,0,0,1,.18,1.09,1.78,1.78,0,0,1,0,.25.3.3,0,0,1-.05.16.22.22,0,0,1-.1.09l-.15,0h-3.49a2,2,0,0,0,.47,1.28,1.46,1.46,0,0,0,1.08.4,1.93,1.93,0,0,0,.57-.07,2.81,2.81,0,0,0,.42-.17l.31-.17a.46.46,0,0,1,.26-.08.29.29,0,0,1,.14,0,.35.35,0,0,1,.11.1l.4.49a2.59,2.59,0,0,1-.51.44,2.69,2.69,0,0,1-.59.29,3.3,3.3,0,0,1-.62.15,4.26,4.26,0,0,1-.61,0,3.07,3.07,0,0,1-1.1-.19,2.46,2.46,0,0,1-.88-.58,2.79,2.79,0,0,1-.59-.94,3.79,3.79,0,0,1-.21-1.31,3,3,0,0,1,.19-1.09,2.53,2.53,0,0,1,.53-.88,2.66,2.66,0,0,1,.86-.6A2.71,2.71,0,0,1,181,291.64Zm0,1a1.26,1.26,0,0,0-.93.34,1.65,1.65,0,0,0-.43.95h2.55a1.68,1.68,0,0,0-.07-.5,1.25,1.25,0,0,0-.22-.41,1,1,0,0,0-.37-.27A1.25,1.25,0,0,0,181,292.61Z"/><path class="cls-4" d="M187.89,292.83a.26.26,0,0,1-.11.12.24.24,0,0,1-.15,0,.49.49,0,0,1-.22-.06l-.26-.12a1.5,1.5,0,0,0-.34-.12,1.42,1.42,0,0,0-.44-.06,1.1,1.1,0,0,0-.64.17.55.55,0,0,0-.23.45.41.41,0,0,0,.12.3,1.07,1.07,0,0,0,.31.22,3.28,3.28,0,0,0,.45.17l.5.16.51.2a1.86,1.86,0,0,1,.44.29,1.14,1.14,0,0,1,.31.41,1.31,1.31,0,0,1,.12.58,1.79,1.79,0,0,1-.15.75,1.58,1.58,0,0,1-.43.6,2,2,0,0,1-.71.39,3.13,3.13,0,0,1-1,.14,3.45,3.45,0,0,1-.57,0,4.1,4.1,0,0,1-.53-.15,2.34,2.34,0,0,1-.48-.22,2.16,2.16,0,0,1-.38-.27l.31-.52a.4.4,0,0,1,.15-.14.31.31,0,0,1,.2-.05.45.45,0,0,1,.25.07l.26.15a1.8,1.8,0,0,0,.34.16,1.85,1.85,0,0,0,.51.07,1.29,1.29,0,0,0,.42-.06,1.13,1.13,0,0,0,.29-.15.5.5,0,0,0,.16-.22.7.7,0,0,0,.05-.25.46.46,0,0,0-.12-.33,1.07,1.07,0,0,0-.31-.22,3.68,3.68,0,0,0-.44-.17l-.52-.16a5.38,5.38,0,0,1-.51-.2,1.9,1.9,0,0,1-.44-.3,1.36,1.36,0,0,1-.32-.45,1.56,1.56,0,0,1-.12-.64,1.66,1.66,0,0,1,.14-.66,1.44,1.44,0,0,1,.41-.54,2,2,0,0,1,.66-.38,2.91,2.91,0,0,1,.92-.14,2.94,2.94,0,0,1,1.06.19,2.39,2.39,0,0,1,.8.51Z"/><path class="cls-4" d="M192.66,292.83a.26.26,0,0,1-.11.12.25.25,0,0,1-.16,0,.48.48,0,0,1-.21-.06l-.26-.12a1.5,1.5,0,0,0-.34-.12,1.44,1.44,0,0,0-.45-.06,1.09,1.09,0,0,0-.63.17.55.55,0,0,0-.23.45.41.41,0,0,0,.12.3,1.07,1.07,0,0,0,.31.22,3.68,3.68,0,0,0,.44.17l.51.16.51.2a1.86,1.86,0,0,1,.44.29,1.27,1.27,0,0,1,.31.41,1.31,1.31,0,0,1,.12.58,1.79,1.79,0,0,1-.15.75,1.7,1.7,0,0,1-.43.6,2,2,0,0,1-.71.39,3.13,3.13,0,0,1-1,.14,3.45,3.45,0,0,1-.57,0,4.26,4.26,0,0,1-.54-.15,2.52,2.52,0,0,1-.47-.22,2.16,2.16,0,0,1-.38-.27l.31-.52a.4.4,0,0,1,.15-.14.31.31,0,0,1,.2-.05.4.4,0,0,1,.24.07l.26.15a2.29,2.29,0,0,0,.35.16,1.85,1.85,0,0,0,.51.07,1.33,1.33,0,0,0,.42-.06.92.92,0,0,0,.28-.15.52.52,0,0,0,.17-.22.7.7,0,0,0,0-.25.46.46,0,0,0-.12-.33,1.07,1.07,0,0,0-.31-.22,3.28,3.28,0,0,0-.45-.17l-.51-.16a5.38,5.38,0,0,1-.51-.2,1.55,1.55,0,0,1-.44-.3,1.36,1.36,0,0,1-.32-.45,1.56,1.56,0,0,1-.12-.64,1.66,1.66,0,0,1,.14-.66,1.44,1.44,0,0,1,.41-.54,1.91,1.91,0,0,1,.66-.38,2.87,2.87,0,0,1,.92-.14,3,3,0,0,1,1.06.19,2.39,2.39,0,0,1,.8.51Z"/><path class="cls-4" d="M198.51,297.37h-.61a.61.61,0,0,1-.3-.06c-.08,0-.13-.11-.17-.23l-.12-.4a4.18,4.18,0,0,1-.42.34,2.61,2.61,0,0,1-.43.24,1.77,1.77,0,0,1-.46.15,3.12,3.12,0,0,1-.55,0,2,2,0,0,1-.66-.1,1.26,1.26,0,0,1-.52-.29,1.13,1.13,0,0,1-.34-.48,1.69,1.69,0,0,1-.12-.66,1.35,1.35,0,0,1,.16-.64,1.75,1.75,0,0,1,.56-.56,3.51,3.51,0,0,1,1-.42,6.67,6.67,0,0,1,1.61-.16v-.33a1.27,1.27,0,0,0-.24-.85.86.86,0,0,0-.69-.27,1.75,1.75,0,0,0-.55.07,1.93,1.93,0,0,0-.38.18l-.3.17a.65.65,0,0,1-.31.08.42.42,0,0,1-.23-.07.55.55,0,0,1-.16-.18l-.25-.43a3.34,3.34,0,0,1,2.35-.9,2.23,2.23,0,0,1,.88.17,1.69,1.69,0,0,1,.66.45,1.84,1.84,0,0,1,.41.69,2.75,2.75,0,0,1,.14.88Zm-2.64-.84a2.11,2.11,0,0,0,.38,0,2,2,0,0,0,.34-.12l.3-.18a2.38,2.38,0,0,0,.29-.27V295a5.6,5.6,0,0,0-1,.07,2.55,2.55,0,0,0-.64.2.68.68,0,0,0-.34.27.56.56,0,0,0-.1.33.6.6,0,0,0,.21.52A.92.92,0,0,0,195.87,296.53Z"/><path class="cls-4" d="M199.83,297.37v-5.64h.83a.34.34,0,0,1,.35.25l.09.44a2.74,2.74,0,0,1,.36-.32,2.36,2.36,0,0,1,.4-.24,1.67,1.67,0,0,1,.46-.16,2.12,2.12,0,0,1,.52-.06,1.94,1.94,0,0,1,.82.16,1.56,1.56,0,0,1,.6.44,1.88,1.88,0,0,1,.36.67,2.69,2.69,0,0,1,.13.87v3.59h-1.36v-3.59a1.21,1.21,0,0,0-.24-.8.89.89,0,0,0-.72-.28,1.4,1.4,0,0,0-.66.16,2.29,2.29,0,0,0-.58.43v4.08Z"/><path class="cls-4" d="M210.1,297.37a.34.34,0,0,1-.35-.25l-.11-.54a4.08,4.08,0,0,1-.36.36,2.31,2.31,0,0,1-.42.27,2,2,0,0,1-.48.18,2.38,2.38,0,0,1-.55.06,1.86,1.86,0,0,1-.85-.19,1.94,1.94,0,0,1-.66-.56,2.51,2.51,0,0,1-.43-.9,4.6,4.6,0,0,1-.15-1.23,4,4,0,0,1,.17-1.17,2.75,2.75,0,0,1,.49-.93,2.26,2.26,0,0,1,.76-.62,2.21,2.21,0,0,1,1-.23,1.78,1.78,0,0,1,.8.16,1.91,1.91,0,0,1,.6.4v-3h1.36v8.17Zm-1.81-1a1.37,1.37,0,0,0,.72-.18,2,2,0,0,0,.56-.5v-2.53a1.32,1.32,0,0,0-.5-.4,1.63,1.63,0,0,0-.59-.11,1.38,1.38,0,0,0-.55.11,1.21,1.21,0,0,0-.43.35,1.84,1.84,0,0,0-.26.6,3.05,3.05,0,0,0-.1.85,4,4,0,0,0,.08.84,1.93,1.93,0,0,0,.23.56.88.88,0,0,0,.36.31A1.29,1.29,0,0,0,208.29,296.38Z"/><path class="cls-4" d="M212.33,297.37v-5.64h.8a.39.39,0,0,1,.29.08.49.49,0,0,1,.11.26l.08.68a2.62,2.62,0,0,1,.71-.82,1.49,1.49,0,0,1,.91-.31,1.2,1.2,0,0,1,.7.2l-.18,1a.2.2,0,0,1-.07.14.25.25,0,0,1-.15,0,1.39,1.39,0,0,1-.23,0,1.29,1.29,0,0,0-.38,0,1.17,1.17,0,0,0-.72.23,1.88,1.88,0,0,0-.51.69v3.51Z"/><path class="cls-4" d="M219.11,291.64a3.27,3.27,0,0,1,1.15.2,2.51,2.51,0,0,1,.87.58,2.65,2.65,0,0,1,.57.91,3.57,3.57,0,0,1,.19,1.21,3.53,3.53,0,0,1-.19,1.21,2.6,2.6,0,0,1-.57.92,2.38,2.38,0,0,1-.87.58,3.05,3.05,0,0,1-1.15.2,3,3,0,0,1-1.15-.2,2.41,2.41,0,0,1-.88-.58,2.47,2.47,0,0,1-.57-.92,3.53,3.53,0,0,1-.2-1.21,3.57,3.57,0,0,1,.2-1.21,2.51,2.51,0,0,1,.57-.91,2.55,2.55,0,0,1,.88-.58A3.23,3.23,0,0,1,219.11,291.64Zm0,4.77a1.19,1.19,0,0,0,1-.47,3,3,0,0,0,0-2.78,1.18,1.18,0,0,0-1-.48,1.21,1.21,0,0,0-1.06.48,2.46,2.46,0,0,0-.34,1.39,2.38,2.38,0,0,0,.34,1.38A1.21,1.21,0,0,0,219.11,296.41Z"/><path class="cls-4" d="M329.18,290.44l.15.38.16-.39.18-.37,2.35-4.4a.85.85,0,0,1,.09-.14.41.41,0,0,1,.11-.07l.13,0h1.28v7.95h-1.3v-5.13c0-.1,0-.2,0-.32s0-.23,0-.34l-2.4,4.5a.56.56,0,0,1-.21.24.56.56,0,0,1-.31.09h-.21a.51.51,0,0,1-.3-.09.57.57,0,0,1-.22-.24l-2.43-4.52c0,.12,0,.24,0,.35s0,.23,0,.33v5.13H325v-7.95h1.29l.13,0,.1.07a.5.5,0,0,1,.1.14l2.37,4.41C329.07,290.19,329.12,290.31,329.18,290.44Z"/><path class="cls-4" d="M339.54,293.37h-.61a.61.61,0,0,1-.3-.06c-.08,0-.13-.11-.17-.23l-.12-.4a4.18,4.18,0,0,1-.42.34,2.61,2.61,0,0,1-.43.24,1.77,1.77,0,0,1-.46.15,3.15,3.15,0,0,1-.56,0,2.07,2.07,0,0,1-.66-.1,1.4,1.4,0,0,1-.52-.29,1.21,1.21,0,0,1-.33-.48,1.69,1.69,0,0,1-.12-.66,1.35,1.35,0,0,1,.16-.64,1.75,1.75,0,0,1,.56-.56,3.51,3.51,0,0,1,1-.42,6.67,6.67,0,0,1,1.61-.16v-.33A1.27,1.27,0,0,0,338,289a.87.87,0,0,0-.69-.27,1.75,1.75,0,0,0-.55.07,1.93,1.93,0,0,0-.38.18l-.3.17a.65.65,0,0,1-.31.08.42.42,0,0,1-.23-.07.55.55,0,0,1-.16-.18l-.25-.43a3.34,3.34,0,0,1,2.35-.9,2.23,2.23,0,0,1,.88.17,1.69,1.69,0,0,1,.66.45,2,2,0,0,1,.41.69,2.75,2.75,0,0,1,.14.88Zm-2.64-.84a2.11,2.11,0,0,0,.38,0,2,2,0,0,0,.34-.12l.3-.18a2.38,2.38,0,0,0,.29-.27V291a5.6,5.6,0,0,0-1,.07,2.55,2.55,0,0,0-.64.2.68.68,0,0,0-.34.27.57.57,0,0,0-.11.33.61.61,0,0,0,.22.52A.92.92,0,0,0,336.9,292.53Z"/><path class="cls-4" d="M340.86,293.37v-5.64h.8a.4.4,0,0,1,.29.08.49.49,0,0,1,.11.26l.08.68a2.62,2.62,0,0,1,.71-.82,1.52,1.52,0,0,1,.91-.31,1.2,1.2,0,0,1,.7.2l-.18,1c0,.07,0,.12-.07.14a.25.25,0,0,1-.15,0,1.39,1.39,0,0,1-.23,0,1.26,1.26,0,0,0-.37,0,1.18,1.18,0,0,0-.73.23,1.88,1.88,0,0,0-.51.69v3.51Z"/><path class="cls-4" d="M346.88,286.08a.8.8,0,0,1-.07.34.83.83,0,0,1-.19.26.92.92,0,0,1-.28.19,1,1,0,0,1-.34.07.88.88,0,0,1-.33-.07.92.92,0,0,1-.28-.19,1,1,0,0,1-.18-.26.86.86,0,0,1,0-.68,1.27,1.27,0,0,1,.18-.27.92.92,0,0,1,.28-.19.88.88,0,0,1,.33-.06,1,1,0,0,1,.34.06.92.92,0,0,1,.28.19,1,1,0,0,1,.19.27A.8.8,0,0,1,346.88,286.08Zm-.2,1.65v5.64h-1.36v-5.64Z"/><path class="cls-4" d="M348.11,293.37v-5.64h.83a.33.33,0,0,1,.35.25l.09.44c.12-.12.24-.22.36-.32a2.1,2.1,0,0,1,.41-.24,1.72,1.72,0,0,1,.45-.16,2.2,2.2,0,0,1,.53-.06,1.94,1.94,0,0,1,.82.16,1.53,1.53,0,0,1,.59.44,2.07,2.07,0,0,1,.37.67,3,3,0,0,1,.12.87v3.59h-1.36v-3.59a1.21,1.21,0,0,0-.24-.8.89.89,0,0,0-.72-.28,1.4,1.4,0,0,0-.66.16,2.29,2.29,0,0,0-.58.43v4.08Z"/><path class="cls-4" d="M358.7,293.37h-.61a.61.61,0,0,1-.3-.06.32.32,0,0,1-.16-.23l-.13-.4a4.18,4.18,0,0,1-.42.34,2.52,2.52,0,0,1-.42.24,1.84,1.84,0,0,1-.47.15,3,3,0,0,1-.55,0,2,2,0,0,1-.66-.1,1.4,1.4,0,0,1-.52-.29,1.23,1.23,0,0,1-.34-.48,1.69,1.69,0,0,1-.12-.66,1.36,1.36,0,0,1,.17-.64,1.66,1.66,0,0,1,.56-.56,3.4,3.4,0,0,1,1-.42,6.67,6.67,0,0,1,1.61-.16v-.33a1.27,1.27,0,0,0-.24-.85.88.88,0,0,0-.7-.27,1.75,1.75,0,0,0-.55.07,2.69,2.69,0,0,0-.38.18l-.3.17a.61.61,0,0,1-.3.08.48.48,0,0,1-.24-.07.69.69,0,0,1-.16-.18l-.24-.43a3.31,3.31,0,0,1,2.34-.9,2.28,2.28,0,0,1,.89.17,1.73,1.73,0,0,1,.65.45,1.84,1.84,0,0,1,.41.69,2.5,2.5,0,0,1,.14.88Zm-2.64-.84a2.34,2.34,0,0,0,.39,0,1.61,1.61,0,0,0,.33-.12,1.49,1.49,0,0,0,.3-.18,2.44,2.44,0,0,0,.3-.27V291a5.64,5.64,0,0,0-1,.07,2.69,2.69,0,0,0-.64.2.73.73,0,0,0-.34.27.56.56,0,0,0-.1.33.6.6,0,0,0,.21.52A.94.94,0,0,0,356.06,292.53Z"/></svg>
