<svg id="Capa_1" data-name="Capa 1" xmlns="http://www.w3.org/2000/svg" viewBox="0 0 542 326"><defs><style>.cls-1{fill:#ebcfa7;}.cls-2{fill:#7eabdc;}.cls-3,.cls-4,.cls-5,.cls-6{fill:none;stroke-miterlimit:10;}.cls-3{stroke:#ebcfa7;}.cls-3,.cls-6{stroke-width:3px;}.cls-4,.cls-5{stroke:#000;}.cls-5{stroke-dasharray:12 12;}.cls-6{stroke:#5d5d5d;opacity:0.2;}</style></defs><rect class="cls-1" x="378.27" y="97.19" width="81.29" height="52.79" rx="6.33"/><rect class="cls-1" x="252.63" y="156.32" width="81.29" height="52.79" rx="6.33"/><rect class="cls-1" x="252.63" y="96.66" width="81.29" height="52.79" rx="6.33"/><rect class="cls-1" x="252.63" y="36.49" width="81.29" height="52.79" rx="6.33"/><rect class="cls-2" x="22.47" y="100.89" width="81.29" height="52.79" rx="6.33"/><circle class="cls-3" cx="504.56" cy="122.9" r="22.41"/><circle class="cls-3" cx="63.52" cy="39.49" r="22.41"/><path d="M34.09,116.46h2.39a1.9,1.9,0,0,1,2,2,2,2,0,0,1-2,2H34.86v2.64h-.77Zm2.32,3.34a1.26,1.26,0,0,0,1.31-1.34,1.24,1.24,0,0,0-1.31-1.31H34.86v2.65Z"/><path d="M39.18,120.65a2.41,2.41,0,0,1,2.4-2.6,2,2,0,0,1,1.74.92h.06v-.8h.75v5h-.72v-.78h-.06a2,2,0,0,1-1.71.9A2.41,2.41,0,0,1,39.18,120.65Zm4.23,0a1.74,1.74,0,1,0-1.72,1.91A1.76,1.76,0,0,0,43.41,120.65Z"/><path d="M45.74,118.17h.74v.92h.06a1.45,1.45,0,0,1,1.35-.92h.42v.75H47.9c-.9,0-1.41.71-1.41,1.65v2.55h-.75Z"/><path d="M49,120.64a2.43,2.43,0,0,1,2.43-2.59,2.34,2.34,0,0,1,2.39,2.53v.33h-4a1.6,1.6,0,0,0,1.69,1.65,1.58,1.58,0,0,0,1.52-.9h.78a2.3,2.3,0,0,1-2.3,1.58A2.42,2.42,0,0,1,49,120.64Zm4-.39a1.52,1.52,0,0,0-1.59-1.52,1.61,1.61,0,0,0-1.62,1.52Z"/><path d="M55.12,118.17h.75v.73h.06a1.61,1.61,0,0,1,1.51-.85,1.82,1.82,0,0,1,1.85,2v3.11h-.76v-3.06a1.26,1.26,0,0,0-1.27-1.31,1.38,1.38,0,0,0-1.39,1.42v3h-.75Z"/><path d="M61.35,121.62v-2.81h-.93v-.64h.74a.22.22,0,0,0,.24-.24v-1.19h.7v1.43h1.53v.64H62.1v2.8c0,.54.2.85.78.85h.68v.66h-.73A1.35,1.35,0,0,1,61.35,121.62Z"/><path d="M64.67,121.68h.73c.09.59.51.9,1.23.9s1.15-.36,1.15-.86c0-1.39-3-.33-3-2.29,0-.84.75-1.38,1.79-1.38a1.62,1.62,0,0,1,1.75,1.43h-.72c-.07-.47-.42-.78-1.08-.78s-1,.3-1,.73c0,1.25,3,.21,3,2.25,0,.93-.77,1.56-1.92,1.56A1.72,1.72,0,0,1,64.67,121.68Z"/><path d="M72.64,118.17h.74v.92h.06a1.45,1.45,0,0,1,1.35-.92h.42v.75H74.8c-.9,0-1.41.71-1.41,1.65v2.55h-.75Z"/><path d="M75.87,120.64a2.43,2.43,0,0,1,2.43-2.59,2.34,2.34,0,0,1,2.39,2.53v.33h-4a1.6,1.6,0,0,0,1.69,1.65,1.58,1.58,0,0,0,1.52-.9h.77a2.29,2.29,0,0,1-2.3,1.58A2.42,2.42,0,0,1,75.87,120.64Zm4-.39a1.52,1.52,0,0,0-1.59-1.52,1.61,1.61,0,0,0-1.62,1.52Z"/><path d="M81.64,120.65a2.42,2.42,0,0,1,2.41-2.6,2,2,0,0,1,1.74.92h0v-.8h.75v5h-.72v-.78h-.06a2,2,0,0,1-1.71.9A2.42,2.42,0,0,1,81.64,120.65Zm4.23,0a1.74,1.74,0,1,0-1.72,1.91A1.76,1.76,0,0,0,85.87,120.65Z"/><path d="M87.83,120.65a2.41,2.41,0,0,1,2.4-2.6A2,2,0,0,1,92,119H92v-3h.75v7.13h-.72v-.78H92a2,2,0,0,1-1.71.9A2.41,2.41,0,0,1,87.83,120.65Zm4.23,0a1.74,1.74,0,1,0-1.72,1.91A1.76,1.76,0,0,0,92.06,120.65Z"/><path d="M38.2,132.54H39a1.46,1.46,0,0,0,1.63,1.39c.88,0,1.51-.43,1.51-1.12,0-2.08-3.68-.63-3.68-3.29a1.9,1.9,0,0,1,2.13-1.78,2,2,0,0,1,2.18,1.93H42c0-.76-.5-1.23-1.4-1.23s-1.35.53-1.35,1.08c0,1.81,3.68.55,3.68,3.24,0,1.05-.85,1.88-2.3,1.88A2.19,2.19,0,0,1,38.2,132.54Z"/><path d="M44.67,133v-2.82h-.93v-.63h.74a.23.23,0,0,0,.24-.25v-1.19h.7v1.44h1.52v.63H45.42V133c0,.53.2.84.77.84h.69v.66h-.74A1.34,1.34,0,0,1,44.67,133Z"/><path d="M47.89,132.05a2.58,2.58,0,1,1,2.58,2.59A2.53,2.53,0,0,1,47.89,132.05Zm4.39,0A1.81,1.81,0,1,0,50.47,134,1.8,1.8,0,0,0,52.28,132.05Z"/><path d="M54.38,129.58h.74v.92h.06a1.43,1.43,0,0,1,1.35-.92H57v.75h-.41c-.91,0-1.41.7-1.41,1.64v2.55h-.75Z"/><path d="M58.09,136h.38a.88.88,0,0,0,.92-.64l.23-.59-2-5.21h.84L60,133.76H60l1.54-4.18h.85l-2.36,6.07a1.39,1.39,0,0,1-1.45,1.06h-.52Z"/><path d="M67,133.74h-.06v.78h-.72v-7.13H67v3H67a2,2,0,0,1,1.74-.92,2.6,2.6,0,0,1-.06,5.19A2,2,0,0,1,67,133.74Zm3.4-1.68A1.74,1.74,0,1,0,68.66,134,1.72,1.72,0,0,0,70.4,132.06Z"/><path d="M72.12,132.05a2.58,2.58,0,1,1,2.58,2.59A2.53,2.53,0,0,1,72.12,132.05Zm4.39,0A1.81,1.81,0,1,0,74.7,134,1.8,1.8,0,0,0,76.51,132.05Z"/><path d="M78.23,132.05a2.58,2.58,0,1,1,2.58,2.59A2.52,2.52,0,0,1,78.23,132.05Zm4.39,0A1.81,1.81,0,1,0,80.81,134,1.8,1.8,0,0,0,82.62,132.05Z"/><path d="M87.87,134.52l-1.57-2.47-.83.88v1.59h-.75v-7.13h.75v4.51h.06l2.12-2.32h.95l-1.8,1.92,1.92,3Z"/><path d="M281.53,55.46h-2v-.71h4.84v.71h-2v5.95h-.77Z"/><path d="M284.23,58.93a2.58,2.58,0,1,1,2.58,2.6A2.53,2.53,0,0,1,284.23,58.93Zm4.39,0a1.81,1.81,0,1,0-1.81,1.92A1.8,1.8,0,0,0,288.62,58.93Z"/><path d="M290.63,59.57V56.46h.75v3.08a1.26,1.26,0,0,0,1.27,1.31A1.38,1.38,0,0,0,294,59.43v-3h.75v4.95H294v-.73H294a1.61,1.61,0,0,1-1.51.85A1.81,1.81,0,0,1,290.63,59.57Z"/><path d="M296,58.93a2.51,2.51,0,0,1,2.53-2.59,2.34,2.34,0,0,1,2.34,1.75h-.78A1.57,1.57,0,0,0,298.57,57a1.92,1.92,0,0,0,0,3.83,1.57,1.57,0,0,0,1.54-1.07h.77a2.33,2.33,0,0,1-2.34,1.75A2.5,2.5,0,0,1,296,58.93Z"/><path d="M302.23,54.28H303v2.91H303a1.64,1.64,0,0,1,1.53-.85,1.83,1.83,0,0,1,1.86,2v3.11h-.75V58.35A1.27,1.27,0,0,0,304.39,57,1.37,1.37,0,0,0,303,58.4v3h-.75Z"/><path d="M283.15,66.15h.77v6h2.88v.7h-3.65Z"/><path d="M288,71v-3.1h.75V71a1.25,1.25,0,0,0,1.27,1.3,1.38,1.38,0,0,0,1.39-1.42v-3h.75v4.94h-.75v-.72h-.06a1.61,1.61,0,0,1-1.51.84A1.81,1.81,0,0,1,288,71Z"/><path d="M293.81,67.87h.75v.71h.05a1.57,1.57,0,0,1,1.45-.84,1.68,1.68,0,0,1,1.56.9h.06a1.65,1.65,0,0,1,1.57-.9,1.75,1.75,0,0,1,1.82,1.87v3.2h-.75v-3c0-.93-.47-1.4-1.2-1.4a1.29,1.29,0,0,0-1.3,1.41v3h-.75v-3.1a1.18,1.18,0,0,0-1.23-1.26,1.3,1.3,0,0,0-1.28,1.38v3h-.75Z"/><path d="M302.53,66.42a.55.55,0,1,1,.54.55A.53.53,0,0,1,302.53,66.42Zm.15,1.45h.75v4.94h-.75Z"/><path d="M283.15,171.75h.77v2.92h3.54v-2.92h.77v6.65h-.77v-3h-3.54v3h-.77Z"/><path d="M289.94,176.57v-3.11h.75v3.08a1.25,1.25,0,0,0,1.27,1.3,1.38,1.38,0,0,0,1.39-1.42v-3h.75v4.94h-.75v-.72h-.06a1.61,1.61,0,0,1-1.51.85A1.82,1.82,0,0,1,289.94,176.57Z"/><path d="M295.73,179.17h.72a1.31,1.31,0,0,0,1.43.89,1.51,1.51,0,0,0,1.69-1.66v-.78h-.06a2,2,0,0,1-1.71.91,2.6,2.6,0,0,1-.06-5.19,2,2,0,0,1,1.74.92h.06v-.8h.75v4.94a2.17,2.17,0,0,1-2.41,2.31A2,2,0,0,1,295.73,179.17Zm3.84-3.23a1.74,1.74,0,0,0-1.74-1.92,1.76,1.76,0,0,0-1.73,1.92,1.73,1.73,0,0,0,1.74,1.91A1.76,1.76,0,0,0,299.57,175.94Z"/><path d="M283.15,183.15h.77v6h2.87v.69h-3.64Z"/><path d="M288,188v-3.11h.75v3.08a1.25,1.25,0,0,0,1.27,1.3,1.37,1.37,0,0,0,1.39-1.41v-3h.75v4.94h-.75v-.72h-.06a1.61,1.61,0,0,1-1.51.85A1.82,1.82,0,0,1,288,188Z"/><path d="M293.8,184.86h.76v.71h.05a1.58,1.58,0,0,1,1.45-.83,1.68,1.68,0,0,1,1.56.9h.06a1.63,1.63,0,0,1,1.57-.9,1.75,1.75,0,0,1,1.82,1.86v3.2h-.75v-3c0-.93-.47-1.41-1.2-1.41a1.29,1.29,0,0,0-1.3,1.42v2.94h-.75v-3.09a1.19,1.19,0,0,0-1.23-1.27,1.3,1.3,0,0,0-1.28,1.39v3h-.76Z"/><path d="M302.53,183.42a.55.55,0,0,1,1.09,0,.55.55,0,1,1-1.09,0Zm.15,1.44h.75v4.94h-.75Z"/><line class="cls-4" x1="63.39" y1="61.82" x2="63.39" y2="92.03"/><polygon points="60.48 90.05 63.39 100.89 66.29 90.05 60.48 90.05"/><path d="M52,40.5h.77a1.46,1.46,0,0,0,1.63,1.39c.87,0,1.5-.43,1.5-1.12,0-2.08-3.68-.63-3.68-3.29a1.9,1.9,0,0,1,2.13-1.78,2,2,0,0,1,2.19,1.93h-.79c0-.76-.5-1.22-1.41-1.22S53,36.93,53,37.48c0,1.82,3.69.55,3.69,3.24,0,1.05-.85,1.88-2.31,1.88A2.19,2.19,0,0,1,52,40.5Z"/><path d="M58.46,41V38.17h-.94v-.63h.75a.23.23,0,0,0,.23-.25V36.1h.71v1.44h1.52v.63H59.21V41c0,.53.2.84.77.84h.68v.66h-.73A1.33,1.33,0,0,1,58.46,41Z"/><path d="M61.68,40a2.43,2.43,0,0,1,2.4-2.61,2,2,0,0,1,1.74.93h.06v-.8h.75v4.94h-.72V41.7h-.06a2,2,0,0,1-1.71.9A2.42,2.42,0,0,1,61.68,40Zm4.23,0a1.74,1.74,0,1,0-1.72,1.91A1.76,1.76,0,0,0,65.91,40Z"/><path d="M68.24,37.54H69v.92H69a1.43,1.43,0,0,1,1.35-.92h.42v.75H70.4A1.45,1.45,0,0,0,69,39.93v2.55h-.75Z"/><path d="M72.5,41V38.17h-.93v-.63h.74a.23.23,0,0,0,.24-.25V36.1h.7v1.44h1.52v.63H73.25V41c0,.53.2.84.77.84h.69v.66H74A1.33,1.33,0,0,1,72.5,41Z"/><line class="cls-4" x1="238.12" y1="61.82" x2="238.12" y2="186.41"/><line class="cls-4" x1="237.95" y1="186.53" x2="242.54" y2="186.53"/><polygon points="240.56 189.44 251.4 186.53 240.56 183.62 240.56 189.44"/><line class="cls-4" x1="237.95" y1="61.78" x2="243.28" y2="61.78"/><polygon points="241.3 64.69 252.14 61.78 241.3 58.88 241.3 64.69"/><rect class="cls-3" x="151.95" y="92.96" width="61.2" height="61.2" rx="6.68" transform="translate(-33.9 165.27) rotate(-45)"/><path d="M171,112.74a3.36,3.36,0,0,1,3.42-3.45,3.19,3.19,0,0,1,3.13,2.25h-.83a2.33,2.33,0,0,0-2.3-1.53,2.73,2.73,0,0,0,0,5.46,2.25,2.25,0,0,0,2.27-1.53h.86a3.14,3.14,0,0,1-3.14,2.25A3.33,3.33,0,0,1,171,112.74Z"/><path d="M178.83,108.94h.75v2.91h.06a1.64,1.64,0,0,1,1.53-.85,1.84,1.84,0,0,1,1.87,2v3.11h-.75V113a1.27,1.27,0,0,0-1.3-1.3,1.37,1.37,0,0,0-1.41,1.36v3h-.75Z"/><path d="M184.5,109.68a.55.55,0,1,1,.54.55A.53.53,0,0,1,184.5,109.68Zm.15,1.45h.75v4.94h-.75Z"/><path d="M187,115v-6.07h.76V115c0,.25.12.4.36.4h.23v.66H188A.93.93,0,0,1,187,115Z"/><path d="M189.21,113.61a2.43,2.43,0,0,1,2.41-2.61,2,2,0,0,1,1.73.93h.06v-3h.75v7.13h-.72v-.78h-.06a2,2,0,0,1-1.71.9A2.42,2.42,0,0,1,189.21,113.61Zm4.23,0a1.74,1.74,0,1,0-1.72,1.91A1.76,1.76,0,0,0,193.44,113.61Z"/><path d="M155,120.82h.77v6.65H155Z"/><path d="M157.61,122.53h.75v.72h.06a1.6,1.6,0,0,1,1.51-.84,1.82,1.82,0,0,1,1.85,2v3.11H161v-3.06a1.25,1.25,0,0,0-1.28-1.3,1.38,1.38,0,0,0-1.39,1.42v2.94h-.75Z"/><path d="M163.85,126v-2.81h-.94v-.64h.75a.23.23,0,0,0,.23-.25v-1.19h.71v1.44h1.52v.64H164.6V126c0,.53.2.85.77.85h.68v.65h-.73A1.33,1.33,0,0,1,163.85,126Z"/><path d="M167.07,125a2.41,2.41,0,0,1,2.42-2.59,2.34,2.34,0,0,1,2.4,2.52v.34h-4a1.7,1.7,0,0,0,3.2.75h.78a2.3,2.3,0,0,1-2.3,1.58A2.42,2.42,0,0,1,167.07,125Zm4-.4a1.52,1.52,0,0,0-1.6-1.51,1.61,1.61,0,0,0-1.62,1.51Z"/><path d="M173.21,122.53H174v.92h0a1.44,1.44,0,0,1,1.35-.92h.42v.75h-.41a1.45,1.45,0,0,0-1.41,1.64v2.55h-.75Z"/><path d="M176.45,125a2.41,2.41,0,0,1,2.4-2.6,2,2,0,0,1,1.74.92h.06v-.8h.75v4.94h-.72v-.78h-.06a2,2,0,0,1-1.71.91A2.42,2.42,0,0,1,176.45,125Zm4.23,0a1.73,1.73,0,0,0-1.74-1.92,1.76,1.76,0,0,0-1.73,1.92,1.73,1.73,0,0,0,1.75,1.91A1.76,1.76,0,0,0,180.68,125Z"/><path d="M182.63,125a2.51,2.51,0,0,1,2.53-2.59,2.34,2.34,0,0,1,2.34,1.75h-.78a1.58,1.58,0,0,0-1.54-1.07,1.91,1.91,0,0,0,0,3.82,1.57,1.57,0,0,0,1.54-1.06h.77a2.34,2.34,0,0,1-2.34,1.75A2.5,2.5,0,0,1,182.63,125Z"/><path d="M189.29,126v-2.81h-.93v-.64h.74a.23.23,0,0,0,.24-.25v-1.19h.7v1.44h1.52v.64H190V126c0,.53.2.85.77.85h.69v.65h-.74A1.33,1.33,0,0,1,189.29,126Z"/><path d="M192.74,121.08a.55.55,0,1,1,.54.56A.53.53,0,0,1,192.74,121.08Zm.15,1.45h.75v4.94h-.75Z"/><path d="M194.88,125a2.58,2.58,0,1,1,2.58,2.6A2.52,2.52,0,0,1,194.88,125Zm4.39,0a1.81,1.81,0,1,0-1.81,1.91A1.8,1.8,0,0,0,199.27,125Z"/><path d="M201.37,122.53h.75v.72h.06a1.6,1.6,0,0,1,1.51-.84,1.81,1.81,0,0,1,1.84,2v3.11h-.75v-3.06a1.25,1.25,0,0,0-1.27-1.3,1.38,1.38,0,0,0-1.39,1.42v2.94h-.75Z"/><path d="M206.86,126h.73c.09.59.51.9,1.23.9s1.15-.36,1.15-.86c0-1.39-3-.34-3-2.3,0-.83.75-1.37,1.79-1.37a1.62,1.62,0,0,1,1.75,1.42h-.72c-.07-.46-.42-.78-1.08-.78s-1,.31-1,.73c0,1.26,3,.21,3,2.26,0,.93-.77,1.56-1.92,1.56A1.72,1.72,0,0,1,206.86,126Z"/><path d="M160.45,133.93h.82l1.19,4.09h.06l1.31-4.09h.86L166,138h.06l1.2-4.09h.82l-1.55,4.95h-1l-1.26-4h-.06l-1.27,4h-1Z"/><path d="M169.06,132.49a.55.55,0,0,1,1.09,0,.55.55,0,1,1-1.09,0Zm.15,1.44H170v4.95h-.75Z"/><path d="M172,137.38v-2.81h-.93v-.64h.74a.23.23,0,0,0,.24-.25V132.5h.7v1.43h1.52v.64h-1.52v2.8c0,.54.2.85.77.85h.69v.66h-.74A1.34,1.34,0,0,1,172,137.38Z"/><path d="M175.63,131.75h.75v2.9h.06a1.65,1.65,0,0,1,1.53-.84,1.83,1.83,0,0,1,1.86,2v3.11h-.75v-3.07a1.27,1.27,0,0,0-1.29-1.3,1.37,1.37,0,0,0-1.41,1.36v3h-.75Z"/><path d="M184.2,132.22H185v6h2.87v.7H184.2Z"/><path d="M189.08,137v-3.11h.75V137a1.25,1.25,0,0,0,1.27,1.3,1.37,1.37,0,0,0,1.39-1.41v-3h.75v4.95h-.75v-.73h-.06a1.61,1.61,0,0,1-1.51.85A1.82,1.82,0,0,1,189.08,137Z"/><path d="M194.85,133.93h.76v.71h0a1.58,1.58,0,0,1,1.45-.83,1.68,1.68,0,0,1,1.56.9h.06a1.63,1.63,0,0,1,1.57-.9,1.75,1.75,0,0,1,1.82,1.86v3.21h-.75v-3c0-.93-.47-1.41-1.2-1.41a1.29,1.29,0,0,0-1.3,1.42v2.95h-.75v-3.1a1.19,1.19,0,0,0-1.23-1.27,1.3,1.3,0,0,0-1.28,1.39v3h-.76Z"/><path d="M203.58,132.49a.55.55,0,0,1,1.09,0,.55.55,0,1,1-1.09,0Zm.15,1.44h.75v4.95h-.75Z"/><path d="M279.52,118.25h.77a1.46,1.46,0,0,0,1.63,1.39c.88,0,1.51-.43,1.51-1.12,0-2.08-3.68-.63-3.68-3.29a1.9,1.9,0,0,1,2.13-1.78,2,2,0,0,1,2.18,1.93h-.79c0-.76-.5-1.22-1.4-1.22s-1.35.52-1.35,1.07c0,1.82,3.69.55,3.69,3.24,0,1-.86,1.89-2.31,1.89A2.21,2.21,0,0,1,279.52,118.25Z"/><path d="M285.53,113.1h.76V116h0a1.64,1.64,0,0,1,1.53-.84,1.83,1.83,0,0,1,1.87,2v3.11H289v-3.06a1.27,1.27,0,0,0-1.3-1.3,1.36,1.36,0,0,0-1.4,1.36v3h-.76Z"/><path d="M291,117.77a2.42,2.42,0,0,1,2.41-2.6,2,2,0,0,1,1.73.92h.06v-.8h.75v4.94h-.72v-.78h-.06a2,2,0,0,1-1.71.91A2.43,2.43,0,0,1,291,117.77Zm4.23,0a1.74,1.74,0,1,0-1.72,1.91A1.76,1.76,0,0,0,295.2,117.77Z"/><path d="M300.68,120.23l-1.57-2.47-.82.88v1.59h-.75V113.1h.75v4.52h0l2.12-2.33h1l-1.79,1.92,1.92,3Z"/><path d="M302,117.76a2.41,2.41,0,0,1,2.42-2.59,2.34,2.34,0,0,1,2.4,2.52V118h-4a1.59,1.59,0,0,0,1.69,1.64,1.55,1.55,0,0,0,1.51-.89h.78a2.29,2.29,0,0,1-2.3,1.58A2.42,2.42,0,0,1,302,117.76Zm4-.4a1.52,1.52,0,0,0-1.6-1.51,1.6,1.6,0,0,0-1.61,1.51Z"/><path d="M283.15,125h.77v6h2.88v.69h-3.65Z"/><path d="M288,129.8v-3.11h.75v3.08a1.25,1.25,0,0,0,1.27,1.3,1.37,1.37,0,0,0,1.39-1.41v-3h.75v4.94h-.75v-.72h-.06a1.6,1.6,0,0,1-1.51.85A1.82,1.82,0,0,1,288,129.8Z"/><path d="M293.81,126.69h.75v.71h.05a1.58,1.58,0,0,1,1.45-.83,1.68,1.68,0,0,1,1.56.9h.06a1.63,1.63,0,0,1,1.57-.9,1.75,1.75,0,0,1,1.82,1.86v3.2h-.75v-2.95c0-.93-.47-1.41-1.2-1.41a1.29,1.29,0,0,0-1.3,1.42v2.94h-.75v-3.09a1.19,1.19,0,0,0-1.23-1.27,1.3,1.3,0,0,0-1.28,1.39v3h-.75Z"/><path d="M302.53,125.25a.55.55,0,1,1,.54.55A.53.53,0,0,1,302.53,125.25Zm.15,1.44h.75v4.94h-.75Z"/><line class="cls-4" x1="347.92" y1="61.82" x2="347.92" y2="186.93"/><line class="cls-4" x1="347.12" y1="186.67" x2="333.93" y2="186.67"/><line class="cls-4" x1="348.18" y1="61.56" x2="333.93" y2="61.56"/><line class="cls-5" x1="367.38" y1="224.51" x2="367.38" y2="123.53"/><line class="cls-5" x1="367.38" y1="225.43" x2="183.76" y2="225.43"/><line class="cls-5" x1="182.36" y1="225.43" x2="182.36" y2="172.78"/><polygon points="185.27 174.76 182.36 163.92 179.46 174.76 185.27 174.76"/><line class="cls-4" x1="105.32" y1="124.59" x2="129.09" y2="124.59"/><polygon points="127.11 127.5 137.95 124.59 127.11 121.69 127.11 127.5"/><line class="cls-4" x1="223.54" y1="124.62" x2="243.81" y2="124.62"/><polygon points="241.83 127.52 252.67 124.62 241.83 121.71 241.83 127.52"/><line class="cls-4" x1="347.92" y1="123.24" x2="369.6" y2="123.24"/><polygon points="367.62 126.15 378.46 123.25 367.62 120.34 367.62 126.15"/><path d="M497.35,118.78h3.79v.7h-3v2.22h2.6v.69h-2.6v2.35h3.13v.69h-3.9Z"/><path d="M502.57,120.49h.76v.72h.05a1.62,1.62,0,0,1,1.51-.84,1.82,1.82,0,0,1,1.85,2v3.1H506v-3.06a1.25,1.25,0,0,0-1.28-1.3,1.37,1.37,0,0,0-1.38,1.42v2.94h-.76Z"/><path d="M508,123a2.42,2.42,0,0,1,2.41-2.6,2,2,0,0,1,1.74.92h0v-3h.75v7.13h-.72v-.77h-.06a2,2,0,0,1-1.71.9A2.43,2.43,0,0,1,508,123Zm4.23,0a1.74,1.74,0,1,0-1.72,1.91A1.76,1.76,0,0,0,512.2,123Z"/><path d="M407.17,109.17a3.36,3.36,0,0,1,3.42-3.45,3.18,3.18,0,0,1,3.13,2.25h-.83a2.33,2.33,0,0,0-2.3-1.53,2.73,2.73,0,0,0,0,5.46,2.27,2.27,0,0,0,2.28-1.53h.85a3.14,3.14,0,0,1-3.14,2.25A3.34,3.34,0,0,1,407.17,109.17Z"/><path d="M415.05,105.37h.75v2.91h.06a1.64,1.64,0,0,1,1.53-.85,1.83,1.83,0,0,1,1.86,2v3.11h-.75v-3.06a1.26,1.26,0,0,0-1.29-1.3,1.37,1.37,0,0,0-1.41,1.36v3h-.75Z"/><path d="M420.71,106.11a.55.55,0,1,1,.54.55A.53.53,0,0,1,420.71,106.11Zm.15,1.45h.76v4.94h-.76Z"/><path d="M423.23,111.44v-6.07H424v6.07c0,.25.12.39.36.39h.23v.67h-.36A.93.93,0,0,1,423.23,111.44Z"/><path d="M425.42,110a2.43,2.43,0,0,1,2.41-2.61,2,2,0,0,1,1.74.93h.06v-3h.75v7.13h-.72v-.78h-.06a2,2,0,0,1-1.71.9A2.42,2.42,0,0,1,425.42,110Zm4.24,0a1.74,1.74,0,0,0-1.74-1.92,1.76,1.76,0,0,0-1.73,1.92,1.73,1.73,0,0,0,1.74,1.91A1.76,1.76,0,0,0,429.66,110Z"/><path d="M392,117.25h2.39a1.91,1.91,0,0,1,2,2,2,2,0,0,1-2,2h-1.62v2.63H392Zm2.32,3.33a1.26,1.26,0,0,0,1.31-1.34,1.24,1.24,0,0,0-1.31-1.31h-1.55v2.65Z"/><path d="M397.63,122.85v-6.08h.75v6.08a.35.35,0,0,0,.37.39H399v.66h-.36A.93.93,0,0,1,397.63,122.85Z"/><path d="M399.83,121.44a2.41,2.41,0,0,1,2.4-2.6,2,2,0,0,1,1.74.92H404V119h.75v4.94h-.72v-.78H404a2,2,0,0,1-1.71.91A2.42,2.42,0,0,1,399.83,121.44Zm4.23,0a1.74,1.74,0,1,0-1.72,1.91A1.76,1.76,0,0,0,404.06,121.44Z"/><path d="M406,121.43a2.51,2.51,0,0,1,2.53-2.59,2.33,2.33,0,0,1,2.34,1.74h-.78a1.58,1.58,0,0,0-1.54-1.06,1.91,1.91,0,0,0,0,3.82,1.57,1.57,0,0,0,1.54-1.06h.77a2.34,2.34,0,0,1-2.34,1.75A2.5,2.5,0,0,1,406,121.43Z"/><path d="M411.84,121.43a2.41,2.41,0,0,1,2.42-2.59,2.34,2.34,0,0,1,2.4,2.52v.34h-4a1.59,1.59,0,0,0,1.69,1.64,1.57,1.57,0,0,0,1.51-.89h.78a2.3,2.3,0,0,1-2.3,1.58A2.42,2.42,0,0,1,411.84,121.43Zm4-.4a1.52,1.52,0,0,0-1.6-1.51,1.59,1.59,0,0,0-1.61,1.51Z"/><path d="M417.7,122.47h.73c.09.59.51.9,1.23.9s1.15-.36,1.15-.87c0-1.38-3-.33-3-2.29,0-.83.75-1.37,1.79-1.37a1.62,1.62,0,0,1,1.75,1.42h-.72c-.07-.46-.42-.78-1.08-.78s-1,.31-1,.73c0,1.26,3,.21,3,2.26,0,.93-.77,1.56-1.92,1.56A1.72,1.72,0,0,1,417.7,122.47Z"/><path d="M425.77,117.25h.77v6h2.87v.69h-3.64Z"/><path d="M430.64,122.07V119h.75V122a1.25,1.25,0,0,0,1.28,1.3,1.37,1.37,0,0,0,1.38-1.42v-3h.75v4.94h-.75v-.72H434a1.61,1.61,0,0,1-1.51.85A1.82,1.82,0,0,1,430.64,122.07Z"/><path d="M436.42,119h.75v.71h.06a1.55,1.55,0,0,1,1.44-.83,1.67,1.67,0,0,1,1.56.9h.07a1.62,1.62,0,0,1,1.57-.9,1.75,1.75,0,0,1,1.81,1.86v3.2h-.75v-3c0-.94-.47-1.41-1.2-1.41a1.29,1.29,0,0,0-1.3,1.42v2.94h-.75v-3.1a1.18,1.18,0,0,0-1.23-1.26,1.3,1.3,0,0,0-1.28,1.39v3h-.75Z"/><path d="M445.14,117.51a.55.55,0,0,1,1.1,0,.55.55,0,1,1-1.1,0Zm.15,1.45H446v4.94h-.75Z"/><path d="M387.55,132.83a2.58,2.58,0,1,1,2.58,2.6A2.52,2.52,0,0,1,387.55,132.83Zm4.39,0a1.81,1.81,0,1,0-1.81,1.91A1.8,1.8,0,0,0,391.94,132.83Z"/><path d="M394,130.36h.75v.72h.06a1.62,1.62,0,0,1,1.51-.84,1.81,1.81,0,0,1,1.84,2v3.1h-.75v-3.06a1.25,1.25,0,0,0-1.27-1.3,1.38,1.38,0,0,0-1.39,1.42v2.94H394Z"/><path d="M402.05,133.33h.77a1.46,1.46,0,0,0,1.64,1.38c.87,0,1.5-.42,1.5-1.12,0-2.08-3.68-.62-3.68-3.29a1.89,1.89,0,0,1,2.13-1.77,2,2,0,0,1,2.18,1.93h-.79c0-.76-.5-1.23-1.4-1.23s-1.35.52-1.35,1.07c0,1.82,3.69.56,3.69,3.25,0,1-.86,1.88-2.31,1.88A2.2,2.2,0,0,1,402.05,133.33Z"/><path d="M408.07,130.36h.72v.78h0a2,2,0,0,1,1.72-.9,2.6,2.6,0,0,1,.05,5.19,2.06,2.06,0,0,1-1.74-.92h-.05v3h-.75Zm4.18,2.46a1.73,1.73,0,0,0-1.74-1.91,1.76,1.76,0,0,0-1.72,1.91,1.73,1.73,0,0,0,1.74,1.92A1.75,1.75,0,0,0,412.25,132.82Z"/><path d="M414,132.84a2.41,2.41,0,0,1,2.4-2.6,2,2,0,0,1,1.74.92h.06v-.8h.75v4.94h-.72v-.77h-.06a2,2,0,0,1-1.71.9A2.42,2.42,0,0,1,414,132.84Zm4.23,0a1.74,1.74,0,1,0-1.72,1.91A1.76,1.76,0,0,0,418.2,132.84Z"/><path d="M420.15,132.83a2.51,2.51,0,0,1,2.53-2.59A2.34,2.34,0,0,1,425,132h-.78a1.58,1.58,0,0,0-1.54-1.07,1.91,1.91,0,0,0,0,3.82,1.56,1.56,0,0,0,1.54-1.06H425a2.34,2.34,0,0,1-2.34,1.75A2.5,2.5,0,0,1,420.15,132.83Z"/><path d="M426,132.83a2.41,2.41,0,0,1,2.42-2.59,2.34,2.34,0,0,1,2.4,2.53v.33h-4a1.7,1.7,0,0,0,3.2.75h.78a2.3,2.3,0,0,1-2.3,1.58A2.42,2.42,0,0,1,426,132.83Zm4-.4a1.53,1.53,0,0,0-1.6-1.51,1.61,1.61,0,0,0-1.62,1.51Z"/><path d="M431.84,133.87h.73c.09.59.51.9,1.23.9s1.15-.36,1.15-.86c0-1.39-3-.34-3-2.29,0-.84.75-1.38,1.79-1.38a1.62,1.62,0,0,1,1.75,1.42h-.73c-.06-.46-.41-.78-1.07-.78s-1,.31-1,.74c0,1.25,3,.21,3,2.25,0,.93-.77,1.56-1.92,1.56A1.71,1.71,0,0,1,431.84,133.87Z"/><path d="M437.15,128.17h.75v2.91H438a1.65,1.65,0,0,1,1.53-.84,1.83,1.83,0,0,1,1.86,2v3.1h-.75v-3.06a1.27,1.27,0,0,0-1.29-1.3,1.37,1.37,0,0,0-1.41,1.36v3h-.75Z"/><path d="M442.81,128.92a.55.55,0,0,1,1.1,0,.55.55,0,1,1-1.1,0Zm.15,1.44h.76v4.94H443Z"/><path d="M445.33,130.36h.72v.78h.06a2,2,0,0,1,1.71-.9,2.6,2.6,0,0,1,.06,5.19,2,2,0,0,1-1.74-.92h-.06v3h-.75Zm4.18,2.46a1.72,1.72,0,0,0-1.74-1.91,1.76,1.76,0,0,0-1.72,1.91,1.74,1.74,0,1,0,3.46,0Z"/><line class="cls-4" x1="459.4" y1="123.25" x2="473.5" y2="123.25"/><polygon points="471.52 126.16 482.36 123.25 471.52 120.35 471.52 126.16"/><path class="cls-2" d="M57.84,280.44A1.75,1.75,0,0,1,56.08,282H37.16a1.5,1.5,0,0,1-1.49-1.51V269.62a1.41,1.41,0,0,1,1.49-1.39H56.08c.82,0,1.76.56,1.76,1.39Z"/><path d="M66.14,272.66h2.38a1.91,1.91,0,0,1,2,2,2,2,0,0,1-2,2H66.91v2.63h-.77ZM68.46,276a1.28,1.28,0,0,0,1.31-1.35,1.25,1.25,0,0,0-1.31-1.31H66.91V276Z"/><path d="M71.22,276.85a2.42,2.42,0,0,1,2.41-2.6,2,2,0,0,1,1.74.92h0v-.8h.75v4.94h-.72v-.78h-.06a2,2,0,0,1-1.71.91A2.43,2.43,0,0,1,71.22,276.85Zm4.23,0a1.74,1.74,0,1,0-1.72,1.91A1.76,1.76,0,0,0,75.45,276.85Z"/><path d="M77.79,274.37h.74v.92h0a1.44,1.44,0,0,1,1.35-.92h.42v.75h-.41c-.9,0-1.4.7-1.4,1.64v2.55h-.75Z"/><path d="M81,276.84a2.41,2.41,0,0,1,2.42-2.59,2.34,2.34,0,0,1,2.4,2.52v.34h-4a1.7,1.7,0,0,0,3.2.75h.78a2.3,2.3,0,0,1-2.3,1.58A2.42,2.42,0,0,1,81,276.84Zm4-.4a1.52,1.52,0,0,0-1.6-1.51,1.59,1.59,0,0,0-1.61,1.51Z"/><path d="M87.17,274.37h.75v.72h0a1.6,1.6,0,0,1,1.51-.84,1.82,1.82,0,0,1,1.85,1.95v3.11h-.75v-3.06A1.25,1.25,0,0,0,89.3,275a1.37,1.37,0,0,0-1.38,1.42v2.94h-.75Z"/><path d="M93.4,277.82V275h-.93v-.64h.74a.23.23,0,0,0,.24-.25v-1.19h.7v1.44h1.52V275H94.15v2.8c0,.53.2.85.77.85h.68v.65h-.73A1.33,1.33,0,0,1,93.4,277.82Z"/><path d="M101.56,272.66h.9l2.56,6.65h-.81l-.6-1.58H100.4l-.6,1.58H99Zm1.79,4.37L102,273.55H102L100.67,277Z"/><path d="M105.59,276.84a2.5,2.5,0,0,1,2.53-2.59,2.34,2.34,0,0,1,2.34,1.75h-.78a1.58,1.58,0,0,0-1.54-1.07,1.91,1.91,0,0,0,0,3.82,1.58,1.58,0,0,0,1.54-1.06h.76a2.32,2.32,0,0,1-2.33,1.75A2.5,2.5,0,0,1,105.59,276.84Z"/><path d="M112.25,277.82V275h-.93v-.64h.74a.23.23,0,0,0,.24-.25v-1.19h.7v1.44h1.52V275H113v2.8c0,.53.2.85.77.85h.69v.65h-.74A1.33,1.33,0,0,1,112.25,277.82Z"/><path d="M115.7,272.92a.55.55,0,0,1,1.09,0,.55.55,0,1,1-1.09,0Zm.15,1.45h.75v4.94h-.75Z"/><path d="M117.84,276.84a2.58,2.58,0,1,1,2.57,2.6A2.52,2.52,0,0,1,117.84,276.84Zm4.39,0a1.81,1.81,0,1,0-1.82,1.91A1.81,1.81,0,0,0,122.23,276.84Z"/><path d="M124.33,274.37h.75v.72h0a1.62,1.62,0,0,1,1.52-.84,1.81,1.81,0,0,1,1.84,1.95v3.11h-.75v-3.06a1.25,1.25,0,0,0-1.28-1.3,1.37,1.37,0,0,0-1.38,1.42v2.94h-.75Z"/><path d="M129.82,277.88h.73c.09.59.5.9,1.23.9s1.15-.36,1.15-.86c0-1.39-3-.34-3-2.3,0-.83.75-1.37,1.79-1.37a1.62,1.62,0,0,1,1.75,1.42h-.73c-.06-.46-.41-.78-1.07-.78s-1,.31-1,.73c0,1.26,3,.21,3,2.26,0,.93-.77,1.56-1.92,1.56A1.71,1.71,0,0,1,129.82,277.88Z"/><path d="M65.66,298.79a3.36,3.36,0,0,1,3.42-3.45,3.18,3.18,0,0,1,3.13,2.25h-.83a2.32,2.32,0,0,0-2.3-1.53,2.73,2.73,0,0,0,0,5.46A2.28,2.28,0,0,0,71.36,300h.85a3.14,3.14,0,0,1-3.14,2.25A3.34,3.34,0,0,1,65.66,298.79Z"/><path d="M73.54,295h.75v2.91h.06a1.64,1.64,0,0,1,1.53-.85,1.83,1.83,0,0,1,1.86,2v3.11H77v-3.06a1.27,1.27,0,0,0-1.29-1.31,1.37,1.37,0,0,0-1.41,1.36v3h-.75Z"/><path d="M79.2,295.73a.55.55,0,0,1,1.1,0,.55.55,0,1,1-1.1,0Zm.15,1.44h.76v4.95h-.76Z"/><path d="M81.72,301.06V295h.75v6.07c0,.25.12.39.36.39h.23v.67H82.7A.93.93,0,0,1,81.72,301.06Z"/><path d="M83.92,299.66a2.41,2.41,0,0,1,2.4-2.61,2,2,0,0,1,1.74.92h.06v-3h.75v7.13h-.72v-.78h-.06a2,2,0,0,1-1.71.9A2.41,2.41,0,0,1,83.92,299.66Zm4.23,0a1.74,1.74,0,1,0-1.73,1.91A1.75,1.75,0,0,0,88.15,299.66Z"/><path d="M90.48,297.17h.74v.93h.06a1.44,1.44,0,0,1,1.35-.93h.42v.75h-.41c-.9,0-1.41.71-1.41,1.65v2.55h-.75Z"/><path d="M93.71,299.65a2.43,2.43,0,0,1,2.43-2.6,2.34,2.34,0,0,1,2.39,2.53v.33h-4a1.6,1.6,0,0,0,1.69,1.65,1.56,1.56,0,0,0,1.51-.9h.78a2.29,2.29,0,0,1-2.3,1.58A2.42,2.42,0,0,1,93.71,299.65Zm4-.4a1.52,1.52,0,0,0-1.59-1.52,1.61,1.61,0,0,0-1.62,1.52Z"/><path d="M99.86,297.17h.75v.73h.06a1.61,1.61,0,0,1,1.51-.85,1.82,1.82,0,0,1,1.84,2v3.11h-.75v-3.06a1.26,1.26,0,0,0-1.27-1.31,1.38,1.38,0,0,0-1.39,1.42v2.95h-.75Z"/><path d="M110.2,295.46h.9l2.56,6.66h-.81l-.6-1.58H109l-.6,1.58h-.81Zm1.79,4.38-1.32-3.48h0l-1.32,3.48Z"/><path d="M114.23,299.65a2.5,2.5,0,0,1,2.52-2.6,2.33,2.33,0,0,1,2.34,1.75h-.78a1.57,1.57,0,0,0-1.54-1.07,1.92,1.92,0,0,0,0,3.83,1.57,1.57,0,0,0,1.54-1.07h.77a2.32,2.32,0,0,1-2.34,1.75A2.49,2.49,0,0,1,114.23,299.65Z"/><path d="M120.89,300.62v-2.81H120v-.64h.74a.22.22,0,0,0,.23-.24v-1.19h.71v1.43h1.52v.64h-1.52v2.81c0,.53.2.84.77.84h.68v.66h-.73A1.34,1.34,0,0,1,120.89,300.62Z"/><path d="M124.33,295.73a.55.55,0,0,1,1.1,0,.55.55,0,1,1-1.1,0Zm.16,1.44h.75v4.95h-.75Z"/><path d="M126.47,299.65a2.58,2.58,0,1,1,2.58,2.59A2.53,2.53,0,0,1,126.47,299.65Zm4.4,0a1.82,1.82,0,1,0-3.63,0,1.82,1.82,0,1,0,3.63,0Z"/><path d="M133,297.17h.75v.73h.06a1.61,1.61,0,0,1,1.51-.85,1.83,1.83,0,0,1,1.85,2v3.11h-.75v-3.06a1.26,1.26,0,0,0-1.28-1.31,1.38,1.38,0,0,0-1.39,1.42v2.95H133Z"/><path d="M138.46,300.68h.73c.08.59.5.9,1.22.9s1.15-.36,1.15-.86c0-1.39-2.95-.33-2.95-2.29,0-.84.75-1.38,1.78-1.38a1.61,1.61,0,0,1,1.75,1.43h-.72c-.07-.47-.42-.78-1.07-.78s-1,.3-1,.73c0,1.25,3,.21,3,2.25,0,.93-.77,1.56-1.92,1.56A1.71,1.71,0,0,1,138.46,300.68Z"/><circle class="cls-1" cx="162.27" cy="275.51" r="8.62"/><path class="cls-1" d="M57.84,302.85a2.11,2.11,0,0,1-1.86,1.8H37.07c-.83,0-1.4-.95-1.4-1.8v-11a1.34,1.34,0,0,1,1.4-1.42H56c.82,0,1.86.57,1.86,1.42Z"/><rect class="cls-3" x="155.81" y="291.94" width="13.7" height="13.7" rx="1.49" transform="translate(-163.63 202.53) rotate(-45)"/><path d="M262.37,293.66h2.38a1.91,1.91,0,0,1,2,2,2,2,0,0,1-2,2h-1.61v2.63h-.77Zm2.32,3.34a1.28,1.28,0,0,0,1.31-1.35,1.25,1.25,0,0,0-1.31-1.31h-1.55V297Z"/><path d="M267.45,297.84a2.58,2.58,0,1,1,2.58,2.6A2.52,2.52,0,0,1,267.45,297.84Zm4.39,0a1.81,1.81,0,1,0-1.81,1.91A1.8,1.8,0,0,0,271.84,297.84Z"/><path d="M273.65,298.88h.74c.08.59.5.9,1.22.9s1.15-.36,1.15-.86c0-1.39-2.95-.34-2.95-2.3,0-.83.75-1.37,1.78-1.37a1.61,1.61,0,0,1,1.75,1.42h-.72a1,1,0,0,0-1.07-.78c-.62,0-1,.31-1,.73,0,1.26,3,.21,3,2.26,0,.93-.78,1.56-1.93,1.56A1.72,1.72,0,0,1,273.65,298.88Z"/><path d="M278.68,298.88h.73c.09.59.51.9,1.23.9s1.15-.36,1.15-.86c0-1.39-3-.34-3-2.3,0-.83.75-1.37,1.79-1.37a1.62,1.62,0,0,1,1.75,1.42h-.72c-.07-.46-.42-.78-1.08-.78s-1,.31-1,.73c0,1.26,3,.21,3,2.26,0,.93-.77,1.56-1.92,1.56A1.72,1.72,0,0,1,278.68,298.88Z"/><path d="M283.84,293.92a.55.55,0,1,1,.54.56A.53.53,0,0,1,283.84,293.92Zm.15,1.45h.75v4.94H284Z"/><path d="M287.14,299.53h-.06v.78h-.72v-7.13h.75v3h.06a2,2,0,0,1,1.74-.92,2.6,2.6,0,0,1-.06,5.19A2,2,0,0,1,287.14,299.53Zm3.4-1.68a1.74,1.74,0,1,0-1.74,1.91A1.72,1.72,0,0,0,290.54,297.85Z"/><path d="M292.49,293.92a.55.55,0,0,1,1.09,0,.55.55,0,1,1-1.09,0Zm.15,1.45h.75v4.94h-.75Z"/><path d="M295,299.26v-6.08h.76v6.08c0,.24.12.39.36.39h.23v.66H296A.93.93,0,0,1,295,299.26Z"/><path d="M297.43,293.92a.55.55,0,0,1,1.09,0,.55.55,0,1,1-1.09,0Zm.15,1.45h.75v4.94h-.75Z"/><path d="M300.4,298.82V296h-.93v-.64h.74a.23.23,0,0,0,.24-.25v-1.19h.7v1.44h1.52V296h-1.52v2.8c0,.53.2.85.77.85h.69v.65h-.73A1.34,1.34,0,0,1,300.4,298.82Z"/><path d="M303.92,301.81h.37a.87.87,0,0,0,.92-.63l.23-.6-2-5.21h.84l1.53,4.18h.06l1.54-4.18h.84l-2.35,6.07a1.41,1.41,0,0,1-1.46,1.06h-.51Z"/><line class="cls-4" x1="239.6" y1="275.88" x2="248.16" y2="275.88"/><polygon points="246.18 278.79 257.02 275.88 246.18 272.98 246.18 278.79"/><line class="cls-5" x1="239.6" y1="296.47" x2="248.16" y2="296.47"/><polygon points="246.18 299.38 257.02 296.47 246.18 293.56 246.18 299.38"/><path d="M262.7,272.51h2.39a1.9,1.9,0,0,1,2,2,2,2,0,0,1-2,2h-1.62v2.64h-.77Zm2.32,3.34a1.26,1.26,0,0,0,1.31-1.34A1.24,1.24,0,0,0,265,273.2h-1.55v2.65Z"/><path d="M267.79,276.7a2.41,2.41,0,0,1,2.4-2.6,2,2,0,0,1,1.74.92H272v-.8h.75v4.95H272v-.78H272a2,2,0,0,1-1.71.9A2.42,2.42,0,0,1,267.79,276.7Zm4.23,0a1.74,1.74,0,1,0-1.72,1.91A1.76,1.76,0,0,0,272,276.7Z"/><path d="M274.81,277.67v-2.81h-.93v-.64h.74a.23.23,0,0,0,.24-.25v-1.18h.7v1.43h1.52v.64h-1.52v2.8c0,.54.2.85.77.85H277v.66h-.73A1.34,1.34,0,0,1,274.81,277.67Z"/><path d="M278.41,272h.75v2.9h.06a1.65,1.65,0,0,1,1.53-.84,1.83,1.83,0,0,1,1.86,2v3.11h-.75V276.1a1.27,1.27,0,0,0-1.29-1.3,1.37,1.37,0,0,0-1.41,1.36v3h-.75Z"/><path d="M183,277.33h.78a1.45,1.45,0,0,0,1.63,1.39c.87,0,1.5-.43,1.5-1.12,0-2.08-3.68-.63-3.68-3.29a1.9,1.9,0,0,1,2.13-1.78,2,2,0,0,1,2.19,1.93h-.79c0-.76-.5-1.22-1.41-1.22s-1.35.52-1.35,1.07c0,1.82,3.69.55,3.69,3.24,0,1.05-.85,1.89-2.31,1.89A2.21,2.21,0,0,1,183,277.33Z"/><path d="M189.52,277.82V275h-.94v-.64h.75a.23.23,0,0,0,.23-.25v-1.19h.71v1.44h1.52V275h-1.52v2.8c0,.53.2.85.77.85h.68v.65H191A1.33,1.33,0,0,1,189.52,277.82Z"/><path d="M192.74,276.85a2.42,2.42,0,0,1,2.4-2.6,2,2,0,0,1,1.74.92h.06v-.8h.75v4.94H197v-.78h-.06a2,2,0,0,1-1.71.91A2.43,2.43,0,0,1,192.74,276.85Zm4.23,0a1.74,1.74,0,1,0-1.72,1.91A1.76,1.76,0,0,0,197,276.85Z"/><path d="M199.3,274.37H200v.92h.06a1.43,1.43,0,0,1,1.35-.92h.42v.75h-.41a1.45,1.45,0,0,0-1.41,1.64v2.55h-.75Z"/><path d="M203.56,277.82V275h-.93v-.64h.74a.23.23,0,0,0,.24-.25v-1.19h.7v1.44h1.52V275h-1.52v2.8c0,.53.2.85.77.85h.69v.65H205A1.33,1.33,0,0,1,203.56,277.82Z"/><path d="M209.71,272.18h.69l-2.88,8.16h-.69Z"/><path d="M211.87,272.66h3.8v.7h-3v2.22h2.61v.69h-2.61v2.35h3.13v.69h-3.9Z"/><path d="M217.1,274.37h.75v.72h.06a1.6,1.6,0,0,1,1.51-.84,1.81,1.81,0,0,1,1.84,1.95v3.11h-.75v-3.06a1.25,1.25,0,0,0-1.27-1.3,1.38,1.38,0,0,0-1.39,1.42v2.94h-.75Z"/><path d="M222.5,276.85a2.41,2.41,0,0,1,2.4-2.6,2,2,0,0,1,1.74.92h.06v-3h.75v7.13h-.72v-.78h-.06a2,2,0,0,1-1.71.91A2.42,2.42,0,0,1,222.5,276.85Zm4.23,0a1.74,1.74,0,1,0-1.72,1.91A1.76,1.76,0,0,0,226.73,276.85Z"/><path d="M183.57,295.46h2a3.12,3.12,0,0,1,3.34,3.33,3.06,3.06,0,0,1-3.34,3.33h-2Zm2,6a2.64,2.64,0,0,0,0-5.27h-1.2v5.27Z"/><path d="M189.83,299.65a2.42,2.42,0,0,1,2.42-2.6,2.34,2.34,0,0,1,2.4,2.53v.33h-4a1.6,1.6,0,0,0,1.69,1.65,1.57,1.57,0,0,0,1.51-.9h.78a2.29,2.29,0,0,1-2.3,1.58A2.42,2.42,0,0,1,189.83,299.65Zm4-.4a1.53,1.53,0,0,0-1.6-1.52,1.6,1.6,0,0,0-1.61,1.52Z"/><path d="M195.6,299.65a2.51,2.51,0,0,1,2.53-2.6,2.33,2.33,0,0,1,2.33,1.75h-.78a1.55,1.55,0,0,0-1.53-1.07,1.92,1.92,0,0,0,0,3.83,1.56,1.56,0,0,0,1.54-1.07h.77a2.32,2.32,0,0,1-2.33,1.75A2.49,2.49,0,0,1,195.6,299.65Z"/><path d="M201.65,295.73a.55.55,0,0,1,1.09,0,.55.55,0,1,1-1.09,0Zm.15,1.44h.75v4.95h-.75Z"/><path d="M203.88,300.68h.74c.08.59.5.9,1.22.9s1.15-.36,1.15-.86c0-1.39-3-.33-3-2.29,0-.84.75-1.38,1.78-1.38a1.62,1.62,0,0,1,1.75,1.43h-.72c-.07-.47-.42-.78-1.08-.78s-1,.3-1,.73c0,1.25,3,.21,3,2.25,0,.93-.77,1.56-1.92,1.56A1.72,1.72,0,0,1,203.88,300.68Z"/><path d="M209,295.73a.55.55,0,0,1,1.1,0,.55.55,0,1,1-1.1,0Zm.15,1.44H210v4.95h-.76Z"/><path d="M211.18,299.65a2.58,2.58,0,1,1,2.58,2.59A2.52,2.52,0,0,1,211.18,299.65Zm4.39,0a1.81,1.81,0,1,0-1.81,1.91A1.81,1.81,0,0,0,215.57,299.65Z"/><path d="M217.67,297.17h.75v.73h.06a1.61,1.61,0,0,1,1.51-.85,1.82,1.82,0,0,1,1.84,2v3.11h-.75v-3.06a1.26,1.26,0,0,0-1.27-1.31,1.38,1.38,0,0,0-1.39,1.42v2.95h-.75Z"/><path d="M223.16,300.68h.73c.09.59.51.9,1.23.9s1.15-.36,1.15-.86c0-1.39-3-.33-3-2.29,0-.84.75-1.38,1.79-1.38a1.62,1.62,0,0,1,1.75,1.43h-.72c-.07-.47-.42-.78-1.08-.78s-1,.3-1,.73c0,1.25,3,.21,3,2.25,0,.93-.77,1.56-1.92,1.56A1.72,1.72,0,0,1,223.16,300.68Z"/><rect class="cls-6" x="23.27" y="260.57" width="291.39" height="53.84" rx="6.33"/></svg>