<svg id="Capa_1" data-name="Capa 1" xmlns="http://www.w3.org/2000/svg" viewBox="0 0 542 326"><defs><style>.cls-1{fill:#7eabdc;}.cls-2{fill:#ebcfa7;}.cls-3,.cls-4,.cls-5,.cls-6{fill:none;stroke-miterlimit:10;}.cls-3{stroke:#ebcfa7;}.cls-3,.cls-6{stroke-width:3px;}.cls-4,.cls-5{stroke:#000;}.cls-5{stroke-dasharray:12 12;}.cls-6{stroke:#5d5d5d;opacity:0.2;}.cls-7{fill:#808285;}.cls-8{fill:#fff;}</style></defs><path class="cls-1" d="M57.84,280.44A1.75,1.75,0,0,1,56.08,282H37.16a1.5,1.5,0,0,1-1.49-1.51V269.62a1.41,1.41,0,0,1,1.49-1.39H56.08c.82,0,1.76.56,1.76,1.39Z"/><path d="M66.14,272.66h2.38a1.91,1.91,0,0,1,2,2,2,2,0,0,1-2,2H66.91v2.63h-.77ZM68.46,276a1.28,1.28,0,0,0,1.31-1.35,1.25,1.25,0,0,0-1.31-1.31H66.91V276Z"/><path d="M71.22,276.85a2.42,2.42,0,0,1,2.41-2.6,2,2,0,0,1,1.74.92h0v-.8h.75v4.94h-.72v-.78h-.06a2,2,0,0,1-1.71.91A2.43,2.43,0,0,1,71.22,276.85Zm4.23,0a1.74,1.74,0,1,0-1.72,1.91A1.76,1.76,0,0,0,75.45,276.85Z"/><path d="M77.79,274.37h.74v.92h0a1.44,1.44,0,0,1,1.35-.92h.42v.75h-.41c-.9,0-1.4.7-1.4,1.64v2.55h-.75Z"/><path d="M81,276.84a2.41,2.41,0,0,1,2.42-2.59,2.34,2.34,0,0,1,2.4,2.52v.34h-4a1.7,1.7,0,0,0,3.2.75h.78a2.3,2.3,0,0,1-2.3,1.58A2.42,2.42,0,0,1,81,276.84Zm4-.4a1.52,1.52,0,0,0-1.6-1.51,1.59,1.59,0,0,0-1.61,1.51Z"/><path d="M87.17,274.37h.75v.72h0a1.6,1.6,0,0,1,1.51-.84,1.82,1.82,0,0,1,1.85,1.95v3.11h-.75v-3.06A1.25,1.25,0,0,0,89.3,275a1.37,1.37,0,0,0-1.38,1.42v2.94h-.75Z"/><path d="M93.4,277.82V275h-.93v-.64h.74a.23.23,0,0,0,.24-.25v-1.19h.7v1.44h1.52V275H94.15v2.8c0,.53.2.85.77.85h.68v.65h-.73A1.33,1.33,0,0,1,93.4,277.82Z"/><path d="M101.56,272.66h.9l2.56,6.65h-.81l-.6-1.58H100.4l-.6,1.58H99Zm1.79,4.37L102,273.55H102L100.67,277Z"/><path d="M105.59,276.84a2.5,2.5,0,0,1,2.53-2.59,2.34,2.34,0,0,1,2.34,1.75h-.78a1.58,1.58,0,0,0-1.54-1.07,1.91,1.91,0,0,0,0,3.82,1.58,1.58,0,0,0,1.54-1.06h.76a2.32,2.32,0,0,1-2.33,1.75A2.5,2.5,0,0,1,105.59,276.84Z"/><path d="M112.25,277.82V275h-.93v-.64h.74a.23.23,0,0,0,.24-.25v-1.19h.7v1.44h1.52V275H113v2.8c0,.53.2.85.77.85h.69v.65h-.74A1.33,1.33,0,0,1,112.25,277.82Z"/><path d="M115.7,272.92a.55.55,0,0,1,1.09,0,.55.55,0,1,1-1.09,0Zm.15,1.45h.75v4.94h-.75Z"/><path d="M117.84,276.84a2.58,2.58,0,1,1,2.57,2.6A2.52,2.52,0,0,1,117.84,276.84Zm4.39,0a1.81,1.81,0,1,0-1.82,1.91A1.81,1.81,0,0,0,122.23,276.84Z"/><path d="M124.33,274.37h.75v.72h0a1.62,1.62,0,0,1,1.52-.84,1.81,1.81,0,0,1,1.84,1.95v3.11h-.75v-3.06a1.25,1.25,0,0,0-1.28-1.3,1.37,1.37,0,0,0-1.38,1.42v2.94h-.75Z"/><path d="M129.82,277.88h.73c.09.59.5.9,1.23.9s1.15-.36,1.15-.86c0-1.39-3-.34-3-2.3,0-.83.75-1.37,1.79-1.37a1.62,1.62,0,0,1,1.75,1.42h-.73c-.06-.46-.41-.78-1.07-.78s-1,.31-1,.73c0,1.26,3,.21,3,2.26,0,.93-.77,1.56-1.92,1.56A1.71,1.71,0,0,1,129.82,277.88Z"/><path d="M65.66,298.79a3.36,3.36,0,0,1,3.42-3.45,3.18,3.18,0,0,1,3.13,2.25h-.83a2.32,2.32,0,0,0-2.3-1.53,2.73,2.73,0,0,0,0,5.46A2.28,2.28,0,0,0,71.36,300h.85a3.14,3.14,0,0,1-3.14,2.25A3.34,3.34,0,0,1,65.66,298.79Z"/><path d="M73.54,295h.75v2.91h.06a1.64,1.64,0,0,1,1.53-.85,1.83,1.83,0,0,1,1.86,2v3.11H77v-3.06a1.27,1.27,0,0,0-1.29-1.31,1.37,1.37,0,0,0-1.41,1.36v3h-.75Z"/><path d="M79.2,295.73a.55.55,0,0,1,1.1,0,.55.55,0,1,1-1.1,0Zm.15,1.44h.76v4.95h-.76Z"/><path d="M81.72,301.06V295h.75v6.07c0,.25.12.39.36.39h.23v.67H82.7A.93.93,0,0,1,81.72,301.06Z"/><path d="M83.92,299.66a2.41,2.41,0,0,1,2.4-2.61,2,2,0,0,1,1.74.92h.06v-3h.75v7.13h-.72v-.78h-.06a2,2,0,0,1-1.71.9A2.41,2.41,0,0,1,83.92,299.66Zm4.23,0a1.74,1.74,0,1,0-1.73,1.91A1.75,1.75,0,0,0,88.15,299.66Z"/><path d="M90.48,297.17h.74v.93h.06a1.44,1.44,0,0,1,1.35-.93h.42v.75h-.41c-.9,0-1.41.71-1.41,1.65v2.55h-.75Z"/><path d="M93.71,299.65a2.43,2.43,0,0,1,2.43-2.6,2.34,2.34,0,0,1,2.39,2.53v.33h-4a1.6,1.6,0,0,0,1.69,1.65,1.56,1.56,0,0,0,1.51-.9h.78a2.29,2.29,0,0,1-2.3,1.58A2.42,2.42,0,0,1,93.71,299.65Zm4-.4a1.52,1.52,0,0,0-1.59-1.52,1.61,1.61,0,0,0-1.62,1.52Z"/><path d="M99.86,297.17h.75v.73h.06a1.61,1.61,0,0,1,1.51-.85,1.82,1.82,0,0,1,1.84,2v3.11h-.75v-3.06a1.26,1.26,0,0,0-1.27-1.31,1.38,1.38,0,0,0-1.39,1.42v2.95h-.75Z"/><path d="M110.2,295.46h.9l2.56,6.66h-.81l-.6-1.58H109l-.6,1.58h-.81Zm1.79,4.38-1.32-3.48h0l-1.32,3.48Z"/><path d="M114.23,299.65a2.5,2.5,0,0,1,2.52-2.6,2.33,2.33,0,0,1,2.34,1.75h-.78a1.57,1.57,0,0,0-1.54-1.07,1.92,1.92,0,0,0,0,3.83,1.57,1.57,0,0,0,1.54-1.07h.77a2.32,2.32,0,0,1-2.34,1.75A2.49,2.49,0,0,1,114.23,299.65Z"/><path d="M120.89,300.62v-2.81H120v-.64h.74a.22.22,0,0,0,.23-.24v-1.19h.71v1.43h1.52v.64h-1.52v2.81c0,.53.2.84.77.84h.68v.66h-.73A1.34,1.34,0,0,1,120.89,300.62Z"/><path d="M124.33,295.73a.55.55,0,0,1,1.1,0,.55.55,0,1,1-1.1,0Zm.16,1.44h.75v4.95h-.75Z"/><path d="M126.47,299.65a2.58,2.58,0,1,1,2.58,2.59A2.53,2.53,0,0,1,126.47,299.65Zm4.4,0a1.82,1.82,0,1,0-3.63,0,1.82,1.82,0,1,0,3.63,0Z"/><path d="M133,297.17h.75v.73h.06a1.61,1.61,0,0,1,1.51-.85,1.83,1.83,0,0,1,1.85,2v3.11h-.75v-3.06a1.26,1.26,0,0,0-1.28-1.31,1.38,1.38,0,0,0-1.39,1.42v2.95H133Z"/><path d="M138.46,300.68h.73c.08.59.5.9,1.22.9s1.15-.36,1.15-.86c0-1.39-2.95-.33-2.95-2.29,0-.84.75-1.38,1.78-1.38a1.61,1.61,0,0,1,1.75,1.43h-.72c-.07-.47-.42-.78-1.07-.78s-1,.3-1,.73c0,1.25,3,.21,3,2.25,0,.93-.77,1.56-1.93,1.56A1.71,1.71,0,0,1,138.46,300.68Z"/><circle class="cls-2" cx="162.27" cy="275.51" r="8.62"/><path class="cls-2" d="M57.84,302.85a2.11,2.11,0,0,1-1.86,1.8H37.07c-.83,0-1.4-.95-1.4-1.8v-11a1.34,1.34,0,0,1,1.4-1.42H56c.82,0,1.86.57,1.86,1.42Z"/><rect class="cls-3" x="155.81" y="291.94" width="13.7" height="13.7" rx="1.49" transform="translate(-163.63 202.53) rotate(-45)"/><path d="M262.37,293.66h2.38a1.91,1.91,0,0,1,2,2,2,2,0,0,1-2,2h-1.61v2.63h-.77Zm2.32,3.34a1.28,1.28,0,0,0,1.31-1.35,1.25,1.25,0,0,0-1.31-1.31h-1.55V297Z"/><path d="M267.45,297.84a2.58,2.58,0,1,1,2.58,2.6A2.52,2.52,0,0,1,267.45,297.84Zm4.39,0a1.81,1.81,0,1,0-1.81,1.91A1.8,1.8,0,0,0,271.84,297.84Z"/><path d="M273.65,298.88h.74c.08.59.5.9,1.22.9s1.15-.36,1.15-.86c0-1.39-2.95-.34-2.95-2.3,0-.83.75-1.37,1.78-1.37a1.61,1.61,0,0,1,1.75,1.42h-.72a1,1,0,0,0-1.07-.78c-.62,0-1,.31-1,.73,0,1.26,3,.21,3,2.26,0,.93-.78,1.56-1.93,1.56A1.72,1.72,0,0,1,273.65,298.88Z"/><path d="M278.68,298.88h.73c.09.59.51.9,1.23.9s1.15-.36,1.15-.86c0-1.39-3-.34-3-2.3,0-.83.75-1.37,1.79-1.37a1.62,1.62,0,0,1,1.75,1.42h-.72c-.07-.46-.42-.78-1.08-.78s-1,.31-1,.73c0,1.26,3,.21,3,2.26,0,.93-.77,1.56-1.92,1.56A1.72,1.72,0,0,1,278.68,298.88Z"/><path d="M283.84,293.92a.55.55,0,1,1,.54.56A.53.53,0,0,1,283.84,293.92Zm.15,1.45h.75v4.94H284Z"/><path d="M287.14,299.53h-.06v.78h-.72v-7.13h.75v3h.06a2,2,0,0,1,1.74-.92,2.6,2.6,0,0,1-.06,5.19A2,2,0,0,1,287.14,299.53Zm3.4-1.68a1.74,1.74,0,1,0-1.74,1.91A1.72,1.72,0,0,0,290.54,297.85Z"/><path d="M292.49,293.92a.55.55,0,0,1,1.09,0,.55.55,0,1,1-1.09,0Zm.15,1.45h.75v4.94h-.75Z"/><path d="M295,299.26v-6.08h.76v6.08c0,.24.12.39.36.39h.23v.66H296A.93.93,0,0,1,295,299.26Z"/><path d="M297.43,293.92a.55.55,0,0,1,1.09,0,.55.55,0,1,1-1.09,0Zm.15,1.45h.75v4.94h-.75Z"/><path d="M300.4,298.82V296h-.93v-.64h.74a.23.23,0,0,0,.24-.25v-1.19h.7v1.44h1.52V296h-1.52v2.8c0,.53.2.85.77.85h.69v.65h-.73A1.34,1.34,0,0,1,300.4,298.82Z"/><path d="M303.92,301.81h.37a.87.87,0,0,0,.92-.63l.23-.6-2-5.21h.84l1.53,4.18h.06l1.54-4.18h.84l-2.35,6.07a1.41,1.41,0,0,1-1.46,1.06h-.51Z"/><line class="cls-4" x1="239.6" y1="275.88" x2="248.16" y2="275.88"/><polygon points="246.18 278.79 257.02 275.88 246.18 272.98 246.18 278.79"/><line class="cls-5" x1="239.6" y1="296.47" x2="248.16" y2="296.47"/><polygon points="246.18 299.38 257.02 296.47 246.18 293.56 246.18 299.38"/><path d="M262.7,272.51h2.39a1.9,1.9,0,0,1,2,2,2,2,0,0,1-2,2h-1.62v2.64h-.77Zm2.32,3.34a1.26,1.26,0,0,0,1.31-1.34A1.24,1.24,0,0,0,265,273.2h-1.55v2.65Z"/><path d="M267.79,276.7a2.41,2.41,0,0,1,2.4-2.6,2,2,0,0,1,1.74.92H272v-.8h.75v4.95H272v-.78H272a2,2,0,0,1-1.71.9A2.42,2.42,0,0,1,267.79,276.7Zm4.23,0a1.74,1.74,0,1,0-1.72,1.91A1.76,1.76,0,0,0,272,276.7Z"/><path d="M274.81,277.67v-2.81h-.93v-.64h.74a.23.23,0,0,0,.24-.25v-1.18h.7v1.43h1.52v.64h-1.52v2.8c0,.54.2.85.77.85H277v.66h-.73A1.34,1.34,0,0,1,274.81,277.67Z"/><path d="M278.41,272h.75v2.9h.06a1.65,1.65,0,0,1,1.53-.84,1.83,1.83,0,0,1,1.86,2v3.11h-.75V276.1a1.27,1.27,0,0,0-1.29-1.3,1.37,1.37,0,0,0-1.41,1.36v3h-.75Z"/><path d="M183,277.33h.78a1.45,1.45,0,0,0,1.63,1.39c.87,0,1.5-.43,1.5-1.12,0-2.08-3.68-.63-3.68-3.29a1.9,1.9,0,0,1,2.13-1.78,2,2,0,0,1,2.19,1.93h-.79c0-.76-.5-1.22-1.41-1.22s-1.35.52-1.35,1.07c0,1.82,3.69.55,3.69,3.24,0,1.05-.85,1.89-2.31,1.89A2.21,2.21,0,0,1,183,277.33Z"/><path d="M189.52,277.82V275h-.94v-.64h.75a.23.23,0,0,0,.23-.25v-1.19h.71v1.44h1.52V275h-1.52v2.8c0,.53.2.85.77.85h.68v.65H191A1.33,1.33,0,0,1,189.52,277.82Z"/><path d="M192.74,276.85a2.42,2.42,0,0,1,2.4-2.6,2,2,0,0,1,1.74.92h.06v-.8h.75v4.94H197v-.78h-.06a2,2,0,0,1-1.71.91A2.43,2.43,0,0,1,192.74,276.85Zm4.23,0a1.74,1.74,0,1,0-1.72,1.91A1.76,1.76,0,0,0,197,276.85Z"/><path d="M199.3,274.37H200v.92h.06a1.43,1.43,0,0,1,1.35-.92h.42v.75h-.41a1.45,1.45,0,0,0-1.41,1.64v2.55h-.75Z"/><path d="M203.56,277.82V275h-.93v-.64h.74a.23.23,0,0,0,.24-.25v-1.19h.7v1.44h1.52V275h-1.52v2.8c0,.53.2.85.77.85h.69v.65H205A1.33,1.33,0,0,1,203.56,277.82Z"/><path d="M209.71,272.18h.69l-2.88,8.16h-.69Z"/><path d="M211.87,272.66h3.8v.7h-3v2.22h2.61v.69h-2.61v2.35h3.13v.69h-3.9Z"/><path d="M217.1,274.37h.75v.72h.06a1.6,1.6,0,0,1,1.51-.84,1.81,1.81,0,0,1,1.84,1.95v3.11h-.75v-3.06a1.25,1.25,0,0,0-1.27-1.3,1.38,1.38,0,0,0-1.39,1.42v2.94h-.75Z"/><path d="M222.5,276.85a2.41,2.41,0,0,1,2.4-2.6,2,2,0,0,1,1.74.92h.06v-3h.75v7.13h-.72v-.78h-.06a2,2,0,0,1-1.71.91A2.42,2.42,0,0,1,222.5,276.85Zm4.23,0a1.74,1.74,0,1,0-1.72,1.91A1.76,1.76,0,0,0,226.73,276.85Z"/><path d="M183.57,295.46h2a3.12,3.12,0,0,1,3.34,3.33,3.06,3.06,0,0,1-3.34,3.33h-2Zm2,6a2.64,2.64,0,0,0,0-5.27h-1.2v5.27Z"/><path d="M189.83,299.65a2.42,2.42,0,0,1,2.42-2.6,2.34,2.34,0,0,1,2.4,2.53v.33h-4a1.6,1.6,0,0,0,1.69,1.65,1.57,1.57,0,0,0,1.51-.9h.78a2.29,2.29,0,0,1-2.3,1.58A2.42,2.42,0,0,1,189.83,299.65Zm4-.4a1.53,1.53,0,0,0-1.6-1.52,1.6,1.6,0,0,0-1.61,1.52Z"/><path d="M195.6,299.65a2.51,2.51,0,0,1,2.53-2.6,2.33,2.33,0,0,1,2.33,1.75h-.78a1.55,1.55,0,0,0-1.53-1.07,1.92,1.92,0,0,0,0,3.83,1.56,1.56,0,0,0,1.54-1.07h.77a2.32,2.32,0,0,1-2.33,1.75A2.49,2.49,0,0,1,195.6,299.65Z"/><path d="M201.65,295.73a.55.55,0,0,1,1.09,0,.55.55,0,1,1-1.09,0Zm.15,1.44h.75v4.95h-.75Z"/><path d="M203.88,300.68h.74c.08.59.5.9,1.22.9s1.15-.36,1.15-.86c0-1.39-3-.33-3-2.29,0-.84.75-1.38,1.78-1.38a1.62,1.62,0,0,1,1.75,1.43h-.72c-.07-.47-.42-.78-1.08-.78s-1,.3-1,.73c0,1.25,3,.21,3,2.25,0,.93-.77,1.56-1.92,1.56A1.72,1.72,0,0,1,203.88,300.68Z"/><path d="M209,295.73a.55.55,0,0,1,1.1,0,.55.55,0,1,1-1.1,0Zm.15,1.44H210v4.95h-.76Z"/><path d="M211.18,299.65a2.58,2.58,0,1,1,2.58,2.59A2.52,2.52,0,0,1,211.18,299.65Zm4.39,0a1.81,1.81,0,1,0-1.81,1.91A1.81,1.81,0,0,0,215.57,299.65Z"/><path d="M217.67,297.17h.75v.73h.06a1.61,1.61,0,0,1,1.51-.85,1.82,1.82,0,0,1,1.84,2v3.11h-.75v-3.06a1.26,1.26,0,0,0-1.27-1.31,1.38,1.38,0,0,0-1.39,1.42v2.95h-.75Z"/><path d="M223.16,300.68h.73c.09.59.51.9,1.23.9s1.15-.36,1.15-.86c0-1.39-3-.33-3-2.29,0-.84.75-1.38,1.79-1.38a1.62,1.62,0,0,1,1.75,1.43h-.72c-.07-.47-.42-.78-1.08-.78s-1,.3-1,.73c0,1.25,3,.21,3,2.25,0,.93-.77,1.56-1.92,1.56A1.72,1.72,0,0,1,223.16,300.68Z"/><rect class="cls-6" x="23.27" y="260.57" width="291.39" height="53.84" rx="6.33"/><rect class="cls-2" x="253.67" y="57.98" width="77.8" height="50.52" rx="6.06"/><rect class="cls-3" x="130.03" y="157.49" width="58.57" height="58.57" rx="6.39" transform="translate(-85.41 167.36) rotate(-45)"/><rect class="cls-7" x="20.27" y="161.54" width="77.8" height="50.52" rx="6.06"/><rect class="cls-1" x="20.27" y="84.25" width="77.8" height="50.52" rx="6.06"/><circle class="cls-3" cx="59.36" cy="35.91" r="21.01"/><path d="M41.77,100.32h2.29A1.82,1.82,0,0,1,46,102.23a1.87,1.87,0,0,1-1.94,1.94H42.51v2.52h-.74Zm2.22,3.2a1.22,1.22,0,0,0,1.26-1.29A1.19,1.19,0,0,0,44,101H42.51v2.54Z"/><path d="M46.64,104.33a2.31,2.31,0,0,1,2.3-2.49,1.93,1.93,0,0,1,1.66.88h.06V102h.72v4.73h-.69v-.75h-.06a1.92,1.92,0,0,1-1.63.87A2.32,2.32,0,0,1,46.64,104.33Zm4,0A1.66,1.66,0,1,0,49,106.16,1.68,1.68,0,0,0,50.69,104.33Z"/><path d="M52.92,102h.71v.88h.06A1.37,1.37,0,0,1,55,102h.4v.72H55c-.87,0-1.35.67-1.35,1.57v2.44h-.72Z"/><path d="M56,104.33a2.32,2.32,0,0,1,2.32-2.49,2.24,2.24,0,0,1,2.29,2.42v.32H56.77a1.53,1.53,0,0,0,1.62,1.57,1.48,1.48,0,0,0,1.44-.85h.75a2.19,2.19,0,0,1-2.2,1.51A2.32,2.32,0,0,1,56,104.33Zm3.85-.39a1.46,1.46,0,0,0-1.53-1.44,1.53,1.53,0,0,0-1.54,1.44Z"/><path d="M61.9,102h.72v.69h.05a1.54,1.54,0,0,1,1.45-.81,1.74,1.74,0,0,1,1.76,1.88v3h-.72v-2.93a1.19,1.19,0,0,0-1.22-1.24,1.31,1.31,0,0,0-1.32,1.35v2.82H61.9Z"/><path d="M67.86,105.26v-2.69H67V102h.71a.22.22,0,0,0,.23-.24v-1.13h.67V102H70v.61H68.58v2.68c0,.51.19.81.74.81H70v.63h-.7A1.28,1.28,0,0,1,67.86,105.26Z"/><path d="M71,105.32h.7c.08.56.48.86,1.17.86s1.1-.35,1.1-.83c0-1.33-2.83-.32-2.83-2.19,0-.8.72-1.32,1.71-1.32a1.56,1.56,0,0,1,1.68,1.37h-.7c-.06-.45-.4-.75-1-.75s-1,.29-1,.7c0,1.2,2.84.2,2.84,2.16,0,.89-.74,1.49-1.84,1.49A1.63,1.63,0,0,1,71,105.32Z"/><path d="M39.38,111.24h.74V114H43.5v-2.79h.74v6.36H43.5v-2.9H40.12v2.9h-.74Z"/><path d="M45.82,111.49a.53.53,0,1,1,.52.53A.51.51,0,0,1,45.82,111.49Zm.15,1.38h.71v4.73H46Z"/><path d="M47.87,115.25a2.32,2.32,0,0,1,2.3-2.5,1.91,1.91,0,0,1,1.66.89h.06v-2.86h.71v6.82h-.69v-.74h0a2,2,0,0,1-1.64.86A2.31,2.31,0,0,1,47.87,115.25Zm4,0a1.65,1.65,0,0,0-1.66-1.84,1.68,1.68,0,0,0-1.65,1.84,1.65,1.65,0,0,0,1.67,1.82A1.67,1.67,0,0,0,51.91,115.25Z"/><path d="M53.79,115.24a2.32,2.32,0,0,1,2.31-2.49,2.25,2.25,0,0,1,2.3,2.42v.32H54.54a1.53,1.53,0,0,0,1.62,1.58,1.52,1.52,0,0,0,1.45-.86h.74a2.19,2.19,0,0,1-2.2,1.51A2.31,2.31,0,0,1,53.79,115.24Zm3.84-.38a1.45,1.45,0,0,0-1.53-1.45,1.53,1.53,0,0,0-1.54,1.45Z"/><path d="M62.22,116.59v-5.81h.71v5.81a.32.32,0,0,0,.35.37h.22v.64h-.35A.88.88,0,0,1,62.22,116.59Z"/><path d="M64.77,115.85v-3h.72v2.95a1.2,1.2,0,0,0,1.22,1.25A1.32,1.32,0,0,0,68,115.71v-2.84h.71v4.73H68v-.69H68a1.54,1.54,0,0,1-1.44.81A1.74,1.74,0,0,1,64.77,115.85Z"/><path d="M70.3,112.87H71v.68h0a1.5,1.5,0,0,1,1.39-.8,1.6,1.6,0,0,1,1.49.87H74a1.57,1.57,0,0,1,1.5-.87,1.68,1.68,0,0,1,1.74,1.79v3.06h-.72v-2.83c0-.89-.45-1.34-1.15-1.34a1.23,1.23,0,0,0-1.24,1.35v2.82h-.72v-3a1.13,1.13,0,0,0-1.17-1.21A1.25,1.25,0,0,0,71,114.75v2.85H70.3Z"/><path d="M78.65,111.49a.51.51,0,0,1,.52-.52.53.53,0,0,1,0,1A.51.51,0,0,1,78.65,111.49Zm.14,1.38h.72v4.73h-.72Z"/><line class="cls-4" x1="58.92" y1="57.47" x2="58.92" y2="75.39"/><polygon points="56.01 73.41 58.92 84.25 61.82 73.41 56.01 73.41"/><line class="cls-4" x1="238.01" y1="186.04" x2="198.1" y2="186.04"/><path d="M47,37.08h.77a1.47,1.47,0,0,0,1.64,1.39c.87,0,1.5-.43,1.5-1.12,0-2.08-3.68-.63-3.68-3.29a1.9,1.9,0,0,1,2.13-1.78,2,2,0,0,1,2.19,1.93h-.79c0-.76-.51-1.22-1.41-1.22S48,33.51,48,34.06c0,1.82,3.69.55,3.69,3.24,0,1.05-.86,1.88-2.31,1.88A2.2,2.2,0,0,1,47,37.08Z"/><path d="M53.46,37.57V34.75h-.93v-.63h.74a.23.23,0,0,0,.24-.25V32.68h.7v1.44h1.53v.63H54.21v2.81c0,.53.2.84.77.84h.69v.66h-.73A1.34,1.34,0,0,1,53.46,37.57Z"/><path d="M56.68,36.6A2.43,2.43,0,0,1,59.09,34a2,2,0,0,1,1.74.93h.06v-.8h.75v4.94h-.72v-.78h-.06a2,2,0,0,1-1.71.9A2.42,2.42,0,0,1,56.68,36.6Zm4.24,0a1.74,1.74,0,1,0-1.73,1.91A1.76,1.76,0,0,0,60.92,36.6Z"/><path d="M63.25,34.12H64V35h.06a1.43,1.43,0,0,1,1.35-.92h.42v.75h-.41c-.91,0-1.41.7-1.41,1.64v2.55h-.75Z"/><path d="M67.51,37.57V34.75h-.93v-.63h.74a.23.23,0,0,0,.23-.25V32.68h.71v1.44h1.52v.63H68.26v2.81c0,.53.2.84.77.84h.68v.66H69A1.33,1.33,0,0,1,67.51,37.57Z"/><line class="cls-4" x1="238.26" y1="158.01" x2="238.26" y2="217.62"/><line class="cls-4" x1="242.62" y1="158.04" x2="238.17" y2="158.04"/><polygon points="240.64 155.14 251.48 158.04 240.64 160.95 240.64 155.14"/><circle class="cls-3" cx="487.44" cy="155.32" r="21.01"/><path d="M479.75,151.29h3.79V152h-3v2.21h2.61v.7h-2.61v2.34h3.13v.7h-3.9Z"/><path d="M485,153h.75v.72h.06a1.61,1.61,0,0,1,1.51-.85,1.82,1.82,0,0,1,1.84,2V158h-.75v-3.06a1.25,1.25,0,0,0-1.27-1.3,1.37,1.37,0,0,0-1.39,1.41V158H485Z"/><path d="M490.37,155.49a2.43,2.43,0,0,1,2.41-2.61,2,2,0,0,1,1.74.92h.06v-3h.75V158h-.72v-.78h-.06a2,2,0,0,1-1.71.9A2.42,2.42,0,0,1,490.37,155.49Zm4.24,0a1.74,1.74,0,0,0-1.74-1.92,1.76,1.76,0,0,0-1.73,1.92,1.73,1.73,0,0,0,1.74,1.91A1.76,1.76,0,0,0,494.61,155.49Z"/><path class="cls-8" d="M33.83,175.43h.74v5.7h2.74v.66H33.83Z"/><path class="cls-8" d="M38.5,180v-3h.71V180a1.2,1.2,0,0,0,1.22,1.25,1.31,1.31,0,0,0,1.33-1.36v-2.83h.72v4.72h-.72v-.69h0a1.55,1.55,0,0,1-1.45.81A1.73,1.73,0,0,1,38.5,180Z"/><path class="cls-8" d="M44,177.07h.72v.68h.06a1.47,1.47,0,0,1,1.38-.8,1.58,1.58,0,0,1,1.49.86h.07a1.54,1.54,0,0,1,1.5-.86A1.67,1.67,0,0,1,51,178.73v3.06h-.72V179c0-.89-.44-1.35-1.14-1.35A1.24,1.24,0,0,0,47.86,179v2.81h-.72v-3A1.13,1.13,0,0,0,46,177.62,1.25,1.25,0,0,0,44.74,179v2.84H44Z"/><path class="cls-8" d="M52.37,175.68a.53.53,0,0,1,1.05,0,.53.53,0,1,1-1.05,0Zm.15,1.39h.72v4.72h-.72Z"/><path class="cls-8" d="M57.33,177.07h.72v.68h.05a1.48,1.48,0,0,1,1.38-.8,1.58,1.58,0,0,1,1.49.86H61a1.55,1.55,0,0,1,1.5-.86,1.67,1.67,0,0,1,1.74,1.78v3.06h-.72V179c0-.89-.45-1.35-1.15-1.35A1.24,1.24,0,0,0,61.17,179v2.81h-.72v-3a1.14,1.14,0,0,0-1.18-1.21A1.25,1.25,0,0,0,58.05,179v2.84h-.72Z"/><path class="cls-8" d="M65.46,179.44a2.31,2.31,0,0,1,2.3-2.49,1.91,1.91,0,0,1,1.66.88h.06v-.76h.72v4.72h-.7v-.74h0a2,2,0,0,1-1.64.86A2.31,2.31,0,0,1,65.46,179.44Zm4,0a1.66,1.66,0,0,0-1.66-1.84,1.68,1.68,0,0,0-1.65,1.84,1.66,1.66,0,0,0,1.67,1.83A1.68,1.68,0,0,0,69.5,179.44Z"/><path class="cls-8" d="M74.75,181.79l-1.5-2.36-.79.85v1.51h-.72V175h.72v4.32h.05l2-2.22h.91l-1.72,1.83,1.84,2.89Z"/><path class="cls-8" d="M76,179.43A2.31,2.31,0,0,1,78.34,177a2.23,2.23,0,0,1,2.29,2.42v.32H76.78a1.53,1.53,0,0,0,1.62,1.57,1.49,1.49,0,0,0,1.44-.86h.75a2.18,2.18,0,0,1-2.2,1.51A2.31,2.31,0,0,1,76,179.43Zm3.85-.38a1.46,1.46,0,0,0-1.53-1.45,1.53,1.53,0,0,0-1.54,1.45Z"/><path class="cls-8" d="M81.63,180.42h.7c.09.57.49.87,1.18.87s1.1-.35,1.1-.83c0-1.33-2.83-.32-2.83-2.19,0-.8.72-1.32,1.71-1.32a1.55,1.55,0,0,1,1.67,1.36h-.69c-.06-.44-.4-.74-1-.74s-1,.29-1,.7c0,1.2,2.84.2,2.84,2.15,0,.89-.74,1.49-1.84,1.49A1.65,1.65,0,0,1,81.63,180.42Z"/><path class="cls-8" d="M31.44,191.33h.7c.09.57.48.87,1.18.87s1.1-.35,1.1-.83c0-1.33-2.83-.32-2.83-2.19,0-.8.72-1.32,1.71-1.32A1.55,1.55,0,0,1,35,189.22h-.69c-.06-.44-.4-.74-1-.74s-1,.29-1,.7c0,1.2,2.84.2,2.84,2.15,0,.89-.74,1.5-1.84,1.5A1.65,1.65,0,0,1,31.44,191.33Z"/><path class="cls-8" d="M36.16,190.34a2.47,2.47,0,1,1,2.47,2.49A2.42,2.42,0,0,1,36.16,190.34Zm4.2,0a1.73,1.73,0,1,0-1.73,1.83A1.72,1.72,0,0,0,40.36,190.34Z"/><path class="cls-8" d="M42.37,188h.72v.68h.06a1.47,1.47,0,0,1,1.38-.8,1.6,1.6,0,0,1,1.49.86h.06a1.56,1.56,0,0,1,1.5-.86,1.67,1.67,0,0,1,1.74,1.78v3.07H48.6v-2.83c0-.89-.44-1.35-1.14-1.35a1.24,1.24,0,0,0-1.25,1.36v2.82h-.72v-3a1.13,1.13,0,0,0-1.17-1.21,1.25,1.25,0,0,0-1.23,1.33v2.85h-.72Z"/><path class="cls-8" d="M50.5,190.34a2.31,2.31,0,0,1,2.32-2.48,2.24,2.24,0,0,1,2.29,2.42v.32H51.26a1.52,1.52,0,0,0,1.62,1.57,1.5,1.5,0,0,0,1.44-.85h.75a2.2,2.2,0,0,1-2.2,1.51A2.32,2.32,0,0,1,50.5,190.34Zm3.85-.38a1.46,1.46,0,0,0-1.53-1.45A1.53,1.53,0,0,0,51.28,190Z"/><path class="cls-8" d="M58.66,191.33h.7c.08.57.48.87,1.17.87s1.1-.35,1.1-.83c0-1.33-2.82-.32-2.82-2.19,0-.8.71-1.32,1.7-1.32a1.55,1.55,0,0,1,1.68,1.36H61.5c-.07-.44-.4-.74-1-.74s-1,.29-1,.7c0,1.2,2.83.2,2.83,2.15,0,.89-.73,1.5-1.83,1.5A1.64,1.64,0,0,1,58.66,191.33Z"/><path class="cls-8" d="M63.38,190.34a2.47,2.47,0,1,1,2.46,2.49A2.42,2.42,0,0,1,63.38,190.34Zm4.2,0a1.73,1.73,0,1,0-3.46,0,1.73,1.73,0,1,0,3.46,0Z"/><path class="cls-8" d="M69.5,191v-3h.72v2.94a1.2,1.2,0,0,0,1.22,1.25,1.31,1.31,0,0,0,1.32-1.35V188h.72v4.73h-.72V192h-.05a1.56,1.56,0,0,1-1.45.81A1.74,1.74,0,0,1,69.5,191Z"/><path class="cls-8" d="M75,188h.72v.69h0a1.54,1.54,0,0,1,1.45-.81A1.74,1.74,0,0,1,79,189.73v3h-.72v-2.93a1.2,1.2,0,0,0-1.22-1.25,1.32,1.32,0,0,0-1.32,1.36v2.82H75Z"/><path class="cls-8" d="M80.19,190.35a2.32,2.32,0,0,1,2.3-2.49,2,2,0,0,1,1.67.88h0v-2.85h.72v6.82h-.69V192h0a2,2,0,0,1-1.64.87A2.32,2.32,0,0,1,80.19,190.35Zm4,0a1.66,1.66,0,1,0-1.65,1.83A1.68,1.68,0,0,0,84.24,190.35Z"/><path class="cls-8" d="M86.2,191.33h.7c.09.57.49.87,1.18.87s1.1-.35,1.1-.83c0-1.33-2.83-.32-2.83-2.19,0-.8.72-1.32,1.71-1.32a1.55,1.55,0,0,1,1.67,1.36H89c-.06-.44-.4-.74-1-.74s-1,.29-1,.7c0,1.2,2.84.2,2.84,2.15,0,.89-.74,1.5-1.84,1.5A1.65,1.65,0,0,1,86.2,191.33Z"/><path d="M148.08,178.61a3.21,3.21,0,0,1,3.27-3.3,3,3,0,0,1,3,2.16h-.79a2.23,2.23,0,0,0-2.2-1.47,2.61,2.61,0,0,0,0,5.22,2.16,2.16,0,0,0,2.17-1.46h.82a3,3,0,0,1-3,2.15A3.19,3.19,0,0,1,148.08,178.61Z"/><path d="M155.61,175h.72v2.79h.06a1.57,1.57,0,0,1,1.46-.81,1.75,1.75,0,0,1,1.78,1.87v3h-.71v-2.92a1.22,1.22,0,0,0-1.24-1.25,1.31,1.31,0,0,0-1.35,1.3v2.87h-.72Z"/><path d="M161,175.68a.53.53,0,0,1,1.05,0,.53.53,0,1,1-1.05,0Zm.15,1.39h.72v4.72h-.72Z"/><path d="M163.44,180.79V175h.72v5.82a.33.33,0,0,0,.35.37h.22v.63h-.35A.89.89,0,0,1,163.44,180.79Z"/><path d="M165.54,179.44a2.32,2.32,0,0,1,2.31-2.49,1.93,1.93,0,0,1,1.66.88h.05V175h.72v6.82h-.69v-.74h-.05a2,2,0,0,1-1.64.86A2.31,2.31,0,0,1,165.54,179.44Zm4.05,0a1.66,1.66,0,1,0-1.64,1.83A1.68,1.68,0,0,0,169.59,179.44Z"/><path d="M138,186.34h.79l1.3,5.47h.05l1.43-5.47h.93l1.43,5.47h0l1.3-5.47H146l-1.62,6.37h-1L142,187.33H142l-1.43,5.38h-1Z"/><path d="M146.41,190.35a2.31,2.31,0,0,1,2.3-2.49,1.93,1.93,0,0,1,1.66.88h.06V188h.71v4.73h-.69V192h0a2,2,0,0,1-1.64.87A2.31,2.31,0,0,1,146.41,190.35Zm4,0a1.66,1.66,0,0,0-1.66-1.84,1.68,1.68,0,0,0-1.65,1.84,1.66,1.66,0,0,0,1.67,1.83A1.68,1.68,0,0,0,150.45,190.35Z"/><path d="M155.7,192.71l-1.5-2.37-.79.85v1.52h-.72v-6.82h.72v4.32h.05l2-2.23h.91l-1.72,1.84,1.84,2.89Z"/><path d="M157,190.34a2.31,2.31,0,0,1,2.32-2.48,2.24,2.24,0,0,1,2.29,2.42v.32h-3.85a1.52,1.52,0,0,0,1.62,1.57,1.5,1.5,0,0,0,1.44-.85h.75a2.2,2.2,0,0,1-2.2,1.51A2.32,2.32,0,0,1,157,190.34Zm3.85-.38a1.46,1.46,0,0,0-1.53-1.45,1.53,1.53,0,0,0-1.54,1.45Z"/><path d="M162.58,191.33h.7c.09.57.49.87,1.18.87s1.1-.35,1.1-.83c0-1.33-2.83-.32-2.83-2.19,0-.8.72-1.32,1.71-1.32a1.55,1.55,0,0,1,1.67,1.36h-.69c-.06-.44-.4-.74-1-.74s-1,.29-1,.7c0,1.2,2.84.2,2.84,2.15,0,.89-.74,1.5-1.84,1.5A1.65,1.65,0,0,1,162.58,191.33Z"/><path d="M170.12,191v-3h.72v2.94a1.2,1.2,0,0,0,1.22,1.25,1.31,1.31,0,0,0,1.33-1.35V188h.72v4.73h-.72V192h-.06a1.55,1.55,0,0,1-1.44.81A1.75,1.75,0,0,1,170.12,191Z"/><path d="M175.65,188h.69v.74h.06a1.94,1.94,0,0,1,1.63-.86,2.49,2.49,0,0,1,.06,5,2,2,0,0,1-1.67-.89h0v2.86h-.72Zm4,2.35a1.64,1.64,0,0,0-1.66-1.82,1.84,1.84,0,1,0,1.66,1.82Z"/><path d="M208.7,176.11h.36a.85.85,0,0,0,.88-.61l.22-.57-1.92-5h.8l1.46,4h.06l1.47-4h.81l-2.26,5.81a1.32,1.32,0,0,1-1.39,1h-.49Z"/><path d="M213.39,172.31a2.32,2.32,0,0,1,2.31-2.49,2.25,2.25,0,0,1,2.3,2.42v.32h-3.86a1.53,1.53,0,0,0,1.62,1.57,1.51,1.51,0,0,0,1.45-.85H218a2.19,2.19,0,0,1-2.2,1.51A2.31,2.31,0,0,1,213.39,172.31Zm3.84-.39a1.46,1.46,0,0,0-1.53-1.44,1.53,1.53,0,0,0-1.54,1.44Z"/><path d="M219,173.3h.7c.08.56.48.86,1.17.86s1.1-.34,1.1-.83c0-1.32-2.83-.31-2.83-2.19,0-.8.72-1.32,1.71-1.32a1.55,1.55,0,0,1,1.67,1.37h-.69c-.06-.45-.4-.75-1-.75s-1,.29-1,.7c0,1.2,2.84.2,2.84,2.16,0,.89-.74,1.49-1.84,1.49A1.63,1.63,0,0,1,219,173.3Z"/><path d="M214,200h.72v.69h.05a1.56,1.56,0,0,1,1.45-.81,1.74,1.74,0,0,1,1.76,1.88v3h-.72v-2.93a1.19,1.19,0,0,0-1.22-1.24,1.31,1.31,0,0,0-1.32,1.35v2.82H214Z"/><path d="M219.19,202.36a2.47,2.47,0,1,1,2.47,2.48A2.43,2.43,0,0,1,219.19,202.36Zm4.2,0a1.73,1.73,0,1,0-1.73,1.83A1.72,1.72,0,0,0,223.39,202.36Z"/><line class="cls-4" x1="330.97" y1="217.87" x2="345.62" y2="217.87"/><line class="cls-4" x1="345.36" y1="217.62" x2="345.36" y2="158.01"/><line class="cls-4" x1="345.52" y1="158.39" x2="340.02" y2="158.39"/><polygon points="342.01 155.49 331.17 158.39 342.01 161.3 342.01 155.49"/><line class="cls-4" x1="292.76" y1="134.91" x2="292.76" y2="117.36"/><polygon points="295.67 119.34 292.76 108.5 289.86 119.34 295.67 119.34"/><path d="M280.25,72a3.21,3.21,0,0,1,3.27-3.31,3.05,3.05,0,0,1,3,2.16h-.79a2.23,2.23,0,0,0-2.2-1.46,2.61,2.61,0,0,0,0,5.22,2.16,2.16,0,0,0,2.17-1.47h.82a3,3,0,0,1-3,2.16A3.19,3.19,0,0,1,280.25,72Z"/><path d="M287.79,68.33h.71v2.78h.06A1.57,1.57,0,0,1,290,70.3a1.75,1.75,0,0,1,1.78,1.87v3h-.71V72.22A1.22,1.22,0,0,0,289.85,71a1.31,1.31,0,0,0-1.35,1.3v2.88h-.71Z"/><path d="M293.21,69a.5.5,0,0,1,.51-.52.51.51,0,0,1,.53.52.51.51,0,0,1-.53.52A.5.5,0,0,1,293.21,69Zm.14,1.38h.72v4.73h-.72Z"/><path d="M295.61,74.14V68.33h.72v5.81a.32.32,0,0,0,.35.37h.22v.64h-.35A.89.89,0,0,1,295.61,74.14Z"/><path d="M297.72,72.79A2.31,2.31,0,0,1,300,70.3a1.93,1.93,0,0,1,1.66.88h.06V68.33h.71v6.82h-.69V74.4h-.05a1.93,1.93,0,0,1-1.64.87A2.31,2.31,0,0,1,297.72,72.79Zm4,0A1.65,1.65,0,0,0,300.1,71a1.67,1.67,0,0,0-1.65,1.83,1.65,1.65,0,0,0,1.67,1.83A1.68,1.68,0,0,0,301.76,72.79Z"/><path d="M265,84.69h.7c.08.56.48.86,1.17.86s1.1-.34,1.1-.83c0-1.32-2.82-.31-2.82-2.19,0-.8.71-1.32,1.71-1.32a1.55,1.55,0,0,1,1.67,1.37h-.69c-.07-.45-.4-.75-1-.75s-1,.29-1,.7c0,1.2,2.83.2,2.83,2.16,0,.89-.73,1.49-1.83,1.49A1.64,1.64,0,0,1,265,84.69Z"/><path d="M269.72,83.7A2.32,2.32,0,0,1,272,81.21a2.24,2.24,0,0,1,2.29,2.42V84h-3.85a1.63,1.63,0,0,0,3.06.72h.75a2.21,2.21,0,0,1-2.21,1.51A2.31,2.31,0,0,1,269.72,83.7Zm3.85-.39A1.46,1.46,0,0,0,272,81.87a1.54,1.54,0,0,0-1.55,1.44Z"/><path d="M275.24,83.71a2.32,2.32,0,0,1,2.3-2.5,2,2,0,0,1,1.67.89h.05v-.77H280v4.73h-.69v-.75h-.06a1.92,1.92,0,0,1-1.63.87A2.31,2.31,0,0,1,275.24,83.71Zm4.05,0a1.66,1.66,0,1,0-1.65,1.82A1.66,1.66,0,0,0,279.29,83.71Z"/><path d="M281.52,81.33h.71v.88h.06a1.37,1.37,0,0,1,1.29-.88h.4v.72h-.39c-.87,0-1.35.67-1.35,1.57v2.44h-.72Z"/><path d="M284.62,83.7A2.4,2.4,0,0,1,287,81.21a2.23,2.23,0,0,1,2.23,1.68h-.74a1.51,1.51,0,0,0-1.48-1,1.83,1.83,0,0,0,0,3.65,1.5,1.5,0,0,0,1.47-1h.74A2.23,2.23,0,0,1,287,86.18,2.38,2.38,0,0,1,284.62,83.7Z"/><path d="M290.55,79.24h.72V82h.06a1.58,1.58,0,0,1,1.46-.81,1.75,1.75,0,0,1,1.78,1.88v3h-.71V83.13a1.21,1.21,0,0,0-1.24-1.24,1.3,1.3,0,0,0-1.35,1.3v2.87h-.72Z"/><path d="M295.75,83.7a2.32,2.32,0,0,1,2.32-2.49,2.25,2.25,0,0,1,2.3,2.42V84h-3.86a1.53,1.53,0,0,0,1.62,1.57,1.48,1.48,0,0,0,1.44-.85h.75a2.19,2.19,0,0,1-2.2,1.51A2.31,2.31,0,0,1,295.75,83.7Zm3.85-.39a1.46,1.46,0,0,0-1.53-1.44,1.53,1.53,0,0,0-1.54,1.44Z"/><path d="M301.37,84.69h.7c.08.56.48.86,1.17.86s1.1-.34,1.1-.83c0-1.32-2.83-.31-2.83-2.19,0-.8.72-1.32,1.71-1.32a1.55,1.55,0,0,1,1.67,1.37h-.69c-.06-.45-.4-.75-1-.75s-1,.29-1,.7c0,1.2,2.84.2,2.84,2.16,0,.89-.74,1.49-1.84,1.49A1.63,1.63,0,0,1,301.37,84.69Z"/><path d="M309.34,81.94h-.89v-.61h.89v-.56A1.47,1.47,0,0,1,311,79.24h.45v.63H311a.82.82,0,0,0-.89.91v.55h1.38v.61h-1.38v4.12h-.72Z"/><path d="M312,83.7a2.47,2.47,0,1,1,2.47,2.48A2.43,2.43,0,0,1,312,83.7Zm4.2,0a1.73,1.73,0,1,0-1.73,1.82A1.73,1.73,0,0,0,316.23,83.7Z"/><path d="M318.24,81.33H319v.88H319a1.37,1.37,0,0,1,1.29-.88h.4v.72h-.39c-.87,0-1.35.67-1.35,1.57v2.44h-.72Z"/><path d="M283.15,90.61h.73v5.7h2.75V97h-3.48Z"/><path d="M287.81,95.22v-3h.72v3a1.2,1.2,0,0,0,1.22,1.25,1.32,1.32,0,0,0,1.33-1.36V92.24h.71V97h-.71v-.69H291a1.54,1.54,0,0,1-1.44.81A1.74,1.74,0,0,1,287.81,95.22Z"/><path d="M293.34,92.24h.72v.69h.05a1.51,1.51,0,0,1,1.39-.81A1.6,1.6,0,0,1,297,93h.06a1.57,1.57,0,0,1,1.5-.87,1.68,1.68,0,0,1,1.74,1.79V97h-.72V94.14c0-.89-.45-1.34-1.15-1.34a1.23,1.23,0,0,0-1.24,1.35V97h-.72V94a1.13,1.13,0,0,0-1.17-1.21,1.25,1.25,0,0,0-1.23,1.33V97h-.72Z"/><path d="M301.69,90.86a.51.51,0,0,1,.52-.52.53.53,0,0,1,0,1A.51.51,0,0,1,301.69,90.86Zm.14,1.38h.72V97h-.72Z"/><line class="cls-4" x1="331.82" y1="85.15" x2="342.23" y2="85.15"/><polygon points="340.25 88.05 351.09 85.15 340.25 82.24 340.25 88.05"/><line class="cls-4" x1="428.82" y1="85.15" x2="439.23" y2="85.15"/><polygon points="437.25 88.05 448.08 85.15 437.25 82.24 437.25 88.05"/><path d="M348.45,183.21H349l1.31,3.71h0l1.33-3.71h.56l-1.61,4.24H350Z"/><path d="M352.32,185.88a1.65,1.65,0,1,1,1.64,1.65A1.61,1.61,0,0,1,352.32,185.88Zm2.8,0A1.16,1.16,0,1,0,354,187.1,1.15,1.15,0,0,0,355.12,185.88Z"/><path d="M356.28,186.78v-3.87h.48v3.87c0,.16.08.25.23.25h.14v.42h-.23A.59.59,0,0,1,356.28,186.78Z"/><path d="M358,186.29v-2h.48v2a.8.8,0,0,0,.81.83.88.88,0,0,0,.89-.91V184.3h.47v3.15h-.47V187h0a1,1,0,0,1-1,.54A1.16,1.16,0,0,1,358,186.29Z"/><path d="M361.67,184.3h.48v.46h0a1,1,0,0,1,.92-.53,1.07,1.07,0,0,1,1,.57h0a1,1,0,0,1,1-.57,1.11,1.11,0,0,1,1.15,1.18v2h-.47v-1.88c0-.59-.3-.9-.77-.9a.83.83,0,0,0-.83.91v1.87h-.47v-2a.76.76,0,0,0-.79-.81.83.83,0,0,0-.81.89v1.89h-.48Z"/><path d="M367.09,185.88a1.53,1.53,0,0,1,1.54-1.65,1.49,1.49,0,0,1,1.53,1.61v.21h-2.57a1,1,0,0,0,1.08,1,1,1,0,0,0,1-.57h.5a1.46,1.46,0,0,1-1.47,1A1.54,1.54,0,0,1,367.09,185.88Zm2.56-.26a1,1,0,0,0-1-1,1,1,0,0,0-1,1Z"/><path d="M372.71,184.3h.47v.59h0a.94.94,0,0,1,.87-.59h.26v.48h-.26a.93.93,0,0,0-.9,1.05v1.62h-.47Z"/><path d="M375,183.38a.34.34,0,0,1,.35-.34.35.35,0,1,1,0,.69A.34.34,0,0,1,375,183.38Zm.1.92h.48v3.15h-.48Z"/><path d="M376.46,186.54h.47c.05.38.32.58.78.58s.73-.24.73-.56c0-.88-1.88-.21-1.88-1.46,0-.53.47-.87,1.14-.87a1,1,0,0,1,1.11.9h-.46c0-.29-.27-.49-.68-.49s-.65.19-.65.46c0,.8,1.89.14,1.89,1.44,0,.59-.49,1-1.23,1A1.09,1.09,0,0,1,376.46,186.54Z"/><path d="M379.61,185.88a1.53,1.53,0,0,1,1.54-1.65,1.49,1.49,0,0,1,1.53,1.61v.21h-2.57a1,1,0,0,0,1.08,1,1,1,0,0,0,1-.57h.5a1.46,1.46,0,0,1-1.47,1A1.54,1.54,0,0,1,379.61,185.88Zm2.56-.26a1,1,0,0,0-1-1,1,1,0,0,0-1,1Z"/><path d="M383.35,186.54h.46c.06.38.32.58.78.58s.74-.24.74-.56c0-.88-1.89-.21-1.89-1.46,0-.53.48-.87,1.14-.87a1,1,0,0,1,1.12.9h-.46c-.05-.29-.27-.49-.69-.49s-.65.19-.65.46c0,.8,1.89.14,1.89,1.44,0,.59-.49,1-1.22,1A1.08,1.08,0,0,1,383.35,186.54Z"/><path d="M348.63,192.61a2.13,2.13,0,0,1,2.18-2.2,2,2,0,0,1,2,1.37h-.54a1.49,1.49,0,0,0-1.45-.91,1.74,1.74,0,0,0,0,3.48,1.48,1.48,0,0,0,1.58-1.42h-1.72v-.43H353a2.1,2.1,0,0,1-2.14,2.31A2.13,2.13,0,0,1,348.63,192.61Z"/><path d="M353.8,191.58h.47v.59h0a.91.91,0,0,1,.86-.59h.26v.48h-.26c-.57,0-.89.44-.89,1.05v1.62h-.48Z"/><path d="M355.86,193.16a1.54,1.54,0,0,1,1.53-1.66,1.28,1.28,0,0,1,1.11.59h0v-.51H359v3.15h-.46v-.5h0a1.29,1.29,0,0,1-1.09.58A1.54,1.54,0,0,1,355.86,193.16Zm2.7,0a1.11,1.11,0,1,0-1.1,1.22A1.13,1.13,0,0,0,358.56,193.16Z"/><path d="M359.81,193.16a1.54,1.54,0,0,1,1.53-1.66,1.28,1.28,0,0,1,1.11.59h0v-1.9H363v4.54h-.46v-.5h0a1.29,1.29,0,0,1-1.09.58A1.54,1.54,0,0,1,359.81,193.16Zm2.69,0a1.1,1.1,0,0,0-1.11-1.22,1.23,1.23,0,1,0,1.11,1.22Z"/><path d="M363.93,193.56v-2h.48v2a.8.8,0,0,0,.82.83.87.87,0,0,0,.88-.9v-1.89h.48v3.15h-.48v-.46h0a1,1,0,0,1-1,.54A1.16,1.16,0,0,1,363.93,193.56Z"/><path d="M367.38,193.16a1.54,1.54,0,0,1,1.53-1.66,1.28,1.28,0,0,1,1.11.59h0v-.51h.47v3.15h-.46v-.5h0a1.29,1.29,0,0,1-1.09.58A1.54,1.54,0,0,1,367.38,193.16Zm2.69,0a1.1,1.1,0,0,0-1.11-1.22,1.23,1.23,0,1,0,1.11,1.22Z"/><path d="M371.57,194.06v-3.87H372v3.87a.22.22,0,0,0,.24.24h.14v.43h-.23A.59.59,0,0,1,371.57,194.06Z"/><path d="M373.24,194.06v-3.87h.48v3.87a.21.21,0,0,0,.23.24h.14v.43h-.23A.59.59,0,0,1,373.24,194.06Z"/><path d="M374.77,195.69H375a.57.57,0,0,0,.59-.41l.15-.38-1.28-3.32H375l1,2.66h0l1-2.66h.54l-1.5,3.87a.89.89,0,0,1-.93.67h-.32Z"/><line class="cls-4" x1="242.62" y1="217.93" x2="238.17" y2="217.93"/><polygon points="240.64 215.02 251.48 217.93 240.64 220.83 240.64 215.02"/><line class="cls-4" x1="111.69" y1="186.56" x2="97.85" y2="186.56"/><polygon points="109.7 183.66 120.55 186.56 109.7 189.47 109.7 183.66"/><path d="M35.93,217.31H34.64v-.45h3.08v.45h-1.3v3.79h-.49Z"/><path d="M38.27,218h.47v.59h0a.91.91,0,0,1,.86-.59h.26v.48h-.26c-.57,0-.89.45-.89,1v1.62h-.48Z"/><path d="M40.6,217a.35.35,0,0,1,.69,0,.35.35,0,1,1-.69,0Zm.09.92h.48v3.15h-.48Z"/><path d="M42.21,221.59h.46a.84.84,0,0,0,.91.57,1,1,0,0,0,1.08-1.06v-.49h0a1.31,1.31,0,0,1-1.09.57,1.65,1.65,0,0,1,0-3.3,1.3,1.3,0,0,1,1.11.58h0V218h.48v3.15a1.39,1.39,0,0,1-1.54,1.48A1.27,1.27,0,0,1,42.21,221.59Zm2.45-2.06a1.11,1.11,0,1,0-1.1,1.22A1.12,1.12,0,0,0,44.66,219.53Z"/><path d="M46.16,221.59h.46c.08.37.44.57.91.57a1,1,0,0,0,1.07-1.06v-.49h0a1.31,1.31,0,0,1-1.09.57,1.65,1.65,0,0,1,0-3.3,1.3,1.3,0,0,1,1.11.58h0V218h.48v3.15a1.39,1.39,0,0,1-1.53,1.48A1.27,1.27,0,0,1,46.16,221.59Zm2.44-2.06a1.1,1.1,0,0,0-1.11-1.22,1.12,1.12,0,0,0-1.09,1.22,1.11,1.11,0,1,0,2.2,0Z"/><path d="M49.85,219.53a1.54,1.54,0,0,1,1.55-1.65,1.49,1.49,0,0,1,1.52,1.61v.21H50.36a1.09,1.09,0,0,0,2,.48h.49a1.45,1.45,0,0,1-1.46,1A1.54,1.54,0,0,1,49.85,219.53Zm2.57-.26a1,1,0,0,0-1-1,1,1,0,0,0-1,1Z"/><path d="M53.77,218h.48v.59h0a.91.91,0,0,1,.86-.59h.27v.48h-.26c-.58,0-.9.45-.9,1v1.62h-.48Z"/><path d="M55.84,219.53a1.53,1.53,0,0,1,1.54-1.65,1.49,1.49,0,0,1,1.53,1.61v.21H56.34a1,1,0,0,0,1.08,1.05,1,1,0,0,0,1-.57h.5a1.47,1.47,0,0,1-1.47,1A1.54,1.54,0,0,1,55.84,219.53Zm2.56-.26a1,1,0,0,0-1-1,1,1,0,0,0-1,1Z"/><path d="M59.52,219.53a1.54,1.54,0,0,1,1.53-1.65,1.3,1.3,0,0,1,1.11.58h0v-1.9h.48v4.54h-.46v-.49h0a1.28,1.28,0,0,1-1.09.57A1.54,1.54,0,0,1,59.52,219.53Zm2.69,0a1.1,1.1,0,0,0-1.11-1.22A1.12,1.12,0,0,0,60,219.53a1.11,1.11,0,1,0,2.2,0Z"/><path d="M65.9,220.61h0v.49H65.4v-4.54h.48v1.9h0a1.29,1.29,0,0,1,1.11-.58,1.65,1.65,0,0,1,0,3.3A1.29,1.29,0,0,1,65.9,220.61Zm2.17-1.08A1.11,1.11,0,1,0,67,220.75,1.1,1.1,0,0,0,68.07,219.53Z"/><path d="M69.26,222.06h.24a.56.56,0,0,0,.59-.41l.14-.38L69,218h.54l1,2.67h0l1-2.67H72l-1.5,3.87a.9.9,0,0,1-.93.68h-.33Z"/><path d="M74.74,220.15v-1.79h-.6V218h.48a.14.14,0,0,0,.15-.15V217h.45V218h1v.41h-1v1.79c0,.34.12.54.49.54h.43v.41h-.46A.85.85,0,0,1,74.74,220.15Z"/><path d="M77,216.56h.47v1.85h0a1.06,1.06,0,0,1,1-.53,1.16,1.16,0,0,1,1.18,1.24v2h-.48v-1.95a.81.81,0,0,0-.82-.83.88.88,0,0,0-.9.87v1.91H77Z"/><path d="M80.5,219.53a1.54,1.54,0,0,1,1.55-1.65,1.49,1.49,0,0,1,1.52,1.61v.21H81a1.09,1.09,0,0,0,2,.48h.49a1.45,1.45,0,0,1-1.46,1A1.55,1.55,0,0,1,80.5,219.53Zm2.57-.26a1,1,0,0,0-1-1,1,1,0,0,0-1,1Z"/><path d="M43.33,226.81a1.55,1.55,0,0,1,1.54-1.66,1.25,1.25,0,0,1,1.1.59h0v-.51h.48v3.15H46v-.5h0a1.27,1.27,0,0,1-1.09.58A1.55,1.55,0,0,1,43.33,226.81Zm2.7,0a1.11,1.11,0,1,0-1.1,1.22A1.11,1.11,0,0,0,46,226.81Z"/><path d="M47.52,225.23H48v.49h0a1.29,1.29,0,0,1,1.09-.57,1.66,1.66,0,0,1,0,3.31,1.29,1.29,0,0,1-1.11-.59h0v1.9h-.48Zm2.67,1.57a1.1,1.1,0,0,0-1.11-1.22A1.12,1.12,0,0,0,48,226.8a1.11,1.11,0,1,0,2.21,0Z"/><path d="M51.53,225.23H52v.49h0a1.28,1.28,0,0,1,1.09-.57,1.66,1.66,0,0,1,0,3.31,1.31,1.31,0,0,1-1.11-.59h0v1.9h-.48Zm2.66,1.57a1.1,1.1,0,0,0-1.11-1.22A1.12,1.12,0,0,0,52,226.8a1.11,1.11,0,1,0,2.2,0Z"/><path d="M57.05,227.46h.47c0,.38.32.58.78.58s.73-.23.73-.55c0-.89-1.88-.21-1.88-1.46,0-.54.48-.88,1.14-.88a1,1,0,0,1,1.11.91h-.46c0-.3-.27-.5-.68-.5s-.65.19-.65.47c0,.8,1.89.13,1.89,1.43,0,.6-.49,1-1.23,1A1.1,1.1,0,0,1,57.05,227.46Z"/><path d="M60.2,226.8a1.54,1.54,0,0,1,1.54-1.65,1.49,1.49,0,0,1,1.53,1.61V227H60.7A1,1,0,0,0,61.78,228a1,1,0,0,0,1-.57h.5a1.47,1.47,0,0,1-1.47,1A1.54,1.54,0,0,1,60.2,226.8Zm2.56-.25a1,1,0,0,0-1-1,1,1,0,0,0-1,1Z"/><path d="M64.41,227.43v-1.8h-.59v-.4h.47a.15.15,0,0,0,.15-.16v-.76h.45v.92h1v.4h-1v1.79c0,.34.13.54.49.54h.44v.42h-.47A.86.86,0,0,1,64.41,227.43Z"/><path d="M66.61,224.31a.35.35,0,1,1,.35.35A.34.34,0,0,1,66.61,224.31Zm.1.92h.48v3.15h-.48Z"/><path d="M68.22,225.23h.48v.46h0a1,1,0,0,1,1-.54,1.16,1.16,0,0,1,1.17,1.25v2h-.48v-1.95a.79.79,0,0,0-.81-.83.87.87,0,0,0-.88.9v1.88h-.48Z"/><path d="M71.92,228.87h.45c.09.37.45.56.92.56a1,1,0,0,0,1.07-1.05v-.5h0a1.27,1.27,0,0,1-1.09.58,1.66,1.66,0,0,1,0-3.31,1.27,1.27,0,0,1,1.11.59h0v-.51h.48v3.15a1.39,1.39,0,0,1-1.53,1.47A1.27,1.27,0,0,1,71.92,228.87Zm2.44-2.06a1.11,1.11,0,1,0-1.1,1.22A1.11,1.11,0,0,0,74.36,226.81Z"/><rect class="cls-2" x="253.17" y="132.75" width="77.8" height="50.52" rx="6.06"/><rect class="cls-2" x="253.17" y="192.86" width="77.8" height="50.52" rx="6.06"/><path d="M274.86,158.36a3.21,3.21,0,0,1,3.28-3.3,3.08,3.08,0,0,1,3,2.06h-.82a2.21,2.21,0,0,0-2.17-1.37,2.61,2.61,0,0,0,0,5.22,2.23,2.23,0,0,0,2.36-2.13h-2.58v-.64h3.41a3.14,3.14,0,0,1-3.2,3.46A3.2,3.2,0,0,1,274.86,158.36Z"/><path d="M282.26,159.18a2.32,2.32,0,0,1,2.31-2.49,2.25,2.25,0,0,1,2.3,2.42v.32H283a1.53,1.53,0,0,0,1.62,1.58,1.5,1.5,0,0,0,1.45-.86h.74a2.19,2.19,0,0,1-2.2,1.51A2.31,2.31,0,0,1,282.26,159.18Zm3.84-.38a1.46,1.46,0,0,0-1.53-1.45A1.53,1.53,0,0,0,283,158.8Z"/><path d="M288.58,160.11v-2.69h-.9v-.61h.71a.22.22,0,0,0,.23-.23v-1.14h.67v1.37h1.46v.61h-1.46v2.69c0,.5.2.8.74.8h.66v.63H290A1.28,1.28,0,0,1,288.58,160.11Z"/><path d="M291.75,160.17h.7c.08.56.48.86,1.17.86s1.1-.34,1.1-.82c0-1.33-2.82-.32-2.82-2.2,0-.8.71-1.32,1.7-1.32a1.55,1.55,0,0,1,1.68,1.37h-.69c-.07-.45-.4-.75-1-.75s-1,.29-1,.7c0,1.2,2.83.2,2.83,2.16,0,.89-.73,1.49-1.83,1.49A1.64,1.64,0,0,1,291.75,160.17Z"/><path d="M299.29,159.79v-3H300v2.95a1.2,1.2,0,0,0,1.22,1.25,1.32,1.32,0,0,0,1.32-1.36v-2.84h.72v4.73h-.72v-.69h-.05a1.54,1.54,0,0,1-1.45.81A1.74,1.74,0,0,1,299.29,159.79Z"/><path d="M304.82,156.81h.69v.75h.05a2,2,0,0,1,1.64-.87,2.49,2.49,0,0,1,.05,5,2,2,0,0,1-1.66-.88h0v2.85h-.72Zm4,2.36a1.65,1.65,0,0,0-1.67-1.83,1.68,1.68,0,0,0-1.64,1.83,1.66,1.66,0,1,0,3.31,0Z"/><path d="M278.58,214.33l-2-3.09-.87,1v2.07H275V208h.74v3.21h.05l2.71-3.21h.92l-2.31,2.69,2.42,3.67Z"/><path d="M279.85,212a2.31,2.31,0,0,1,2.32-2.48,2.23,2.23,0,0,1,2.29,2.42v.31h-3.85a1.52,1.52,0,0,0,1.61,1.58,1.5,1.5,0,0,0,1.45-.86h.75a2.21,2.21,0,0,1-2.21,1.51A2.31,2.31,0,0,1,279.85,212Zm3.85-.38a1.46,1.46,0,0,0-1.53-1.45,1.54,1.54,0,0,0-1.55,1.45Z"/><path d="M285.37,212a2.31,2.31,0,0,1,2.32-2.48,2.23,2.23,0,0,1,2.29,2.42v.31h-3.85a1.52,1.52,0,0,0,1.61,1.58,1.5,1.5,0,0,0,1.45-.86h.75a2.21,2.21,0,0,1-2.2,1.51A2.31,2.31,0,0,1,285.37,212Zm3.85-.38a1.46,1.46,0,0,0-1.53-1.45,1.54,1.54,0,0,0-1.55,1.45Z"/><path d="M291.25,209.61h.7v.74H292a2,2,0,0,1,1.64-.86,2.49,2.49,0,0,1,.05,5,1.91,1.91,0,0,1-1.66-.88H292v2.86h-.72Zm4,2.35a1.66,1.66,0,0,0-1.67-1.83A1.68,1.68,0,0,0,292,212a1.66,1.66,0,0,0,1.66,1.84A1.68,1.68,0,0,0,295.26,212Z"/><path d="M299.45,212a2.47,2.47,0,1,1,2.46,2.48A2.41,2.41,0,0,1,299.45,212Zm4.2,0a1.74,1.74,0,1,0-1.74,1.83A1.73,1.73,0,0,0,303.65,212Z"/><path d="M305.66,209.61h.72v.69h.05a1.54,1.54,0,0,1,1.45-.81,1.73,1.73,0,0,1,1.76,1.87v3h-.72v-2.92a1.2,1.2,0,0,0-1.22-1.25,1.31,1.31,0,0,0-1.32,1.35v2.82h-.72Z"/><path d="M273.33,223.35h.74a1.4,1.4,0,0,0,1.56,1.33c.84,0,1.44-.41,1.44-1.07,0-2-3.52-.6-3.52-3.15a1.81,1.81,0,0,1,2-1.7,1.9,1.9,0,0,1,2.09,1.85h-.76c0-.73-.48-1.18-1.34-1.18s-1.29.51-1.29,1c0,1.74,3.52.53,3.52,3.1,0,1-.81,1.8-2.21,1.8A2.1,2.1,0,0,1,273.33,223.35Z"/><path d="M279.09,224.24v-5.81h.72v5.81c0,.23.11.37.34.37h.22v.64H280A.89.89,0,0,1,279.09,224.24Z"/><path d="M281.19,222.88a2.31,2.31,0,0,1,2.32-2.48,2.24,2.24,0,0,1,2.29,2.42v.32h-3.86a1.53,1.53,0,0,0,1.62,1.57,1.5,1.5,0,0,0,1.45-.86h.74a2.18,2.18,0,0,1-2.2,1.51A2.31,2.31,0,0,1,281.19,222.88Zm3.85-.38a1.46,1.46,0,0,0-1.53-1.45A1.54,1.54,0,0,0,282,222.5Z"/><path d="M286.71,222.88A2.31,2.31,0,0,1,289,220.4a2.24,2.24,0,0,1,2.29,2.42v.32h-3.86a1.53,1.53,0,0,0,1.62,1.57,1.5,1.5,0,0,0,1.45-.86h.74a2.18,2.18,0,0,1-2.2,1.51A2.31,2.31,0,0,1,286.71,222.88Zm3.84-.38a1.45,1.45,0,0,0-1.52-1.45,1.54,1.54,0,0,0-1.55,1.45Z"/><path d="M292.59,220.52h.69v.74h.06a1.94,1.94,0,0,1,1.63-.86,2.49,2.49,0,0,1,.06,5,2,2,0,0,1-1.67-.88h-.05v2.86h-.72Zm4,2.35a1.65,1.65,0,0,0-1.66-1.83,1.68,1.68,0,0,0-1.65,1.83,1.66,1.66,0,1,0,3.31,0Z"/><path d="M298.46,219.13a.49.49,0,0,1,.51-.51.5.5,0,0,1,.53.51.52.52,0,0,1-.53.53A.5.5,0,0,1,298.46,219.13Zm.14,1.39h.72v4.73h-.72Z"/><path d="M300.87,220.52h.71v.69h.06a1.54,1.54,0,0,1,1.44-.81,1.74,1.74,0,0,1,1.77,1.87v3h-.72v-2.93a1.2,1.2,0,0,0-1.22-1.25,1.32,1.32,0,0,0-1.33,1.36v2.82h-.71Z"/><path d="M306.41,226h.68a1.27,1.27,0,0,0,1.38.85,1.43,1.43,0,0,0,1.61-1.58v-.75H310a1.92,1.92,0,0,1-1.63.86,2.49,2.49,0,0,1-.06-5,2,2,0,0,1,1.67.88h.05v-.76h.72v4.73a2.08,2.08,0,0,1-2.3,2.21A1.91,1.91,0,0,1,306.41,226Zm3.67-3.09a1.66,1.66,0,1,0-1.65,1.83A1.68,1.68,0,0,0,310.08,222.89Z"/><rect class="cls-2" x="351.17" y="60" width="77.8" height="50.52" rx="6.06"/><path d="M364.85,79.45a3.21,3.21,0,0,1,3.27-3.31,3.05,3.05,0,0,1,3,2.16h-.79a2.23,2.23,0,0,0-2.21-1.47,2.61,2.61,0,0,0,0,5.22,2.17,2.17,0,0,0,2.18-1.46h.82a3,3,0,0,1-3,2.16A3.19,3.19,0,0,1,364.85,79.45Z"/><path d="M372.39,75.81h.72v2.78h.05a1.58,1.58,0,0,1,1.47-.81,1.75,1.75,0,0,1,1.78,1.87v3h-.72V79.7a1.21,1.21,0,0,0-1.24-1.25,1.31,1.31,0,0,0-1.34,1.3v2.88h-.72Z"/><path d="M377.81,76.52a.51.51,0,0,1,.52-.52.5.5,0,0,1,.52.52.5.5,0,0,1-.52.52A.5.5,0,0,1,377.81,76.52ZM378,77.9h.72v4.73H378Z"/><path d="M380.22,81.62V75.81h.72v5.81c0,.23.11.37.34.37h.22v.64h-.35A.89.89,0,0,1,380.22,81.62Z"/><path d="M382.32,80.27a2.31,2.31,0,0,1,2.3-2.49,1.93,1.93,0,0,1,1.66.88h.06V75.81h.72v6.82h-.69v-.75h-.06a2,2,0,0,1-1.64.87A2.31,2.31,0,0,1,382.32,80.27Zm4.05,0a1.66,1.66,0,1,0-1.65,1.83A1.68,1.68,0,0,0,386.37,80.27Z"/><path d="M390.79,79.45a3.21,3.21,0,0,1,3.27-3.31,3.09,3.09,0,0,1,3,2.07h-.82a2.21,2.21,0,0,0-2.17-1.38,2.61,2.61,0,0,0,0,5.22,2.21,2.21,0,0,0,2.36-2.12h-2.58v-.65h3.41a3.14,3.14,0,0,1-3.2,3.47A3.2,3.2,0,0,1,390.79,79.45Z"/><path d="M398.54,77.9h.71v.88h.05a1.39,1.39,0,0,1,1.3-.88h.4v.72h-.39c-.87,0-1.35.67-1.35,1.57v2.44h-.72Z"/><path d="M401.63,80.27a2.32,2.32,0,0,1,2.3-2.49,2,2,0,0,1,1.67.88h0V77.9h.72v4.73h-.69v-.75h-.05a2,2,0,0,1-1.64.87A2.32,2.32,0,0,1,401.63,80.27Zm4.05,0A1.66,1.66,0,1,0,404,82.1,1.68,1.68,0,0,0,405.68,80.27Z"/><path d="M408.66,81.88h-.05v.75h-.69V75.81h.72v2.85h.05a2,2,0,0,1,1.66-.88,2.49,2.49,0,0,1-.05,5A2,2,0,0,1,408.66,81.88Zm3.26-1.61a1.66,1.66,0,1,0-1.67,1.83A1.65,1.65,0,0,0,411.92,80.27Z"/><path d="M413.66,81.25h.7c.08.57.48.87,1.17.87s1.1-.35,1.1-.83c0-1.33-2.83-.32-2.83-2.19,0-.8.72-1.32,1.71-1.32a1.55,1.55,0,0,1,1.67,1.36h-.69c-.06-.44-.4-.74-1-.74s-1,.29-1,.7c0,1.2,2.84.2,2.84,2.15,0,.9-.74,1.5-1.84,1.5A1.63,1.63,0,0,1,413.66,81.25Z"/><path d="M382.82,87.17h.74v5.71h2.74v.66h-3.48Z"/><path d="M387.48,91.79v-3h.72v3A1.2,1.2,0,0,0,389.42,93a1.31,1.31,0,0,0,1.33-1.35V88.81h.72v4.73h-.72v-.69h-.06a1.54,1.54,0,0,1-1.44.81A1.74,1.74,0,0,1,387.48,91.79Z"/><path d="M393,88.81h.72v.68h.06a1.49,1.49,0,0,1,1.38-.8,1.59,1.59,0,0,1,1.49.87h.06a1.57,1.57,0,0,1,1.5-.87A1.68,1.68,0,0,1,400,90.48v3.06h-.72V90.71c0-.89-.44-1.34-1.14-1.34a1.24,1.24,0,0,0-1.25,1.35v2.82h-.72v-3A1.13,1.13,0,0,0,395,89.37a1.24,1.24,0,0,0-1.23,1.32v2.85H393Z"/><path d="M401.36,87.43a.53.53,0,1,1,.52.53A.51.51,0,0,1,401.36,87.43Zm.15,1.38h.71v4.73h-.71Z"/><rect class="cls-2" x="448.17" y="60" width="77.8" height="50.52" rx="6.06"/><path d="M477.41,74a3.21,3.21,0,0,1,3.27-3.31,3.05,3.05,0,0,1,3,2.16h-.79a2.23,2.23,0,0,0-2.2-1.46,2.61,2.61,0,0,0,0,5.22,2.16,2.16,0,0,0,2.17-1.47h.82a3,3,0,0,1-3,2.16A3.19,3.19,0,0,1,477.41,74Z"/><path d="M485,70.35h.71v2.78h.06a1.57,1.57,0,0,1,1.46-.81A1.75,1.75,0,0,1,489,74.2v3h-.71V74.24A1.21,1.21,0,0,0,487,73a1.3,1.3,0,0,0-1.35,1.29v2.88H485Z"/><path d="M490.37,71.06a.5.5,0,0,1,.51-.52.51.51,0,0,1,.53.52.51.51,0,0,1-.53.52A.5.5,0,0,1,490.37,71.06Zm.14,1.38h.72v4.73h-.72Z"/><path d="M492.77,76.16V70.35h.72v5.81a.32.32,0,0,0,.35.37h.22v.64h-.35A.89.89,0,0,1,492.77,76.16Z"/><path d="M494.88,74.81a2.31,2.31,0,0,1,2.3-2.49,1.93,1.93,0,0,1,1.66.88h.06V70.35h.71v6.82h-.69v-.75h-.05a1.93,1.93,0,0,1-1.64.87A2.31,2.31,0,0,1,494.88,74.81Zm4,0A1.65,1.65,0,0,0,497.26,73a1.68,1.68,0,0,0-1.65,1.83,1.66,1.66,0,0,0,1.67,1.83A1.68,1.68,0,0,0,498.92,74.81Z"/><path d="M462.87,81.71h2.28a1.83,1.83,0,0,1,2,1.91,1.87,1.87,0,0,1-2,1.94H463.6v2.52h-.73Zm2.21,3.2a1.22,1.22,0,0,0,1.26-1.29,1.19,1.19,0,0,0-1.26-1.25H463.6v2.54Z"/><path d="M468.28,87.07V81.26H469v5.81c0,.24.11.37.34.37h.22v.64h-.35A.88.88,0,0,1,468.28,87.07Z"/><path d="M470.38,85.73a2.32,2.32,0,0,1,2.3-2.5,1.91,1.91,0,0,1,1.66.89h.06v-.77h.72v4.73h-.7v-.75h-.05a1.93,1.93,0,0,1-1.64.87A2.31,2.31,0,0,1,470.38,85.73Zm4,0a1.65,1.65,0,0,0-1.66-1.84,1.68,1.68,0,0,0-1.65,1.84,1.66,1.66,0,1,0,3.31,0Z"/><path d="M476.3,85.72a2.41,2.41,0,0,1,2.42-2.49A2.23,2.23,0,0,1,481,84.91h-.74a1.5,1.5,0,0,0-1.48-1,1.83,1.83,0,0,0,0,3.65,1.52,1.52,0,0,0,1.48-1H481a2.22,2.22,0,0,1-2.23,1.67A2.38,2.38,0,0,1,476.3,85.72Z"/><path d="M481.87,85.72a2.32,2.32,0,0,1,2.32-2.49,2.24,2.24,0,0,1,2.29,2.42V86h-3.85a1.63,1.63,0,0,0,3.06.72h.75a2.2,2.2,0,0,1-2.2,1.51A2.32,2.32,0,0,1,481.87,85.72Zm3.85-.39a1.46,1.46,0,0,0-1.53-1.44,1.54,1.54,0,0,0-1.55,1.44Z"/><path d="M487.48,86.71h.7c.08.56.48.86,1.18.86s1.1-.34,1.1-.83c0-1.32-2.83-.31-2.83-2.19,0-.8.72-1.32,1.71-1.32A1.55,1.55,0,0,1,491,84.6h-.69c-.06-.45-.4-.75-1-.75s-1,.29-1,.7c0,1.2,2.84.2,2.84,2.16,0,.89-.74,1.49-1.84,1.49A1.64,1.64,0,0,1,487.48,86.71Z"/><path d="M495.2,81.71h.74v5.71h2.75v.66H495.2Z"/><path d="M499.87,86.33v-3h.72v3a1.19,1.19,0,0,0,1.22,1.24,1.31,1.31,0,0,0,1.32-1.35V83.35h.72v4.73h-.72v-.69h-.05a1.54,1.54,0,0,1-1.45.81A1.74,1.74,0,0,1,499.87,86.33Z"/><path d="M505.4,83.35h.72V84h.05a1.5,1.5,0,0,1,1.38-.8,1.59,1.59,0,0,1,1.49.87h.07a1.56,1.56,0,0,1,1.5-.87A1.67,1.67,0,0,1,512.34,85v3.06h-.71V85.25c0-.89-.45-1.34-1.15-1.34a1.24,1.24,0,0,0-1.25,1.35v2.82h-.71v-3a1.13,1.13,0,0,0-1.18-1.21,1.24,1.24,0,0,0-1.22,1.32v2.85h-.72Z"/><path d="M513.74,82a.53.53,0,1,1,.52.53A.51.51,0,0,1,513.74,82Zm.15,1.38h.72v4.73h-.72Z"/><path d="M458.63,96.63a2.47,2.47,0,1,1,2.46,2.48A2.41,2.41,0,0,1,458.63,96.63Zm4.2,0a1.73,1.73,0,1,0-1.74,1.83A1.73,1.73,0,0,0,462.83,96.63Z"/><path d="M464.84,94.26h.72V95h.05a1.54,1.54,0,0,1,1.45-.81A1.73,1.73,0,0,1,468.82,96v3h-.72V96.06a1.19,1.19,0,0,0-1.22-1.24,1.31,1.31,0,0,0-1.32,1.35V99h-.72Z"/><path d="M472.5,97.1h.74a1.4,1.4,0,0,0,1.57,1.33c.83,0,1.43-.41,1.43-1.07,0-2-3.52-.6-3.52-3.15a1.82,1.82,0,0,1,2-1.7,1.9,1.9,0,0,1,2.09,1.85h-.75c0-.73-.48-1.18-1.35-1.18s-1.29.5-1.29,1c0,1.74,3.53.53,3.53,3.1,0,1-.82,1.8-2.21,1.8A2.11,2.11,0,0,1,472.5,97.1Z"/><path d="M478.26,94.26H479V95H479a1.94,1.94,0,0,1,1.63-.86,2.49,2.49,0,0,1,.06,5,1.93,1.93,0,0,1-1.66-.88H479v2.85h-.72Zm4,2.36a1.65,1.65,0,0,0-1.66-1.83A1.68,1.68,0,0,0,479,96.62a1.66,1.66,0,1,0,3.31,0Z"/><path d="M483.91,96.64a2.31,2.31,0,0,1,2.3-2.49,1.91,1.91,0,0,1,1.66.88h.06v-.77h.72V99H488v-.74h-.06a2,2,0,0,1-1.64.86A2.31,2.31,0,0,1,483.91,96.64Zm4,0a1.66,1.66,0,1,0-1.65,1.83A1.68,1.68,0,0,0,488,96.64Z"/><path d="M489.83,96.63a2.4,2.4,0,0,1,2.42-2.48,2.23,2.23,0,0,1,2.24,1.67h-.75a1.5,1.5,0,0,0-1.47-1,1.83,1.83,0,0,0,0,3.66,1.5,1.5,0,0,0,1.48-1h.73a2.22,2.22,0,0,1-2.23,1.67A2.38,2.38,0,0,1,489.83,96.63Z"/><path d="M495.4,96.63a2.31,2.31,0,0,1,2.32-2.48A2.23,2.23,0,0,1,500,96.57v.31h-3.85a1.52,1.52,0,0,0,1.62,1.58,1.5,1.5,0,0,0,1.44-.86H500a2.2,2.2,0,0,1-2.2,1.51A2.31,2.31,0,0,1,495.4,96.63Zm3.85-.38a1.46,1.46,0,0,0-1.53-1.45,1.53,1.53,0,0,0-1.54,1.45Z"/><path d="M501,97.62h.7c.09.56.49.86,1.18.86s1.1-.34,1.1-.82c0-1.33-2.83-.32-2.83-2.2,0-.8.72-1.31,1.71-1.31a1.55,1.55,0,0,1,1.67,1.36h-.69c-.06-.45-.4-.75-1-.75s-1,.3-1,.7c0,1.21,2.84.21,2.84,2.16,0,.89-.74,1.49-1.84,1.49A1.65,1.65,0,0,1,501,97.62Z"/><path d="M506.1,92.17h.72V95h.05a1.57,1.57,0,0,1,1.46-.81A1.75,1.75,0,0,1,510.12,96v3h-.72V96.06a1.21,1.21,0,0,0-1.24-1.24,1.3,1.3,0,0,0-1.34,1.3V99h-.72Z"/><path d="M511.52,92.88a.52.52,0,1,1,.52.53A.51.51,0,0,1,511.52,92.88Zm.14,1.38h.72V99h-.72Z"/><path d="M513.93,94.26h.69V95h0a2,2,0,0,1,1.64-.86,2.49,2.49,0,0,1,.05,5,1.93,1.93,0,0,1-1.66-.88h-.06v2.85h-.71Zm4,2.36a1.66,1.66,0,0,0-1.67-1.83,1.68,1.68,0,0,0-1.64,1.83,1.66,1.66,0,0,0,1.66,1.84A1.68,1.68,0,0,0,517.93,96.62Z"/><line class="cls-4" x1="58.41" y1="134.77" x2="58.41" y2="152.68"/><polygon points="55.51 150.7 58.41 161.54 61.32 150.7 55.51 150.7"/><line class="cls-4" x1="487.26" y1="110.52" x2="487.26" y2="123.02"/><polygon points="484.36 121.04 487.26 131.88 490.17 121.04 484.36 121.04"/></svg>